<svg width="142" height="129" viewBox="0 0 142 129" fill="none" xmlns="http://www.w3.org/2000/svg">
<path d="M65.7256 32.045C73.9564 28.8628 82.8602 29.8668 92.1904 24.8517L114.584 54.5865C107.543 61.2303 104.885 72.2831 100.361 78.0361C95.8378 83.7891 46.2012 124.186 41.364 122.467C36.5268 120.748 25.8314 112.622 18.9277 103.494C11.9622 94.2832 6.919 80.0218 6.7282 76.4757C6.5374 72.9297 57.4947 35.2272 65.7256 32.045Z" fill="#E3562B" stroke="#E3562B" stroke-width="9"/>
<path d="M80.5082 18.7389C84.1854 19.7718 85.5629 19.8729 88.5743 19C92.0812 17.9835 96.143 17.9481 98.3982 20.8195L120.589 49.0741C122.629 51.6713 121.561 55.268 119.469 57.8235C117.219 60.5719 116.865 63.1649 116.435 66.4442C116.005 69.7236 113.261 60.4077 109.94 57.8195C107.107 55.6119 103.618 56.9367 101.632 53.9385C100.457 52.1639 101.418 50.4288 100.174 48.7014C98.8577 46.8744 96.7591 47.3315 95.3402 45.5833C93.7648 43.6422 94.8478 41.4788 93.2724 39.5377C91.8535 37.7895 89.8555 38.1698 88.439 36.4196C87.713 35.5225 87.3051 34.2686 87.0859 32.9793C86.5447 29.7954 84.166 27.2036 82.1087 24.714C80.5657 22.8467 76.831 17.7059 80.5082 18.7389Z" fill="#34A46A" stroke="#34A46A" stroke-linecap="round"/>
<path d="M122.284 25.0417C125.8 29.7097 130.079 36.006 133.288 40.8362C135.833 44.6667 134.915 49.7992 131.234 52.5713C127.349 55.4969 121.828 54.7188 118.902 50.8338L96.5614 21.1686C93.6356 17.2836 94.4127 11.7623 98.2975 8.83641C101.978 6.0644 107.164 6.59944 110.143 10.103C113.899 14.5214 118.769 20.3736 122.284 25.0417Z" fill="#34A46A" stroke="#34A46A"/>
</svg>
