<svg width="314" height="317" viewBox="0 0 314 317" fill="none" xmlns="http://www.w3.org/2000/svg">
<ellipse cx="156.526" cy="158.33" rx="117.326" ry="42.0522" transform="rotate(12.6346 156.526 158.33)" fill="#F79C05"/>
<ellipse cx="156.526" cy="158.33" rx="117.326" ry="42.0522" transform="rotate(12.6346 156.526 158.33)" fill="#F79C05"/>
<path d="M110.46 128.021C110.726 124.527 110.298 120.254 109.579 116.606C109.101 114.179 112.596 109.856 115.031 110.287C115.638 110.394 116.188 110.716 116.576 111.194C118.374 113.41 121.967 118.326 120.498 128.304C119.297 136.459 115.468 142.021 111.204 145.193C109.24 146.654 107.073 144.616 107.721 142.255C108.885 138.015 110.111 132.609 110.46 128.021Z" fill="#E3562B"/>
<path d="M213.559 148.722C213.675 146.191 213.248 143.147 212.575 140.375C212.045 138.192 215.469 133.731 217.677 134.14C218.13 134.224 218.546 134.448 218.869 134.776C220.683 136.625 224.636 140.863 223.523 149.332C222.636 156.08 219.057 160.575 214.955 163.066C212.926 164.298 210.911 162.17 211.544 159.883C212.482 156.489 213.393 152.318 213.559 148.722Z" fill="#E3562B"/>
<path d="M139.406 133.47C139.844 128.966 139.467 123.387 138.748 118.912C138.33 116.304 141.82 112.148 144.426 112.588C145.186 112.716 145.867 113.145 146.301 113.783C148.061 116.369 151.332 121.973 149.516 133.428C148.001 142.989 143.926 149.617 139.503 153.471C137.6 155.13 135.301 153.173 135.961 150.737C137.334 145.672 138.863 139.039 139.406 133.47Z" fill="#E3562B"/>
<path d="M164.026 138.988C164.465 134.484 164.087 128.905 163.369 124.431C162.95 121.822 166.441 117.667 169.046 118.106C169.806 118.235 170.488 118.664 170.921 119.301C172.682 121.887 175.952 127.491 174.136 138.946C172.621 148.507 168.547 155.136 164.123 158.99C162.22 160.648 159.921 158.692 160.581 156.256C161.954 151.19 163.484 144.558 164.026 138.988Z" fill="#E3562B"/>
<path d="M189.327 141.479C189.514 138.473 189.08 134.826 188.377 131.611C187.871 129.297 191.343 124.899 193.673 125.32C194.202 125.416 194.684 125.687 195.042 126.089C196.851 128.12 200.621 132.695 199.328 141.925C198.284 149.377 194.579 154.405 190.395 157.237C188.399 158.588 186.306 156.505 186.947 154.181C188.001 150.361 189.071 145.572 189.327 141.479Z" fill="#E3562B"/>
</svg>
