<svg width="291" height="230" viewBox="0 0 291 230" fill="none" xmlns="http://www.w3.org/2000/svg">
<ellipse cx="145.232" cy="79.3295" rx="117.326" ry="42.0522" transform="rotate(26.8192 145.232 79.3295)" fill="#F79C05"/>
<ellipse cx="145.232" cy="79.3295" rx="117.326" ry="42.0522" transform="rotate(26.8192 145.232 79.3295)" fill="#F79C05"/>
<path d="M107.997 38.6563C109.111 35.3344 109.743 31.087 109.94 27.3742C110.071 24.9039 114.519 21.5686 116.775 22.5833C117.337 22.836 117.791 23.2828 118.05 23.8419C119.251 26.4305 121.529 32.077 117.659 41.3908C114.497 49.0032 109.422 53.4568 104.51 55.4874C102.248 56.4227 100.647 53.9154 101.854 51.7856C104.021 47.9601 106.535 43.0194 107.997 38.6563Z" fill="#E3562B"/>
<path d="M202.88 83.9912C203.614 81.5658 203.945 78.5097 203.972 75.6568C203.993 73.4114 208.406 69.9253 210.447 70.8625C210.865 71.0547 211.214 71.3738 211.446 71.7716C212.752 74.0086 215.546 79.0857 212.392 87.0235C209.878 93.3491 205.307 96.8294 200.719 98.2395C198.45 98.9369 197.018 96.3801 198.192 94.3172C199.934 91.2573 201.839 87.4361 202.88 83.9912Z" fill="#E3562B"/>
<path d="M134.726 51.0326C136.255 46.7731 137.256 41.2718 137.656 36.7577C137.889 34.1258 142.292 30.9526 144.71 32.0174C145.415 32.3281 145.971 32.911 146.235 33.6352C147.308 36.5739 149.105 42.8084 144.538 53.4692C140.726 62.3676 135.152 67.7955 129.919 70.4481C127.668 71.5894 125.918 69.1295 127.155 66.9292C129.727 62.3546 132.835 56.2991 134.726 51.0326Z" fill="#E3562B"/>
<path d="M157.242 62.4159C158.771 58.1564 159.772 52.6551 160.172 48.141C160.406 45.5091 164.808 42.3359 167.226 43.4007C167.932 43.7114 168.487 44.2943 168.752 45.0185C169.825 47.9572 171.622 54.1917 167.055 64.8525C163.243 73.7509 157.668 79.1788 152.436 81.8314C150.184 82.9727 148.434 80.5128 149.671 78.3125C152.244 73.7379 155.352 67.6824 157.242 62.4159Z" fill="#E3562B"/>
<path d="M181.162 71.0303C182.08 68.1625 182.552 64.52 182.659 61.2301C182.736 58.8634 187.179 55.4496 189.335 56.4294C189.825 56.6521 190.225 57.0326 190.474 57.5099C191.73 59.9222 194.263 65.2817 190.748 73.9137C187.91 80.883 183.086 84.8497 178.336 86.5698C176.07 87.3905 174.551 84.8579 175.742 82.7624C177.7 79.3172 179.911 74.9362 181.162 71.0303Z" fill="#E3562B"/>
</svg>
