<svg width="528" height="295" viewBox="0 0 528 295" fill="none" xmlns="http://www.w3.org/2000/svg">
<path d="M69.2449 116.111C71.2351 111.208 75.9988 108 81.2905 108H443.713C448.978 108 453.723 111.176 455.731 116.043L510.593 249.043C514.123 257.6 507.832 267 498.575 267H27.3067C18.0815 267 11.7916 257.659 15.2611 249.111L69.2449 116.111Z" fill="#F4E4C3"/>
<rect x="87" y="149" width="194" height="78" rx="10" fill="#E3562B"/>
<mask id="path-3-inside-1_475_454" fill="white">
<rect x="308" y="149" width="38" height="36" rx="10"/>
</mask>
<rect x="308" y="149" width="38" height="36" rx="10" stroke="#E3562B" stroke-width="36" mask="url(#path-3-inside-1_475_454)"/>
<mask id="path-4-inside-2_475_454" fill="white">
<rect x="358" y="149" width="36" height="36" rx="10"/>
</mask>
<rect x="358" y="149" width="36" height="36" rx="10" stroke="#E3562B" stroke-width="36" mask="url(#path-4-inside-2_475_454)"/>
<mask id="path-5-inside-3_475_454" fill="white">
<rect x="406" y="149" width="36" height="36" rx="10"/>
</mask>
<rect x="406" y="149" width="36" height="36" rx="10" stroke="#E3562B" stroke-width="36" mask="url(#path-5-inside-3_475_454)"/>
<mask id="path-6-inside-4_475_454" fill="white">
<rect x="308" y="189" width="38" height="36" rx="10"/>
</mask>
<rect x="308" y="189" width="38" height="36" rx="10" stroke="#E3562B" stroke-width="36" mask="url(#path-6-inside-4_475_454)"/>
<mask id="path-7-inside-5_475_454" fill="white">
<rect x="358" y="189" width="36" height="36" rx="10"/>
</mask>
<rect x="358" y="189" width="36" height="36" rx="10" stroke="#E3562B" stroke-width="36" mask="url(#path-7-inside-5_475_454)"/>
<mask id="path-8-inside-6_475_454" fill="white">
<rect x="406" y="189" width="36" height="36" rx="10"/>
</mask>
<rect x="406" y="189" width="36" height="36" rx="10" stroke="#E3562B" stroke-width="36" mask="url(#path-8-inside-6_475_454)"/>
<path d="M10.3961 14.2938C6.06952 8.34507 10.3189 0 17.6746 0H509.381C516.909 0 521.11 8.69155 516.434 14.5908L479.177 61.5908C477.47 63.7444 474.873 65 472.124 65H51.8585C48.9792 65 46.2737 63.6223 44.58 61.2938L10.3961 14.2938Z" fill="#F4E4C3"/>
<rect x="66.5" y="262.5" width="67" height="30" rx="4.5" fill="#F4E4C3" stroke="#F4E4C3" stroke-width="5"/>
<rect x="395.5" y="262.5" width="69" height="30" rx="4.5" fill="#F4E4C3" stroke="#F4E4C3" stroke-width="5"/>
<rect x="173.5" y="63.5" width="164" height="45" fill="#F4E4C3" stroke="#F4E4C3" stroke-width="5"/>
</svg>
