<svg width="334" height="334" viewBox="0 0 334 334" fill="none" xmlns="http://www.w3.org/2000/svg">
<path d="M199.575 87.3068C243.994 104.257 266.261 154.006 249.311 198.425C232.361 242.843 182.612 265.11 138.194 248.16C93.7758 231.21 71.5084 181.461 88.4582 137.043C105.408 92.6249 155.157 70.357 199.575 87.3068Z" fill="#F4E4C3" stroke="#EA7D9C"/>
<path d="M212.931 46.603C279.424 71.9772 312.758 146.451 287.384 212.945C262.01 279.438 187.537 312.773 121.043 287.399C54.5496 262.025 21.2152 187.551 46.5891 121.057C71.9631 54.5632 146.437 21.229 212.931 46.603Z" fill="#F4E4C3" stroke="#EA7D9C"/>
<path d="M200.386 85.368C245.875 102.727 268.679 153.675 251.321 199.164C233.962 244.652 183.014 267.456 137.526 250.098C92.0368 232.74 69.2325 181.791 86.591 136.303C103.95 90.8136 154.898 68.0094 200.386 85.368Z" fill="#F4E4C3" stroke="#EA7D9C" stroke-width="5"/>
<path d="M212.429 48.0014C278.149 73.0803 311.094 146.687 286.016 212.407C260.937 278.127 187.331 311.073 121.611 285.995C55.8915 260.916 22.9452 187.309 48.0238 121.589C73.1024 55.8689 146.709 22.9227 212.429 48.0014Z" fill="#F4E4C3" stroke="#EA7D9C" stroke-width="4"/>
<mask id="path-5-inside-1_353_7330" fill="white">
<path d="M184.172 38.7737C206.188 41.7187 227.076 50.2832 244.822 63.6422L219.787 96.9008C207.751 87.8405 193.584 82.032 178.653 80.0346L184.172 38.7737Z"/>
</mask>
<path d="M184.172 38.7737C206.188 41.7187 227.076 50.2832 244.822 63.6422L219.787 96.9008C207.751 87.8405 193.584 82.032 178.653 80.0346L184.172 38.7737Z" fill="#F4E4C3" stroke="#EA7D9C" stroke-width="44" mask="url(#path-5-inside-1_353_7330)"/>
<mask id="path-6-inside-2_353_7330" fill="white">
<path d="M76.0966 74.9734C91.8976 59.3613 111.452 48.0809 132.877 42.2185L143.864 82.3709C129.333 86.3469 116.071 93.9974 105.355 104.586L76.0966 74.9734Z"/>
</mask>
<path d="M76.0966 74.9734C91.8976 59.3613 111.452 48.0809 132.877 42.2185L143.864 82.3709C129.333 86.3469 116.071 93.9974 105.355 104.586L76.0966 74.9734Z" fill="#F4E4C3" stroke="#EA7D9C" stroke-width="44" mask="url(#path-6-inside-2_353_7330)"/>
<mask id="path-7-inside-3_353_7330" fill="white">
<path d="M37.9342 175.506C36.4733 153.341 40.7442 131.174 50.3355 111.138L87.8831 129.113C81.3782 142.701 78.4816 157.736 79.4724 172.768L37.9342 175.506Z"/>
</mask>
<path d="M37.9342 175.506C36.4733 153.341 40.7442 131.174 50.3355 111.138L87.8831 129.113C81.3782 142.701 78.4816 157.736 79.4724 172.768L37.9342 175.506Z" fill="#F4E4C3" stroke="#EA7D9C" stroke-width="42" mask="url(#path-7-inside-3_353_7330)"/>
<mask id="path-8-inside-4_353_7330" fill="white">
<path d="M84.8161 266.888C67.6645 252.773 54.4362 234.48 46.4053 213.77L85.2176 198.719C90.6643 212.765 99.6359 225.172 111.268 234.745L84.8161 266.888Z"/>
</mask>
<path d="M84.8161 266.888C67.6645 252.773 54.4362 234.48 46.4053 213.77L85.2176 198.719C90.6643 212.765 99.6359 225.172 111.268 234.745L84.8161 266.888Z" fill="#F4E4C3" stroke="#EA7D9C" stroke-width="44" mask="url(#path-8-inside-4_353_7330)"/>
<mask id="path-9-inside-5_353_7330" fill="white">
<path d="M278.668 101.65C289.888 120.82 295.984 142.557 296.367 164.766L254.744 165.484C254.485 150.422 250.351 135.68 242.741 122.678L278.668 101.65Z"/>
</mask>
<path d="M278.668 101.65C289.888 120.82 295.984 142.557 296.367 164.766L254.744 165.484C254.485 150.422 250.351 135.68 242.741 122.678L278.668 101.65Z" fill="#F4E4C3" stroke="#EA7D9C" stroke-width="44" mask="url(#path-9-inside-5_353_7330)"/>
<mask id="path-10-inside-6_353_7330" fill="white">
<path d="M200.544 291.945C179.09 297.701 156.515 297.836 134.994 292.337L145.3 252.004C159.896 255.734 175.206 255.642 189.756 251.738L200.544 291.945Z"/>
</mask>
<path d="M200.544 291.945C179.09 297.701 156.515 297.836 134.994 292.337L145.3 252.004C159.896 255.734 175.206 255.642 189.756 251.738L200.544 291.945Z" fill="#F4E4C3" stroke="#EA7D9C" stroke-width="44" mask="url(#path-10-inside-6_353_7330)"/>
<mask id="path-11-inside-7_353_7330" fill="white">
<path d="M285.69 218.505C276.846 238.881 262.904 256.637 245.207 270.062L220.048 236.897C232.05 227.792 241.505 215.75 247.503 201.931L285.69 218.505Z"/>
</mask>
<path d="M285.69 218.505C276.846 238.881 262.904 256.637 245.207 270.062L220.048 236.897C232.05 227.792 241.505 215.75 247.503 201.931L285.69 218.505Z" fill="#F4E4C3" stroke="#EA7D9C" stroke-width="44" mask="url(#path-11-inside-7_353_7330)"/>
<path d="M198.918 85.9638C243.365 102.925 265.647 152.706 248.685 197.153C231.724 241.601 181.944 263.883 137.497 246.922C93.0494 229.961 70.7673 180.179 87.7283 135.732C104.689 91.2847 154.471 69.0027 198.918 85.9638Z" stroke="#EA7D9C" stroke-width="7"/>
<path d="M162.876 138.268C169.623 135.659 176.922 136.482 184.57 132.371L202.926 156.746C197.155 162.192 194.976 171.252 191.268 175.968C187.56 180.684 146.872 213.798 142.907 212.389C138.941 210.979 130.174 204.319 124.515 196.836C118.805 189.286 114.671 177.595 114.515 174.689C114.359 171.782 156.129 140.876 162.876 138.268Z" fill="#EA7D9C" stroke="#EA7D9C" stroke-width="9"/>
<path d="M174.994 127.361C178.009 128.207 179.138 128.29 181.606 127.575C184.481 126.741 187.811 126.712 189.659 129.066L207.849 152.227C209.522 154.356 208.646 157.304 206.931 159.399C205.087 161.652 204.797 163.777 204.444 166.466C204.092 169.154 201.843 161.517 199.12 159.396C196.798 157.586 193.938 158.672 192.311 156.214C191.347 154.76 192.134 153.337 191.115 151.922C190.036 150.424 188.316 150.799 187.153 149.366C185.861 147.774 186.749 146.001 185.458 144.41C184.295 142.977 182.657 143.288 181.496 141.854C180.9 141.118 180.566 140.091 180.386 139.034C179.943 136.424 177.993 134.299 176.306 132.259C175.042 130.728 171.98 126.514 174.994 127.361Z" fill="#34A46A" stroke="#34A46A" stroke-linecap="round"/>
<path d="M209.167 132.581C212.047 136.406 215.554 141.565 218.184 145.524C220.243 148.624 219.501 152.777 216.521 155.022C213.376 157.39 208.906 156.76 206.538 153.616L188.225 129.299C185.856 126.154 186.486 121.684 189.631 119.315C192.61 117.071 196.808 117.505 199.218 120.34C202.297 123.961 206.287 128.757 209.167 132.581Z" fill="#34A46A" stroke="#34A46A"/>
</svg>
