<svg width="108" height="104" viewBox="0 0 108 104" fill="none" xmlns="http://www.w3.org/2000/svg">
<circle cx="54.6096" cy="50.2371" r="27.497" transform="rotate(20.8869 54.6096 50.2371)" fill="#F4E4C3" stroke="#34A46A"/>
<circle cx="53.9958" cy="49.9998" r="41.3309" transform="rotate(20.8869 53.9958 49.9998)" fill="#F4E4C3" stroke="#34A46A"/>
<circle cx="54.6325" cy="50.2371" r="26.8145" transform="rotate(20.8869 54.6325 50.2371)" fill="#F4E4C3" stroke="#34A46A" stroke-width="5"/>
<circle cx="54.0066" cy="49.9992" r="39.8309" transform="rotate(20.8869 54.0066 49.9992)" fill="#F4E4C3" stroke="#34A46A" stroke-width="4"/>
<mask id="path-5-inside-1_225_4948" fill="white">
<path d="M59.5526 8.53766C66.6718 9.48995 73.4258 12.2593 79.1642 16.579L71.0688 27.3332C67.1769 24.4035 62.5963 22.5253 57.768 21.8795L59.5526 8.53766Z"/>
</mask>
<path d="M59.5526 8.53766C66.6718 9.48995 73.4258 12.2593 79.1642 16.579L71.0688 27.3332C67.1769 24.4035 62.5963 22.5253 57.768 21.8795L59.5526 8.53766Z" fill="#F4E4C3" stroke="#34A46A" stroke-width="28" mask="url(#path-5-inside-1_225_4948)"/>
<mask id="path-6-inside-2_225_4948" fill="white">
<path d="M24.6062 20.2429C29.7155 15.1947 36.0386 11.5472 42.9664 9.65153L46.519 22.6349C41.8204 23.9206 37.532 26.3944 34.0668 29.8181L24.6062 20.2429Z"/>
</mask>
<path d="M24.6062 20.2429C29.7155 15.1947 36.0386 11.5472 42.9664 9.65153L46.519 22.6349C41.8204 23.9206 37.532 26.3944 34.0668 29.8181L24.6062 20.2429Z" fill="#F4E4C3" stroke="#34A46A" stroke-width="28" mask="url(#path-6-inside-2_225_4948)"/>
<mask id="path-7-inside-3_225_4948" fill="white">
<path d="M12.2662 52.7504C11.7939 45.5834 13.1749 38.4155 16.2762 31.937L28.4174 37.7492C26.314 42.143 25.3774 47.0043 25.6978 51.8651L12.2662 52.7504Z"/>
</mask>
<path d="M12.2662 52.7504C11.7939 45.5834 13.1749 38.4155 16.2762 31.937L28.4174 37.7492C26.314 42.143 25.3774 47.0043 25.6978 51.8651L12.2662 52.7504Z" fill="#F4E4C3" stroke="#34A46A" stroke-width="28" mask="url(#path-7-inside-3_225_4948)"/>
<mask id="path-8-inside-4_225_4948" fill="white">
<path d="M27.4257 82.2991C21.8796 77.735 17.6022 71.8198 15.0054 65.1231L27.5555 60.2564C29.3167 64.7982 32.2177 68.81 35.9791 71.9054L27.4257 82.2991Z"/>
</mask>
<path d="M27.4257 82.2991C21.8796 77.735 17.6022 71.8198 15.0054 65.1231L27.5555 60.2564C29.3167 64.7982 32.2177 68.81 35.9791 71.9054L27.4257 82.2991Z" fill="#F4E4C3" stroke="#34A46A" stroke-width="28" mask="url(#path-8-inside-4_225_4948)"/>
<mask id="path-9-inside-5_225_4948" fill="white">
<path d="M90.1082 28.8688C93.7364 35.0676 95.7073 42.0963 95.8312 49.2777L82.3725 49.5099C82.2885 44.6393 80.9518 39.8724 78.4911 35.6683L90.1082 28.8688Z"/>
</mask>
<path d="M90.1082 28.8688C93.7364 35.0676 95.7073 42.0963 95.8312 49.2777L82.3725 49.5099C82.2885 44.6393 80.9518 39.8724 78.4911 35.6683L90.1082 28.8688Z" fill="#F4E4C3" stroke="#34A46A" stroke-width="28" mask="url(#path-9-inside-5_225_4948)"/>
<mask id="path-10-inside-6_225_4948" fill="white">
<path d="M64.8466 90.4012C57.9094 92.2625 50.6098 92.3061 43.6509 90.528L46.9832 77.4864C51.7029 78.6923 56.6535 78.6627 61.3584 77.4003L64.8466 90.4012Z"/>
</mask>
<path d="M64.8466 90.4012C57.9094 92.2625 50.6098 92.3061 43.6509 90.528L46.9832 77.4864C51.7029 78.6923 56.6535 78.6627 61.3584 77.4003L64.8466 90.4012Z" fill="#F4E4C3" stroke="#34A46A" stroke-width="28" mask="url(#path-10-inside-6_225_4948)"/>
<mask id="path-11-inside-7_225_4948" fill="white">
<path d="M92.3788 66.6543C89.5191 73.243 85.011 78.9844 79.2887 83.3254L71.1532 72.6015C75.0341 69.6573 78.0916 65.7635 80.0311 61.2949L92.3788 66.6543Z"/>
</mask>
<path d="M92.3788 66.6543C89.5191 73.243 85.011 78.9844 79.2887 83.3254L71.1532 72.6015C75.0341 69.6573 78.0916 65.7635 80.0311 61.2949L92.3788 66.6543Z" fill="#F4E4C3" stroke="#34A46A" stroke-width="28" mask="url(#path-11-inside-7_225_4948)"/>
<circle cx="54.3895" cy="49.8199" r="25.4852" transform="rotate(20.8869 54.3895 49.8199)" stroke="#34A46A" stroke-width="7"/>
</svg>
