<svg width="108" height="108" viewBox="0 0 108 108" fill="none" xmlns="http://www.w3.org/2000/svg">
<circle cx="54.6096" cy="54.2371" r="27.497" transform="rotate(20.8869 54.6096 54.2371)" fill="#F4E4C3" stroke="#E3562B"/>
<circle cx="53.9958" cy="53.9998" r="41.3309" transform="rotate(20.8869 53.9958 53.9998)" fill="#F4E4C3" stroke="#E3562B"/>
<circle cx="54.6325" cy="54.237" r="26.8145" transform="rotate(20.8869 54.6325 54.237)" fill="#F4E4C3" stroke="#E3562B" stroke-width="5"/>
<circle cx="54.0066" cy="53.9993" r="39.8309" transform="rotate(20.8869 54.0066 53.9993)" fill="#F4E4C3" stroke="#E3562B" stroke-width="4"/>
<mask id="path-5-inside-1_225_4962" fill="white">
<path d="M59.5526 12.5377C66.6718 13.49 73.4258 16.2593 79.1642 20.579L71.0688 31.3332C67.1769 28.4036 62.5963 26.5254 57.768 25.8795L59.5526 12.5377Z"/>
</mask>
<path d="M59.5526 12.5377C66.6718 13.49 73.4258 16.2593 79.1642 20.579L71.0688 31.3332C67.1769 28.4036 62.5963 26.5254 57.768 25.8795L59.5526 12.5377Z" fill="#F4E4C3" stroke="#E3562B" stroke-width="28" mask="url(#path-5-inside-1_225_4962)"/>
<mask id="path-6-inside-2_225_4962" fill="white">
<path d="M24.6062 24.2429C29.7155 19.1947 36.0386 15.5472 42.9664 13.6515L46.519 26.6349C41.8204 27.9206 37.532 30.3944 34.0668 33.8181L24.6062 24.2429Z"/>
</mask>
<path d="M24.6062 24.2429C29.7155 19.1947 36.0386 15.5472 42.9664 13.6515L46.519 26.6349C41.8204 27.9206 37.532 30.3944 34.0668 33.8181L24.6062 24.2429Z" fill="#F4E4C3" stroke="#E3562B" stroke-width="28" mask="url(#path-6-inside-2_225_4962)"/>
<mask id="path-7-inside-3_225_4962" fill="white">
<path d="M12.2662 56.7504C11.7939 49.5834 13.1749 42.4155 16.2762 35.937L28.4174 41.7492C26.314 46.143 25.3774 51.0044 25.6978 55.8651L12.2662 56.7504Z"/>
</mask>
<path d="M12.2662 56.7504C11.7939 49.5834 13.1749 42.4155 16.2762 35.937L28.4174 41.7492C26.314 46.143 25.3774 51.0044 25.6978 55.8651L12.2662 56.7504Z" fill="#F4E4C3" stroke="#E3562B" stroke-width="28" mask="url(#path-7-inside-3_225_4962)"/>
<mask id="path-8-inside-4_225_4962" fill="white">
<path d="M27.4257 86.2991C21.8796 81.735 17.6022 75.8198 15.0054 69.1231L27.5555 64.2565C29.3167 68.7982 32.2177 72.81 35.9791 75.9054L27.4257 86.2991Z"/>
</mask>
<path d="M27.4257 86.2991C21.8796 81.735 17.6022 75.8198 15.0054 69.1231L27.5555 64.2565C29.3167 68.7982 32.2177 72.81 35.9791 75.9054L27.4257 86.2991Z" fill="#F4E4C3" stroke="#E3562B" stroke-width="28" mask="url(#path-8-inside-4_225_4962)"/>
<mask id="path-9-inside-5_225_4962" fill="white">
<path d="M90.1082 32.8688C93.7364 39.0676 95.7073 46.0963 95.8312 53.2778L82.3725 53.5099C82.2885 48.6394 80.9518 43.8725 78.4911 39.6683L90.1082 32.8688Z"/>
</mask>
<path d="M90.1082 32.8688C93.7364 39.0676 95.7073 46.0963 95.8312 53.2778L82.3725 53.5099C82.2885 48.6394 80.9518 43.8725 78.4911 39.6683L90.1082 32.8688Z" fill="#F4E4C3" stroke="#E3562B" stroke-width="28" mask="url(#path-9-inside-5_225_4962)"/>
<mask id="path-10-inside-6_225_4962" fill="white">
<path d="M64.8466 94.4012C57.9094 96.2625 50.6098 96.3062 43.6509 94.528L46.9832 81.4864C51.7029 82.6923 56.6535 82.6627 61.3584 81.4003L64.8466 94.4012Z"/>
</mask>
<path d="M64.8466 94.4012C57.9094 96.2625 50.6098 96.3062 43.6509 94.528L46.9832 81.4864C51.7029 82.6923 56.6535 82.6627 61.3584 81.4003L64.8466 94.4012Z" fill="#F4E4C3" stroke="#E3562B" stroke-width="28" mask="url(#path-10-inside-6_225_4962)"/>
<mask id="path-11-inside-7_225_4962" fill="white">
<path d="M92.3788 70.6543C89.5191 77.243 85.011 82.9844 79.2887 87.3254L71.1532 76.6015C75.0341 73.6573 78.0916 69.7635 80.0311 65.2949L92.3788 70.6543Z"/>
</mask>
<path d="M92.3788 70.6543C89.5191 77.243 85.011 82.9844 79.2887 87.3254L71.1532 76.6015C75.0341 73.6573 78.0916 69.7635 80.0311 65.2949L92.3788 70.6543Z" fill="#F4E4C3" stroke="#E3562B" stroke-width="28" mask="url(#path-11-inside-7_225_4962)"/>
<circle cx="54.3895" cy="53.8199" r="25.4852" transform="rotate(20.8869 54.3895 53.8199)" stroke="#E3562B" stroke-width="7"/>
</svg>
