<svg width="334" height="334" viewBox="0 0 334 334" fill="none" xmlns="http://www.w3.org/2000/svg">
<path d="M199.575 87.3068C243.994 104.257 266.261 154.006 249.311 198.425C232.361 242.843 182.612 265.11 138.194 248.16C93.7758 231.21 71.5084 181.461 88.4582 137.043C105.408 92.6249 155.157 70.357 199.575 87.3068Z" fill="#F4E4C3" stroke="#34A46A"/>
<path d="M212.931 46.6031C279.424 71.9772 312.758 146.451 287.384 212.945C262.01 279.438 187.537 312.773 121.043 287.399C54.5496 262.025 21.2152 187.551 46.5891 121.057C71.9631 54.5632 146.437 21.229 212.931 46.6031Z" fill="#F4E4C3" stroke="#34A46A"/>
<path d="M200.386 85.368C245.875 102.727 268.679 153.675 251.321 199.164C233.962 244.652 183.014 267.456 137.526 250.098C92.0368 232.74 69.2325 181.791 86.591 136.303C103.95 90.8136 154.898 68.0095 200.386 85.368Z" fill="#F4E4C3" stroke="#34A46A" stroke-width="5"/>
<path d="M212.429 48.0015C278.149 73.0803 311.094 146.687 286.016 212.407C260.937 278.127 187.331 311.073 121.611 285.995C55.8915 260.916 22.9452 187.309 48.0238 121.589C73.1024 55.869 146.709 22.9228 212.429 48.0015Z" fill="#F4E4C3" stroke="#34A46A" stroke-width="4"/>
<mask id="path-5-inside-1_225_5041" fill="white">
<path d="M184.172 38.7737C206.188 41.7188 227.076 50.2832 244.822 63.6423L219.787 96.9008C207.751 87.8405 193.584 82.032 178.653 80.0347L184.172 38.7737Z"/>
</mask>
<path d="M184.172 38.7737C206.188 41.7188 227.076 50.2832 244.822 63.6423L219.787 96.9008C207.751 87.8405 193.584 82.032 178.653 80.0347L184.172 38.7737Z" fill="#F4E4C3" stroke="#34A46A" stroke-width="44" mask="url(#path-5-inside-1_225_5041)"/>
<mask id="path-6-inside-2_225_5041" fill="white">
<path d="M76.0966 74.9734C91.8976 59.3614 111.452 48.0809 132.877 42.2185L143.864 82.3709C129.333 86.3469 116.071 93.9975 105.355 104.586L76.0966 74.9734Z"/>
</mask>
<path d="M76.0966 74.9734C91.8976 59.3614 111.452 48.0809 132.877 42.2185L143.864 82.3709C129.333 86.3469 116.071 93.9975 105.355 104.586L76.0966 74.9734Z" fill="#F4E4C3" stroke="#34A46A" stroke-width="44" mask="url(#path-6-inside-2_225_5041)"/>
<mask id="path-7-inside-3_225_5041" fill="white">
<path d="M37.9342 175.506C36.4733 153.341 40.7442 131.174 50.3355 111.138L87.8831 129.113C81.3782 142.702 78.4816 157.736 79.4724 172.768L37.9342 175.506Z"/>
</mask>
<path d="M37.9342 175.506C36.4733 153.341 40.7442 131.174 50.3355 111.138L87.8831 129.113C81.3782 142.702 78.4816 157.736 79.4724 172.768L37.9342 175.506Z" fill="#F4E4C3" stroke="#34A46A" stroke-width="42" mask="url(#path-7-inside-3_225_5041)"/>
<mask id="path-8-inside-4_225_5041" fill="white">
<path d="M84.8161 266.888C67.6645 252.773 54.4362 234.48 46.4053 213.77L85.2176 198.719C90.6643 212.765 99.6359 225.172 111.268 234.745L84.8161 266.888Z"/>
</mask>
<path d="M84.8161 266.888C67.6645 252.773 54.4362 234.48 46.4053 213.77L85.2176 198.719C90.6643 212.765 99.6359 225.172 111.268 234.745L84.8161 266.888Z" fill="#F4E4C3" stroke="#34A46A" stroke-width="44" mask="url(#path-8-inside-4_225_5041)"/>
<mask id="path-9-inside-5_225_5041" fill="white">
<path d="M278.668 101.65C289.888 120.82 295.983 142.557 296.367 164.766L254.744 165.485C254.485 150.422 250.351 135.68 242.741 122.678L278.668 101.65Z"/>
</mask>
<path d="M278.668 101.65C289.888 120.82 295.983 142.557 296.367 164.766L254.744 165.485C254.485 150.422 250.351 135.68 242.741 122.678L278.668 101.65Z" fill="#F4E4C3" stroke="#34A46A" stroke-width="44" mask="url(#path-9-inside-5_225_5041)"/>
<mask id="path-10-inside-6_225_5041" fill="white">
<path d="M200.544 291.945C179.09 297.701 156.515 297.836 134.994 292.337L145.3 252.004C159.896 255.734 175.206 255.642 189.756 251.738L200.544 291.945Z"/>
</mask>
<path d="M200.544 291.945C179.09 297.701 156.515 297.836 134.994 292.337L145.3 252.004C159.896 255.734 175.206 255.642 189.756 251.738L200.544 291.945Z" fill="#F4E4C3" stroke="#34A46A" stroke-width="44" mask="url(#path-10-inside-6_225_5041)"/>
<mask id="path-11-inside-7_225_5041" fill="white">
<path d="M285.69 218.505C276.846 238.881 262.904 256.637 245.207 270.062L220.048 236.897C232.05 227.792 241.505 215.75 247.503 201.931L285.69 218.505Z"/>
</mask>
<path d="M285.69 218.505C276.846 238.881 262.904 256.637 245.207 270.062L220.048 236.897C232.05 227.792 241.505 215.75 247.503 201.931L285.69 218.505Z" fill="#F4E4C3" stroke="#34A46A" stroke-width="44" mask="url(#path-11-inside-7_225_5041)"/>
<path d="M198.918 85.9638C243.365 102.925 265.647 152.706 248.685 197.153C231.724 241.601 181.944 263.883 137.497 246.922C93.0494 229.961 70.7673 180.179 87.7283 135.732C104.689 91.2847 154.471 69.0027 198.918 85.9638Z" stroke="#34A46A" stroke-width="7"/>
<path d="M179.769 135.972C175.635 124.897 164.961 120.317 153.936 121.538C142.907 122.759 131.625 129.79 126.441 141.832C116.022 166.031 126.924 193.966 150.772 204.234C174.62 214.502 202.405 203.225 212.825 179.026C218.012 166.979 215.526 154.554 208.924 146.009C202.322 137.464 191.635 132.827 180.384 136.275L179.935 136.413L179.769 135.972Z" fill="#2CA66C" stroke="#34A46A"/>
<path d="M179.774 137.912L185.708 120.68L177.581 110.474" stroke="#34A46A" stroke-width="3" stroke-linecap="round"/>
</svg>
