<svg width="334" height="334" viewBox="0 0 334 334" fill="none" xmlns="http://www.w3.org/2000/svg">
<path d="M199.575 87.3068C243.994 104.257 266.261 154.006 249.311 198.425C232.361 242.843 182.612 265.11 138.194 248.16C93.7758 231.21 71.5084 181.461 88.4582 137.043C105.408 92.6249 155.157 70.357 199.575 87.3068Z" fill="#F4E4C3" stroke="#F79C05"/>
<path d="M212.931 46.603C279.424 71.9772 312.758 146.451 287.384 212.945C262.01 279.438 187.537 312.773 121.043 287.399C54.5496 262.025 21.2152 187.551 46.5891 121.057C71.9631 54.5632 146.437 21.229 212.931 46.603Z" fill="#F4E4C3" stroke="#F79C05"/>
<path d="M200.386 85.368C245.875 102.727 268.679 153.675 251.321 199.164C233.962 244.652 183.014 267.456 137.526 250.098C92.0368 232.74 69.2325 181.791 86.591 136.303C103.95 90.8136 154.898 68.0094 200.386 85.368Z" fill="#F4E4C3" stroke="#F79C05" stroke-width="5"/>
<path d="M212.429 48.0014C278.149 73.0803 311.094 146.687 286.016 212.407C260.937 278.127 187.331 311.073 121.611 285.995C55.8915 260.916 22.9452 187.309 48.0238 121.589C73.1024 55.8689 146.709 22.9227 212.429 48.0014Z" fill="#F4E4C3" stroke="#F79C05" stroke-width="4"/>
<mask id="path-5-inside-1_353_7312" fill="white">
<path d="M184.172 38.7737C206.188 41.7187 227.076 50.2832 244.822 63.6422L219.787 96.9008C207.751 87.8405 193.584 82.032 178.653 80.0346L184.172 38.7737Z"/>
</mask>
<path d="M184.172 38.7737C206.188 41.7187 227.076 50.2832 244.822 63.6422L219.787 96.9008C207.751 87.8405 193.584 82.032 178.653 80.0346L184.172 38.7737Z" fill="#F4E4C3" stroke="#F79C05" stroke-width="44" mask="url(#path-5-inside-1_353_7312)"/>
<mask id="path-6-inside-2_353_7312" fill="white">
<path d="M76.0966 74.9734C91.8976 59.3613 111.452 48.0809 132.877 42.2185L143.864 82.3709C129.333 86.3469 116.071 93.9974 105.355 104.586L76.0966 74.9734Z"/>
</mask>
<path d="M76.0966 74.9734C91.8976 59.3613 111.452 48.0809 132.877 42.2185L143.864 82.3709C129.333 86.3469 116.071 93.9974 105.355 104.586L76.0966 74.9734Z" fill="#F4E4C3" stroke="#F79C05" stroke-width="44" mask="url(#path-6-inside-2_353_7312)"/>
<mask id="path-7-inside-3_353_7312" fill="white">
<path d="M37.9342 175.506C36.4733 153.341 40.7442 131.174 50.3355 111.138L87.8831 129.113C81.3782 142.701 78.4816 157.736 79.4724 172.768L37.9342 175.506Z"/>
</mask>
<path d="M37.9342 175.506C36.4733 153.341 40.7442 131.174 50.3355 111.138L87.8831 129.113C81.3782 142.701 78.4816 157.736 79.4724 172.768L37.9342 175.506Z" fill="#F4E4C3" stroke="#F79C05" stroke-width="42" mask="url(#path-7-inside-3_353_7312)"/>
<mask id="path-8-inside-4_353_7312" fill="white">
<path d="M84.8161 266.888C67.6645 252.773 54.4362 234.48 46.4053 213.77L85.2176 198.719C90.6643 212.765 99.6359 225.172 111.268 234.745L84.8161 266.888Z"/>
</mask>
<path d="M84.8161 266.888C67.6645 252.773 54.4362 234.48 46.4053 213.77L85.2176 198.719C90.6643 212.765 99.6359 225.172 111.268 234.745L84.8161 266.888Z" fill="#F4E4C3" stroke="#F79C05" stroke-width="44" mask="url(#path-8-inside-4_353_7312)"/>
<mask id="path-9-inside-5_353_7312" fill="white">
<path d="M278.668 101.65C289.888 120.82 295.984 142.557 296.367 164.766L254.744 165.484C254.485 150.422 250.351 135.68 242.741 122.678L278.668 101.65Z"/>
</mask>
<path d="M278.668 101.65C289.888 120.82 295.984 142.557 296.367 164.766L254.744 165.484C254.485 150.422 250.351 135.68 242.741 122.678L278.668 101.65Z" fill="#F4E4C3" stroke="#F79C05" stroke-width="44" mask="url(#path-9-inside-5_353_7312)"/>
<mask id="path-10-inside-6_353_7312" fill="white">
<path d="M200.544 291.945C179.09 297.701 156.515 297.836 134.994 292.337L145.3 252.004C159.896 255.734 175.206 255.642 189.756 251.738L200.544 291.945Z"/>
</mask>
<path d="M200.544 291.945C179.09 297.701 156.515 297.836 134.994 292.337L145.3 252.004C159.896 255.734 175.206 255.642 189.756 251.738L200.544 291.945Z" fill="#F4E4C3" stroke="#F79C05" stroke-width="44" mask="url(#path-10-inside-6_353_7312)"/>
<mask id="path-11-inside-7_353_7312" fill="white">
<path d="M285.69 218.505C276.846 238.881 262.904 256.637 245.207 270.062L220.048 236.897C232.05 227.792 241.505 215.75 247.503 201.931L285.69 218.505Z"/>
</mask>
<path d="M285.69 218.505C276.846 238.881 262.904 256.637 245.207 270.062L220.048 236.897C232.05 227.792 241.505 215.75 247.503 201.931L285.69 218.505Z" fill="#F4E4C3" stroke="#F79C05" stroke-width="44" mask="url(#path-11-inside-7_353_7312)"/>
<path d="M198.918 85.9638C243.365 102.925 265.647 152.706 248.685 197.153C231.724 241.601 181.944 263.883 137.497 246.922C93.0494 229.961 70.7673 180.179 87.7283 135.732C104.689 91.2847 154.471 69.0027 198.918 85.9638Z" stroke="#F79C05" stroke-width="7"/>
<ellipse cx="168.339" cy="168.358" rx="66.2163" ry="23.7334" transform="rotate(12.6346 168.339 168.358)" fill="#F79C05"/>
<ellipse cx="168.339" cy="168.358" rx="66.2163" ry="23.7334" transform="rotate(12.6346 168.339 168.358)" fill="#F79C05"/>
<path d="M142.341 151.252C142.491 149.281 142.249 146.869 141.844 144.81C141.574 143.441 143.546 141 144.921 141.244C145.263 141.304 145.573 141.486 145.793 141.756C146.807 143.006 148.835 145.781 148.006 151.412C147.51 154.776 146.223 157.358 144.626 159.203C143.025 161.054 140.872 159.191 141.423 156.806C141.846 154.975 142.207 153.008 142.341 151.252Z" fill="#E3562B"/>
<path d="M200.528 162.936C200.594 161.508 200.353 159.789 199.973 158.225C199.674 156.993 201.606 154.475 202.853 154.706C203.108 154.753 203.343 154.88 203.525 155.065C204.549 156.109 206.78 158.5 206.152 163.28C205.794 166.005 204.658 168.079 203.192 169.554C201.519 171.237 199.466 169.23 199.964 166.91C200.25 165.582 200.47 164.196 200.528 162.936Z" fill="#E3562B"/>
<path d="M158.677 154.328C158.925 151.786 158.712 148.637 158.306 146.112C158.07 144.639 160.04 142.294 161.511 142.542C161.94 142.615 162.324 142.857 162.569 143.217C163.563 144.676 165.408 147.839 164.384 154.304C163.749 158.308 162.319 161.401 160.604 163.619C159.059 165.615 156.826 163.872 157.41 161.416C157.959 159.106 158.46 156.565 158.677 154.328Z" fill="#E3562B"/>
<path d="M172.572 157.442C172.82 154.9 172.607 151.752 172.201 149.226C171.965 147.754 173.935 145.409 175.406 145.657C175.835 145.729 176.219 145.972 176.464 146.331C177.458 147.791 179.303 150.954 178.279 157.419C177.644 161.423 176.214 164.515 174.499 166.733C172.954 168.73 170.721 166.986 171.305 164.531C171.854 162.221 172.355 159.68 172.572 157.442Z" fill="#E3562B"/>
<path d="M186.852 158.848C186.958 157.152 186.712 155.093 186.316 153.278C186.03 151.973 187.99 149.49 189.305 149.728C189.603 149.782 189.875 149.935 190.077 150.162C191.098 151.308 193.226 153.89 192.496 159.1C192.07 162.144 190.857 164.471 189.324 166.131C187.688 167.901 185.582 165.97 186.111 163.619C186.467 162.036 186.758 160.358 186.852 158.848Z" fill="#E3562B"/>
</svg>
