<svg width="75" height="75" viewBox="0 0 75 75" fill="none" xmlns="http://www.w3.org/2000/svg">
<circle cx="37.924" cy="37.665" r="18.9426" transform="rotate(20.8869 37.924 37.665)" fill="#F4E4C3" stroke="#2CA66C"/>
<circle cx="37.497" cy="37.5002" r="28.5495" transform="rotate(20.8869 37.497 37.5002)" fill="#F4E4C3" stroke="#2CA66C"/>
<circle cx="37.9399" cy="37.665" r="17.8575" transform="rotate(20.8869 37.9399 37.665)" fill="#F4E4C3" stroke="#2CA66C" stroke-width="5"/>
<circle cx="37.5048" cy="37.4999" r="27.0495" transform="rotate(20.8869 37.5048 37.4999)" fill="#F4E4C3" stroke="#2CA66C" stroke-width="4"/>
<mask id="path-5-inside-1_225_4990" fill="white">
<path d="M41.3563 8.70681C46.3002 9.36812 50.9905 11.2913 54.9755 14.2911L49.3537 21.7594C46.651 19.7249 43.4699 18.4206 40.1169 17.9721L41.3563 8.70681Z"/>
</mask>
<path d="M41.3563 8.70681C46.3002 9.36812 50.9905 11.2913 54.9755 14.2911L49.3537 21.7594C46.651 19.7249 43.4699 18.4206 40.1169 17.9721L41.3563 8.70681Z" fill="#F4E4C3" stroke="#2CA66C" stroke-width="28" mask="url(#path-5-inside-1_225_4990)"/>
<mask id="path-6-inside-2_225_4990" fill="white">
<path d="M17.0877 16.8355C20.6358 13.3298 25.0269 10.7968 29.838 9.48034L32.3051 18.4967C29.0421 19.3895 26.064 21.1074 23.6576 23.4851L17.0877 16.8355Z"/>
</mask>
<path d="M17.0877 16.8355C20.6358 13.3298 25.0269 10.7968 29.838 9.48034L32.3051 18.4967C29.0421 19.3895 26.064 21.1074 23.6576 23.4851L17.0877 16.8355Z" fill="#F4E4C3" stroke="#2CA66C" stroke-width="28" mask="url(#path-6-inside-2_225_4990)"/>
<mask id="path-7-inside-3_225_4990" fill="white">
<path d="M8.51818 39.4104C8.19014 34.4332 9.14917 29.4555 11.3029 24.9565L19.7344 28.9928C18.2737 32.0441 17.6232 35.42 17.8457 38.7956L8.51818 39.4104Z"/>
</mask>
<path d="M8.51818 39.4104C8.19014 34.4332 9.14917 29.4555 11.3029 24.9565L19.7344 28.9928C18.2737 32.0441 17.6232 35.42 17.8457 38.7956L8.51818 39.4104Z" fill="#F4E4C3" stroke="#2CA66C" stroke-width="28" mask="url(#path-7-inside-3_225_4990)"/>
<mask id="path-8-inside-4_225_4990" fill="white">
<path d="M19.0457 59.9305C15.1942 56.761 12.2238 52.6532 10.4204 48.0026L19.1358 44.623C20.3589 47.777 22.3735 50.563 24.9856 52.7126L19.0457 59.9305Z"/>
</mask>
<path d="M19.0457 59.9305C15.1942 56.761 12.2238 52.6532 10.4204 48.0026L19.1358 44.623C20.3589 47.777 22.3735 50.563 24.9856 52.7126L19.0457 59.9305Z" fill="#F4E4C3" stroke="#2CA66C" stroke-width="28" mask="url(#path-8-inside-4_225_4990)"/>
<mask id="path-9-inside-5_225_4990" fill="white">
<path d="M62.5756 22.8258C65.0952 27.1306 66.4639 32.0116 66.55 36.9988L57.2036 37.16C57.1452 33.7777 56.2169 30.4673 54.5081 27.5477L62.5756 22.8258Z"/>
</mask>
<path d="M62.5756 22.8258C65.0952 27.1306 66.4639 32.0116 66.55 36.9988L57.2036 37.16C57.1452 33.7777 56.2169 30.4673 54.5081 27.5477L62.5756 22.8258Z" fill="#F4E4C3" stroke="#2CA66C" stroke-width="28" mask="url(#path-9-inside-5_225_4990)"/>
<mask id="path-10-inside-6_225_4990" fill="white">
<path d="M45.0327 65.557C40.2151 66.8496 35.1459 66.8799 30.3133 65.6451L32.6274 56.5883C35.905 57.4258 39.343 57.4052 42.6103 56.5286L45.0327 65.557Z"/>
</mask>
<path d="M45.0327 65.557C40.2151 66.8496 35.1459 66.8799 30.3133 65.6451L32.6274 56.5883C35.905 57.4258 39.343 57.4052 42.6103 56.5286L45.0327 65.557Z" fill="#F4E4C3" stroke="#2CA66C" stroke-width="28" mask="url(#path-10-inside-6_225_4990)"/>
<mask id="path-11-inside-7_225_4990" fill="white">
<path d="M64.1525 49.066C62.1665 53.6415 59.0358 57.6286 55.062 60.6433L49.4123 53.196C52.1074 51.1514 54.2307 48.4473 55.5776 45.3441L64.1525 49.066Z"/>
</mask>
<path d="M64.1525 49.066C62.1665 53.6415 59.0358 57.6286 55.062 60.6433L49.4123 53.196C52.1074 51.1514 54.2307 48.4473 55.5776 45.3441L64.1525 49.066Z" fill="#F4E4C3" stroke="#2CA66C" stroke-width="28" mask="url(#path-11-inside-7_225_4990)"/>
<circle cx="37.7707" cy="37.3753" r="16.6288" transform="rotate(20.8869 37.7707 37.3753)" stroke="#2CA66C" stroke-width="7"/>
</svg>
