<svg width="253" height="390" viewBox="0 0 253 390" fill="none" xmlns="http://www.w3.org/2000/svg">
<path d="M70.0062 32.529C84.9938 38.3306 92.5158 55.3632 86.792 70.5787C81.0681 85.7941 64.2723 93.4135 49.2847 87.6119C34.2973 81.8103 26.776 64.778 32.4998 49.5627C38.2237 34.3473 55.0187 26.7277 70.0062 32.529Z" fill="#F4E4C3" stroke="#EA7D9C"/>
<path d="M74.6773 18.7317C97.1381 27.303 108.398 52.4597 99.8266 74.9207C91.2553 97.3813 66.0994 108.641 43.6385 100.07C21.1776 91.4992 9.91721 66.3428 18.4881 43.8819C27.0592 21.4208 52.2163 10.1606 74.6773 18.7317Z" fill="#F4E4C3" stroke="#EA7D9C"/>
<path d="M69.8027 33.0829C84.4592 38.7562 91.8462 55.4309 86.2304 70.3593C80.6145 85.2878 64.1545 92.7313 49.498 87.058C34.8416 81.3845 27.4544 64.7099 33.0703 49.7815C38.6862 34.8532 55.1463 27.4096 69.8027 33.0829Z" fill="#F4E4C3" stroke="#EA7D9C" stroke-width="5"/>
<path d="M74.0403 19.8425C95.7763 28.2565 106.704 52.97 98.3913 75.0677C90.0784 97.1654 65.6982 108.212 43.9621 99.7979C22.2259 91.384 11.2973 66.6701 19.6101 44.5723C27.9231 22.4744 52.3041 11.4286 74.0403 19.8425Z" fill="#F4E4C3" stroke="#EA7D9C" stroke-width="4"/>
<mask id="path-5-inside-1_437_38" fill="white">
<path d="M64.8535 15.4222C72.3687 16.442 79.4984 19.4074 85.556 24.033L77.0102 35.5487C72.9019 32.4116 68.0665 30.4004 62.9696 29.7088L64.8535 15.4222Z"/>
</mask>
<path d="M64.8535 15.4222C72.3687 16.442 79.4984 19.4074 85.556 24.033L77.0102 35.5487C72.9019 32.4116 68.0665 30.4004 62.9696 29.7088L64.8535 15.4222Z" fill="#F4E4C3" stroke="#EA7D9C" stroke-width="28" mask="url(#path-5-inside-1_437_38)"/>
<mask id="path-6-inside-2_437_38" fill="white">
<path d="M27.9632 27.9564C33.3567 22.5507 40.0315 18.6449 47.3448 16.615L51.095 30.5178C46.135 31.8944 41.6081 34.5434 37.9501 38.2096L27.9632 27.9564Z"/>
</mask>
<path d="M27.9632 27.9564C33.3567 22.5507 40.0315 18.6449 47.3448 16.615L51.095 30.5178C46.135 31.8944 41.6081 34.5434 37.9501 38.2096L27.9632 27.9564Z" fill="#F4E4C3" stroke="#EA7D9C" stroke-width="28" mask="url(#path-6-inside-2_437_38)"/>
<mask id="path-7-inside-3_437_38" fill="white">
<path d="M14.9369 62.7657C14.4383 55.0912 15.8961 47.4157 19.17 40.4785L31.9865 46.7023C29.7661 51.4072 28.7774 56.6128 29.1155 61.8178L14.9369 62.7657Z"/>
</mask>
<path d="M14.9369 62.7657C14.4383 55.0912 15.8961 47.4157 19.17 40.4785L31.9865 46.7023C29.7661 51.4072 28.7774 56.6128 29.1155 61.8178L14.9369 62.7657Z" fill="#F4E4C3" stroke="#EA7D9C" stroke-width="28" mask="url(#path-7-inside-3_437_38)"/>
<mask id="path-8-inside-4_437_38" fill="white">
<path d="M30.9396 94.4068C25.0851 89.5196 20.5697 83.1855 17.8284 76.0146L31.0766 70.8033C32.9358 75.6667 35.9981 79.9626 39.9687 83.2772L30.9396 94.4068Z"/>
</mask>
<path d="M30.9396 94.4068C25.0851 89.5196 20.5697 83.1855 17.8284 76.0146L31.0766 70.8033C32.9358 75.6667 35.9981 79.9626 39.9687 83.2772L30.9396 94.4068Z" fill="#F4E4C3" stroke="#EA7D9C" stroke-width="28" mask="url(#path-8-inside-4_437_38)"/>
<mask id="path-9-inside-5_437_38" fill="white">
<path d="M97.1087 37.1931C100.939 43.8309 103.019 51.3572 103.15 59.0472L88.9428 59.2958C88.8541 54.0803 87.443 48.9759 84.8454 44.4741L97.1087 37.1931Z"/>
</mask>
<path d="M97.1087 37.1931C100.939 43.8309 103.019 51.3572 103.15 59.0472L88.9428 59.2958C88.8541 54.0803 87.443 48.9759 84.8454 44.4741L97.1087 37.1931Z" fill="#F4E4C3" stroke="#EA7D9C" stroke-width="28" mask="url(#path-9-inside-5_437_38)"/>
<mask id="path-10-inside-6_437_38" fill="white">
<path d="M70.442 103.083C63.1189 105.076 55.4133 105.123 48.0672 103.219L51.5849 89.2533C56.5671 90.5447 61.7932 90.513 66.7598 89.1612L70.442 103.083Z"/>
</mask>
<path d="M70.442 103.083C63.1189 105.076 55.4133 105.123 48.0672 103.219L51.5849 89.2533C56.5671 90.5447 61.7932 90.513 66.7598 89.1612L70.442 103.083Z" fill="#F4E4C3" stroke="#EA7D9C" stroke-width="28" mask="url(#path-10-inside-6_437_38)"/>
<mask id="path-11-inside-7_437_38" fill="white">
<path d="M99.5056 77.6542C96.4868 84.7095 91.728 90.8574 85.6874 95.5059L77.0994 84.0225C81.1962 80.8699 84.4237 76.7003 86.4711 71.9153L99.5056 77.6542Z"/>
</mask>
<path d="M99.5056 77.6542C96.4868 84.7095 91.728 90.8574 85.6874 95.5059L77.0994 84.0225C81.1962 80.8699 84.4237 76.7003 86.4711 71.9153L99.5056 77.6542Z" fill="#F4E4C3" stroke="#EA7D9C" stroke-width="28" mask="url(#path-11-inside-7_437_38)"/>
<path d="M69.1128 33.8968C83.0655 39.2978 90.1161 55.1828 84.7596 69.4218C79.403 83.6605 63.7127 90.7419 49.7602 85.341C35.8079 79.9399 28.7577 64.056 34.114 49.8173C39.4704 35.5785 55.1602 28.4961 69.1128 33.8968Z" stroke="#EA7D9C" stroke-width="7"/>
<path d="M39.705 303.051C48.3626 306.402 52.7114 316.243 49.4032 325.038C46.0948 333.832 36.3886 338.233 27.7309 334.881C19.0734 331.53 14.7253 321.689 18.0337 312.895C21.3421 304.101 31.0475 299.7 39.705 303.051Z" fill="#F4E4C3" stroke="#EA7D9C"/>
<path d="M42.4358 294.98C55.4666 299.953 61.999 314.547 57.0265 327.578C52.0539 340.609 37.4595 347.141 24.4287 342.169C11.398 337.196 4.86551 322.602 9.83805 309.571C14.8106 296.54 29.4051 290.008 42.4358 294.98Z" fill="#F4E4C3" stroke="#EA7D9C"/>
<path d="M39.2935 304.152C47.3221 307.26 51.3867 316.405 48.3 324.61C45.2133 332.815 36.1763 336.888 28.1477 333.78C20.1192 330.673 16.0543 321.528 19.1408 313.323C22.2276 305.118 31.2648 301.044 39.2935 304.152Z" fill="#F4E4C3" stroke="#EA7D9C" stroke-width="5"/>
<path d="M41.8449 296.213C54.1235 300.966 60.3105 314.935 55.6066 327.439C50.9027 339.943 37.1148 346.179 24.8363 341.426C12.5578 336.674 6.37076 322.705 11.0746 310.201C15.7785 297.697 29.5664 291.46 41.8449 296.213Z" fill="#F4E4C3" stroke="#EA7D9C" stroke-width="4"/>
<mask id="path-17-inside-8_437_38" fill="white">
<path d="M36.7642 292.851C41.1599 293.447 45.3302 295.182 48.8734 297.887L43.8749 304.623C41.4718 302.788 38.6435 301.612 35.6623 301.207L36.7642 292.851Z"/>
</mask>
<path d="M36.7642 292.851C41.1599 293.447 45.3302 295.182 48.8734 297.887L43.8749 304.623C41.4718 302.788 38.6435 301.612 35.6623 301.207L36.7642 292.851Z" fill="#F4E4C3" stroke="#EA7D9C" stroke-width="28" mask="url(#path-17-inside-8_437_38)"/>
<mask id="path-18-inside-9_437_38" fill="white">
<path d="M15.1864 300.182C18.3412 297.02 22.2454 294.736 26.523 293.549L28.7166 301.681C25.8154 302.486 23.1675 304.035 21.028 306.18L15.1864 300.182Z"/>
</mask>
<path d="M15.1864 300.182C18.3412 297.02 22.2454 294.736 26.523 293.549L28.7166 301.681C25.8154 302.486 23.1675 304.035 21.028 306.18L15.1864 300.182Z" fill="#F4E4C3" stroke="#EA7D9C" stroke-width="28" mask="url(#path-18-inside-9_437_38)"/>
<mask id="path-19-inside-10_437_38" fill="white">
<path d="M7.56713 320.543C7.27545 316.054 8.12815 311.564 10.0431 307.507L17.5397 311.147C16.2409 313.899 15.6626 316.944 15.8604 319.988L7.56713 320.543Z"/>
</mask>
<path d="M7.56713 320.543C7.27545 316.054 8.12815 311.564 10.0431 307.507L17.5397 311.147C16.2409 313.899 15.6626 316.944 15.8604 319.988L7.56713 320.543Z" fill="#F4E4C3" stroke="#EA7D9C" stroke-width="28" mask="url(#path-19-inside-10_437_38)"/>
<mask id="path-20-inside-11_437_38" fill="white">
<path d="M16.9273 339.05C13.5029 336.192 10.8618 332.487 9.25842 328.292L17.0075 325.244C18.095 328.089 19.8862 330.602 22.2087 332.54L16.9273 339.05Z"/>
</mask>
<path d="M16.9273 339.05C13.5029 336.192 10.8618 332.487 9.25842 328.292L17.0075 325.244C18.095 328.089 19.8862 330.602 22.2087 332.54L16.9273 339.05Z" fill="#F4E4C3" stroke="#EA7D9C" stroke-width="28" mask="url(#path-20-inside-11_437_38)"/>
<mask id="path-21-inside-12_437_38" fill="white">
<path d="M55.6308 305.585C57.871 309.468 59.088 313.87 59.1645 318.368L50.8544 318.513C50.8025 315.463 49.9772 312.477 48.4578 309.844L55.6308 305.585Z"/>
</mask>
<path d="M55.6308 305.585C57.871 309.468 59.088 313.87 59.1645 318.368L50.8544 318.513C50.8025 315.463 49.9772 312.477 48.4578 309.844L55.6308 305.585Z" fill="#F4E4C3" stroke="#EA7D9C" stroke-width="28" mask="url(#path-21-inside-12_437_38)"/>
<mask id="path-22-inside-13_437_38" fill="white">
<path d="M40.033 344.125C35.7496 345.291 31.2425 345.318 26.9456 344.204L29.0032 336.036C31.9174 336.791 34.9742 336.773 37.8792 335.982L40.033 344.125Z"/>
</mask>
<path d="M40.033 344.125C35.7496 345.291 31.2425 345.318 26.9456 344.204L29.0032 336.036C31.9174 336.791 34.9742 336.773 37.8792 335.982L40.033 344.125Z" fill="#F4E4C3" stroke="#EA7D9C" stroke-width="28" mask="url(#path-22-inside-13_437_38)"/>
<mask id="path-23-inside-14_437_38" fill="white">
<path d="M57.0328 329.251C55.2671 333.378 52.4835 336.974 48.9503 339.693L43.927 332.976C46.3233 331.132 48.2111 328.693 49.4087 325.895L57.0328 329.251Z"/>
</mask>
<path d="M57.0328 329.251C55.2671 333.378 52.4835 336.974 48.9503 339.693L43.927 332.976C46.3233 331.132 48.2111 328.693 49.4087 325.895L57.0328 329.251Z" fill="#F4E4C3" stroke="#EA7D9C" stroke-width="28" mask="url(#path-23-inside-14_437_38)"/>
<path d="M38.7442 305.017C46.1435 307.881 49.9083 316.32 47.0525 323.911C44.1967 331.503 35.8467 335.252 28.4474 332.388C21.0483 329.524 17.2835 321.085 20.1391 313.493C22.9949 305.902 31.3449 302.153 38.7442 305.017Z" stroke="#EA7D9C" stroke-width="7"/>
<path d="M179.006 30.529C193.994 36.3306 201.516 53.3632 195.792 68.5787C190.068 83.7941 173.272 91.4135 158.285 85.6119C143.297 79.8103 135.776 62.778 141.5 47.5627C147.224 32.3473 164.019 24.7277 179.006 30.529Z" fill="#F4E4C3" stroke="#E3562B"/>
<path d="M183.677 16.7317C206.138 25.303 217.398 50.4597 208.827 72.9207C200.255 95.3813 175.099 106.641 152.639 98.0703C130.178 89.4992 118.917 64.3428 127.488 41.8819C136.059 19.4208 161.216 8.16057 183.677 16.7317Z" fill="#F4E4C3" stroke="#E3562B"/>
<path d="M178.803 31.0829C193.459 36.7562 200.846 53.4309 195.23 68.3593C189.615 83.2878 173.154 90.7313 158.498 85.058C143.842 79.3845 136.454 62.7099 142.07 47.7815C147.686 32.8532 164.146 25.4096 178.803 31.0829Z" fill="#F4E4C3" stroke="#E3562B" stroke-width="5"/>
<path d="M183.04 17.8425C204.776 26.2565 215.704 50.97 207.391 73.0677C199.078 95.1654 174.698 106.212 152.962 97.7979C131.226 89.384 120.297 64.6701 128.61 42.5723C136.923 20.4744 161.304 9.4286 183.04 17.8425Z" fill="#F4E4C3" stroke="#E3562B" stroke-width="4"/>
<mask id="path-29-inside-15_437_38" fill="white">
<path d="M173.854 13.4222C181.369 14.442 188.498 17.4074 194.556 22.033L186.01 33.5487C181.902 30.4116 177.066 28.4004 171.97 27.7088L173.854 13.4222Z"/>
</mask>
<path d="M173.854 13.4222C181.369 14.442 188.498 17.4074 194.556 22.033L186.01 33.5487C181.902 30.4116 177.066 28.4004 171.97 27.7088L173.854 13.4222Z" fill="#F4E4C3" stroke="#E3562B" stroke-width="28" mask="url(#path-29-inside-15_437_38)"/>
<mask id="path-30-inside-16_437_38" fill="white">
<path d="M136.963 25.9564C142.357 20.5507 149.032 16.6449 156.345 14.615L160.095 28.5178C155.135 29.8944 150.608 32.5434 146.95 36.2096L136.963 25.9564Z"/>
</mask>
<path d="M136.963 25.9564C142.357 20.5507 149.032 16.6449 156.345 14.615L160.095 28.5178C155.135 29.8944 150.608 32.5434 146.95 36.2096L136.963 25.9564Z" fill="#F4E4C3" stroke="#E3562B" stroke-width="28" mask="url(#path-30-inside-16_437_38)"/>
<mask id="path-31-inside-17_437_38" fill="white">
<path d="M123.937 60.7657C123.438 53.0912 124.896 45.4157 128.17 38.4785L140.986 44.7023C138.766 49.4072 137.777 54.6128 138.116 59.8178L123.937 60.7657Z"/>
</mask>
<path d="M123.937 60.7657C123.438 53.0912 124.896 45.4157 128.17 38.4785L140.986 44.7023C138.766 49.4072 137.777 54.6128 138.116 59.8178L123.937 60.7657Z" fill="#F4E4C3" stroke="#E3562B" stroke-width="28" mask="url(#path-31-inside-17_437_38)"/>
<mask id="path-32-inside-18_437_38" fill="white">
<path d="M139.94 92.4068C134.085 87.5196 129.57 81.1855 126.828 74.0146L140.077 68.8033C141.936 73.6667 144.998 77.9626 148.969 81.2772L139.94 92.4068Z"/>
</mask>
<path d="M139.94 92.4068C134.085 87.5196 129.57 81.1855 126.828 74.0146L140.077 68.8033C141.936 73.6667 144.998 77.9626 148.969 81.2772L139.94 92.4068Z" fill="#F4E4C3" stroke="#E3562B" stroke-width="28" mask="url(#path-32-inside-18_437_38)"/>
<mask id="path-33-inside-19_437_38" fill="white">
<path d="M206.109 35.1931C209.939 41.8309 212.019 49.3572 212.15 57.0472L197.943 57.2958C197.854 52.0803 196.443 46.9759 193.845 42.4741L206.109 35.1931Z"/>
</mask>
<path d="M206.109 35.1931C209.939 41.8309 212.019 49.3572 212.15 57.0472L197.943 57.2958C197.854 52.0803 196.443 46.9759 193.845 42.4741L206.109 35.1931Z" fill="#F4E4C3" stroke="#E3562B" stroke-width="28" mask="url(#path-33-inside-19_437_38)"/>
<mask id="path-34-inside-20_437_38" fill="white">
<path d="M179.442 101.083C172.119 103.076 164.413 103.123 157.067 101.219L160.585 87.2533C165.567 88.5447 170.793 88.513 175.76 87.1612L179.442 101.083Z"/>
</mask>
<path d="M179.442 101.083C172.119 103.076 164.413 103.123 157.067 101.219L160.585 87.2533C165.567 88.5447 170.793 88.513 175.76 87.1612L179.442 101.083Z" fill="#F4E4C3" stroke="#E3562B" stroke-width="28" mask="url(#path-34-inside-20_437_38)"/>
<mask id="path-35-inside-21_437_38" fill="white">
<path d="M208.506 75.6542C205.487 82.7095 200.728 88.8574 194.687 93.5059L186.099 82.0225C190.196 78.8699 193.424 74.7003 195.471 69.9153L208.506 75.6542Z"/>
</mask>
<path d="M208.506 75.6542C205.487 82.7095 200.728 88.8574 194.687 93.5059L186.099 82.0225C190.196 78.8699 193.424 74.7003 195.471 69.9153L208.506 75.6542Z" fill="#F4E4C3" stroke="#E3562B" stroke-width="28" mask="url(#path-35-inside-21_437_38)"/>
<path d="M178.113 31.8968C192.065 37.2978 199.116 53.1828 193.76 67.4218C188.403 81.6605 172.713 88.7419 158.76 83.341C144.808 77.9399 137.758 62.056 143.114 47.8173C148.47 33.5785 164.16 26.4961 178.113 31.8968Z" stroke="#E3562B" stroke-width="7"/>
<path d="M68.4784 157.124C80.2167 161.668 86.109 175.009 81.6251 186.928C77.141 198.847 63.9854 204.814 52.2472 200.271C40.5091 195.727 34.6165 182.387 39.1002 170.467C43.5842 158.548 56.7402 152.58 68.4784 157.124Z" fill="#F4E4C3" stroke="#E3562B"/>
<path d="M72.1537 146.266C89.7738 152.99 98.6076 172.725 91.884 190.345C85.1601 207.965 65.4245 216.799 47.8043 210.075C30.1843 203.351 21.3514 183.615 28.0753 165.995C34.7993 148.376 54.5337 139.542 72.1537 146.266Z" fill="#F4E4C3" stroke="#E3562B"/>
<path d="M68.1681 157.959C79.4221 162.315 85.1039 175.124 80.7866 186.601C76.469 198.079 63.8189 203.793 52.5647 199.436C41.3105 195.08 35.6289 182.27 39.9466 170.793C44.2643 159.316 56.914 153.602 68.1681 157.959Z" fill="#F4E4C3" stroke="#E3562B" stroke-width="5"/>
<path d="M71.5402 147.44C88.4215 153.974 96.9167 173.172 90.4565 190.345C83.9962 207.518 65.0525 216.095 48.1711 209.56C31.2899 203.026 22.7954 183.828 29.2557 166.655C35.716 149.482 54.6589 140.905 71.5402 147.44Z" fill="#F4E4C3" stroke="#E3562B" stroke-width="4"/>
<mask id="path-41-inside-22_437_38" fill="white">
<path d="M64.4611 143.562C70.3749 144.365 75.9855 146.698 80.7524 150.338L74.0275 159.4C70.7946 156.932 66.9894 155.349 62.9785 154.805L64.4611 143.562Z"/>
</mask>
<path d="M64.4611 143.562C70.3749 144.365 75.9855 146.698 80.7524 150.338L74.0275 159.4C70.7946 156.932 66.9894 155.349 62.9785 154.805L64.4611 143.562Z" fill="#F4E4C3" stroke="#E3562B" stroke-width="28" mask="url(#path-41-inside-22_437_38)"/>
<mask id="path-42-inside-23_437_38" fill="white">
<path d="M35.4311 153.426C39.6754 149.172 44.9279 146.098 50.6829 144.501L53.6341 155.441C49.7309 156.525 46.1686 158.609 43.29 161.494L35.4311 153.426Z"/>
</mask>
<path d="M35.4311 153.426C39.6754 149.172 44.9279 146.098 50.6829 144.501L53.6341 155.441C49.7309 156.525 46.1686 158.609 43.29 161.494L35.4311 153.426Z" fill="#F4E4C3" stroke="#E3562B" stroke-width="28" mask="url(#path-42-inside-23_437_38)"/>
<mask id="path-43-inside-24_437_38" fill="white">
<path d="M25.1803 180.818C24.7879 174.779 25.9351 168.739 28.5114 163.28L38.597 168.178C36.8498 171.88 36.0717 175.976 36.3379 180.072L25.1803 180.818Z"/>
</mask>
<path d="M25.1803 180.818C24.7879 174.779 25.9351 168.739 28.5114 163.28L38.597 168.178C36.8498 171.88 36.0717 175.976 36.3379 180.072L25.1803 180.818Z" fill="#F4E4C3" stroke="#E3562B" stroke-width="28" mask="url(#path-43-inside-24_437_38)"/>
<mask id="path-44-inside-25_437_38" fill="white">
<path d="M37.7732 205.718C33.1661 201.872 29.6129 196.887 27.4557 191.244L37.8811 187.143C39.3441 190.97 41.754 194.351 44.8785 196.959L37.7732 205.718Z"/>
</mask>
<path d="M37.7732 205.718C33.1661 201.872 29.6129 196.887 27.4557 191.244L37.8811 187.143C39.3441 190.97 41.754 194.351 44.8785 196.959L37.7732 205.718Z" fill="#F4E4C3" stroke="#E3562B" stroke-width="28" mask="url(#path-44-inside-25_437_38)"/>
<mask id="path-45-inside-26_437_38" fill="white">
<path d="M89.8435 160.694C92.8575 165.918 94.4947 171.841 94.5976 177.892L83.4176 178.088C83.3478 173.984 82.2373 169.967 80.1933 166.424L89.8435 160.694Z"/>
</mask>
<path d="M89.8435 160.694C92.8575 165.918 94.4947 171.841 94.5976 177.892L83.4176 178.088C83.3478 173.984 82.2373 169.967 80.1933 166.424L89.8435 160.694Z" fill="#F4E4C3" stroke="#E3562B" stroke-width="28" mask="url(#path-45-inside-26_437_38)"/>
<mask id="path-46-inside-27_437_38" fill="white">
<path d="M68.8588 212.545C63.0961 214.113 57.0323 214.15 51.2515 212.652L54.0196 201.662C57.9403 202.678 62.0528 202.653 65.9611 201.59L68.8588 212.545Z"/>
</mask>
<path d="M68.8588 212.545C63.0961 214.113 57.0323 214.15 51.2515 212.652L54.0196 201.662C57.9403 202.678 62.0528 202.653 65.9611 201.59L68.8588 212.545Z" fill="#F4E4C3" stroke="#E3562B" stroke-width="28" mask="url(#path-46-inside-27_437_38)"/>
<mask id="path-47-inside-28_437_38" fill="white">
<path d="M91.7298 192.534C89.3542 198.086 85.6093 202.924 80.8558 206.582L74.0977 197.546C77.3215 195.065 79.8614 191.784 81.4725 188.018L91.7298 192.534Z"/>
</mask>
<path d="M91.7298 192.534C89.3542 198.086 85.6093 202.924 80.8558 206.582L74.0977 197.546C77.3215 195.065 79.8614 191.784 81.4725 188.018L91.7298 192.534Z" fill="#F4E4C3" stroke="#E3562B" stroke-width="28" mask="url(#path-47-inside-28_437_38)"/>
<path d="M67.5513 158.799C78.1399 162.898 83.5035 174.96 79.4307 185.787C75.3578 196.613 63.4357 201.985 52.8471 197.886C42.2586 193.787 36.895 181.725 40.9676 170.898C45.0404 160.072 56.9626 154.7 67.5513 158.799Z" stroke="#E3562B" stroke-width="7"/>
<path d="M86.4784 273.124C98.2167 277.668 104.109 291.009 99.6251 302.928C95.141 314.847 81.9854 320.814 70.2472 316.271C58.5091 311.727 52.6165 298.387 57.1002 286.467C61.5842 274.548 74.7402 268.58 86.4784 273.124Z" fill="#F4E4C3" stroke="#E3562B"/>
<path d="M90.1537 262.266C107.774 268.99 116.608 288.725 109.884 306.345C103.16 323.965 83.4245 332.799 65.8043 326.075C48.1843 319.351 39.3514 299.615 46.0753 281.995C52.7993 264.376 72.5337 255.542 90.1537 262.266Z" fill="#F4E4C3" stroke="#E3562B"/>
<path d="M86.1681 273.959C97.4221 278.315 103.104 291.124 98.7866 302.601C94.469 314.079 81.8189 319.793 70.5647 315.436C59.3105 311.08 53.6289 298.27 57.9466 286.793C62.2643 275.316 74.914 269.602 86.1681 273.959Z" fill="#F4E4C3" stroke="#E3562B" stroke-width="5"/>
<path d="M89.5402 263.44C106.422 269.974 114.917 289.172 108.457 306.345C101.996 323.518 83.0525 332.095 66.1711 325.56C49.2899 319.026 40.7954 299.828 47.2557 282.655C53.716 265.482 72.6589 256.905 89.5402 263.44Z" fill="#F4E4C3" stroke="#E3562B" stroke-width="4"/>
<mask id="path-53-inside-29_437_38" fill="white">
<path d="M82.4611 259.562C88.3749 260.365 93.9855 262.698 98.7524 266.338L92.0275 275.4C88.7946 272.932 84.9894 271.349 80.9785 270.805L82.4611 259.562Z"/>
</mask>
<path d="M82.4611 259.562C88.3749 260.365 93.9855 262.698 98.7524 266.338L92.0275 275.4C88.7946 272.932 84.9894 271.349 80.9785 270.805L82.4611 259.562Z" fill="#F4E4C3" stroke="#E3562B" stroke-width="28" mask="url(#path-53-inside-29_437_38)"/>
<mask id="path-54-inside-30_437_38" fill="white">
<path d="M53.4311 269.426C57.6754 265.172 62.9279 262.098 68.6829 260.501L71.6341 271.441C67.7309 272.525 64.1686 274.609 61.29 277.494L53.4311 269.426Z"/>
</mask>
<path d="M53.4311 269.426C57.6754 265.172 62.9279 262.098 68.6829 260.501L71.6341 271.441C67.7309 272.525 64.1686 274.609 61.29 277.494L53.4311 269.426Z" fill="#F4E4C3" stroke="#E3562B" stroke-width="28" mask="url(#path-54-inside-30_437_38)"/>
<mask id="path-55-inside-31_437_38" fill="white">
<path d="M43.1803 296.818C42.7879 290.779 43.9351 284.739 46.5114 279.28L56.597 284.178C54.8498 287.88 54.0717 291.976 54.3379 296.072L43.1803 296.818Z"/>
</mask>
<path d="M43.1803 296.818C42.7879 290.779 43.9351 284.739 46.5114 279.28L56.597 284.178C54.8498 287.88 54.0717 291.976 54.3379 296.072L43.1803 296.818Z" fill="#F4E4C3" stroke="#E3562B" stroke-width="28" mask="url(#path-55-inside-31_437_38)"/>
<mask id="path-56-inside-32_437_38" fill="white">
<path d="M55.7732 321.718C51.1661 317.872 47.6129 312.887 45.4557 307.244L55.8811 303.143C57.3441 306.97 59.754 310.351 62.8785 312.959L55.7732 321.718Z"/>
</mask>
<path d="M55.7732 321.718C51.1661 317.872 47.6129 312.887 45.4557 307.244L55.8811 303.143C57.3441 306.97 59.754 310.351 62.8785 312.959L55.7732 321.718Z" fill="#F4E4C3" stroke="#E3562B" stroke-width="28" mask="url(#path-56-inside-32_437_38)"/>
<mask id="path-57-inside-33_437_38" fill="white">
<path d="M107.844 276.694C110.857 281.918 112.495 287.841 112.598 293.892L101.418 294.088C101.348 289.984 100.237 285.967 98.1933 282.424L107.844 276.694Z"/>
</mask>
<path d="M107.844 276.694C110.857 281.918 112.495 287.841 112.598 293.892L101.418 294.088C101.348 289.984 100.237 285.967 98.1933 282.424L107.844 276.694Z" fill="#F4E4C3" stroke="#E3562B" stroke-width="28" mask="url(#path-57-inside-33_437_38)"/>
<mask id="path-58-inside-34_437_38" fill="white">
<path d="M86.8588 328.545C81.0961 330.113 75.0323 330.15 69.2515 328.652L72.0196 317.662C75.9403 318.678 80.0528 318.653 83.9611 317.59L86.8588 328.545Z"/>
</mask>
<path d="M86.8588 328.545C81.0961 330.113 75.0323 330.15 69.2515 328.652L72.0196 317.662C75.9403 318.678 80.0528 318.653 83.9611 317.59L86.8588 328.545Z" fill="#F4E4C3" stroke="#E3562B" stroke-width="28" mask="url(#path-58-inside-34_437_38)"/>
<mask id="path-59-inside-35_437_38" fill="white">
<path d="M109.73 308.534C107.354 314.086 103.609 318.924 98.8558 322.582L92.0977 313.546C95.3215 311.065 97.8614 307.784 99.4725 304.018L109.73 308.534Z"/>
</mask>
<path d="M109.73 308.534C107.354 314.086 103.609 318.924 98.8558 322.582L92.0977 313.546C95.3215 311.065 97.8614 307.784 99.4725 304.018L109.73 308.534Z" fill="#F4E4C3" stroke="#E3562B" stroke-width="28" mask="url(#path-59-inside-35_437_38)"/>
<path d="M85.5513 274.799C96.1399 278.898 101.504 290.96 97.4307 301.787C93.3578 312.613 81.4357 317.985 70.8471 313.886C60.2586 309.787 54.895 297.725 58.9676 286.898C63.0404 276.072 74.9626 270.7 85.5513 274.799Z" stroke="#E3562B" stroke-width="7"/>
<path d="M194.478 323.124C206.217 327.668 212.109 341.009 207.625 352.928C203.141 364.847 189.985 370.814 178.247 366.271C166.509 361.727 160.617 348.387 165.1 336.467C169.584 324.548 182.74 318.58 194.478 323.124Z" fill="#F4E4C3" stroke="#E3562B"/>
<path d="M198.154 312.266C215.774 318.99 224.608 338.725 217.884 356.345C211.16 373.965 191.425 382.799 173.804 376.075C156.184 369.351 147.351 349.615 154.075 331.995C160.799 314.376 180.534 305.542 198.154 312.266Z" fill="#F4E4C3" stroke="#E3562B"/>
<path d="M194.168 323.959C205.422 328.315 211.104 341.124 206.787 352.601C202.469 364.079 189.819 369.793 178.565 365.436C167.31 361.08 161.629 348.27 165.947 336.793C170.264 325.316 182.914 319.602 194.168 323.959Z" fill="#F4E4C3" stroke="#E3562B" stroke-width="5"/>
<path d="M197.54 313.44C214.422 319.974 222.917 339.172 216.457 356.345C209.996 373.518 191.052 382.095 174.171 375.56C157.29 369.026 148.795 349.828 155.256 332.655C161.716 315.482 180.659 306.905 197.54 313.44Z" fill="#F4E4C3" stroke="#E3562B" stroke-width="4"/>
<mask id="path-65-inside-36_437_38" fill="white">
<path d="M190.461 309.562C196.375 310.365 201.985 312.698 206.752 316.338L200.028 325.4C196.795 322.932 192.989 321.349 188.979 320.805L190.461 309.562Z"/>
</mask>
<path d="M190.461 309.562C196.375 310.365 201.985 312.698 206.752 316.338L200.028 325.4C196.795 322.932 192.989 321.349 188.979 320.805L190.461 309.562Z" fill="#F4E4C3" stroke="#E3562B" stroke-width="28" mask="url(#path-65-inside-36_437_38)"/>
<mask id="path-66-inside-37_437_38" fill="white">
<path d="M161.431 319.426C165.675 315.172 170.928 312.098 176.683 310.501L179.634 321.441C175.731 322.525 172.169 324.609 169.29 327.494L161.431 319.426Z"/>
</mask>
<path d="M161.431 319.426C165.675 315.172 170.928 312.098 176.683 310.501L179.634 321.441C175.731 322.525 172.169 324.609 169.29 327.494L161.431 319.426Z" fill="#F4E4C3" stroke="#E3562B" stroke-width="28" mask="url(#path-66-inside-37_437_38)"/>
<mask id="path-67-inside-38_437_38" fill="white">
<path d="M151.18 346.818C150.788 340.779 151.935 334.739 154.511 329.28L164.597 334.178C162.85 337.88 162.072 341.976 162.338 346.072L151.18 346.818Z"/>
</mask>
<path d="M151.18 346.818C150.788 340.779 151.935 334.739 154.511 329.28L164.597 334.178C162.85 337.88 162.072 341.976 162.338 346.072L151.18 346.818Z" fill="#F4E4C3" stroke="#E3562B" stroke-width="28" mask="url(#path-67-inside-38_437_38)"/>
<mask id="path-68-inside-39_437_38" fill="white">
<path d="M163.773 371.718C159.166 367.872 155.613 362.887 153.456 357.244L163.881 353.143C165.344 356.97 167.754 360.351 170.879 362.959L163.773 371.718Z"/>
</mask>
<path d="M163.773 371.718C159.166 367.872 155.613 362.887 153.456 357.244L163.881 353.143C165.344 356.97 167.754 360.351 170.879 362.959L163.773 371.718Z" fill="#F4E4C3" stroke="#E3562B" stroke-width="28" mask="url(#path-68-inside-39_437_38)"/>
<mask id="path-69-inside-40_437_38" fill="white">
<path d="M215.844 326.694C218.857 331.918 220.495 337.841 220.598 343.892L209.418 344.088C209.348 339.984 208.237 335.967 206.193 332.424L215.844 326.694Z"/>
</mask>
<path d="M215.844 326.694C218.857 331.918 220.495 337.841 220.598 343.892L209.418 344.088C209.348 339.984 208.237 335.967 206.193 332.424L215.844 326.694Z" fill="#F4E4C3" stroke="#E3562B" stroke-width="28" mask="url(#path-69-inside-40_437_38)"/>
<mask id="path-70-inside-41_437_38" fill="white">
<path d="M194.859 378.545C189.096 380.113 183.032 380.15 177.251 378.652L180.02 367.662C183.94 368.678 188.053 368.653 191.961 367.59L194.859 378.545Z"/>
</mask>
<path d="M194.859 378.545C189.096 380.113 183.032 380.15 177.251 378.652L180.02 367.662C183.94 368.678 188.053 368.653 191.961 367.59L194.859 378.545Z" fill="#F4E4C3" stroke="#E3562B" stroke-width="28" mask="url(#path-70-inside-41_437_38)"/>
<mask id="path-71-inside-42_437_38" fill="white">
<path d="M217.73 358.534C215.354 364.086 211.609 368.924 206.856 372.582L200.098 363.546C203.322 361.065 205.861 357.784 207.473 354.018L217.73 358.534Z"/>
</mask>
<path d="M217.73 358.534C215.354 364.086 211.609 368.924 206.856 372.582L200.098 363.546C203.322 361.065 205.861 357.784 207.473 354.018L217.73 358.534Z" fill="#F4E4C3" stroke="#E3562B" stroke-width="28" mask="url(#path-71-inside-42_437_38)"/>
<path d="M193.551 324.799C204.14 328.898 209.504 340.96 205.431 351.787C201.358 362.613 189.436 367.985 178.847 363.886C168.259 359.787 162.895 347.725 166.968 336.898C171.04 326.072 182.963 320.7 193.551 324.799Z" stroke="#E3562B" stroke-width="7"/>
<path d="M195.728 192.901C214.456 200.151 223.852 221.432 216.701 240.441C209.55 259.45 188.566 268.972 169.839 261.723C151.111 254.474 141.715 233.192 148.866 214.182C156.017 195.174 177.001 185.652 195.728 192.901Z" fill="#F4E4C3" stroke="#EA7D9C"/>
<path d="M201.544 175.72C229.577 186.417 243.631 217.814 232.934 245.847C222.236 273.88 190.839 287.933 162.806 277.236C134.773 266.539 120.721 235.141 131.418 207.109C142.115 179.076 173.512 165.023 201.544 175.72Z" fill="#F4E4C3" stroke="#EA7D9C"/>
<path d="M195.648 193.132C214.221 200.321 223.571 221.445 216.461 240.345C209.351 259.246 188.505 268.681 169.932 261.492C151.36 254.303 142.009 233.179 149.119 214.278C156.23 195.377 177.076 185.943 195.648 193.132Z" fill="#F4E4C3" stroke="#EA7D9C" stroke-width="5"/>
<path d="M200.881 176.759C228.205 187.336 241.934 218.398 231.489 246.165C221.044 273.93 190.405 287.817 163.081 277.241C135.757 266.664 122.027 235.602 132.472 207.836C142.917 180.07 173.557 166.182 200.881 176.759Z" fill="#F4E4C3" stroke="#EA7D9C" stroke-width="4"/>
<mask id="path-77-inside-43_437_38" fill="white">
<path d="M189.269 171.714C198.627 172.983 207.505 176.676 215.049 182.436L204.407 196.776C199.291 192.87 193.27 190.365 186.923 189.504L189.269 171.714Z"/>
</mask>
<path d="M189.269 171.714C198.627 172.983 207.505 176.676 215.049 182.436L204.407 196.776C199.291 192.87 193.27 190.365 186.923 189.504L189.269 171.714Z" fill="#F4E4C3" stroke="#EA7D9C" stroke-width="28" mask="url(#path-77-inside-43_437_38)"/>
<mask id="path-78-inside-44_437_38" fill="white">
<path d="M143.331 187.322C150.048 180.59 158.359 175.727 167.466 173.199L172.136 190.511C165.96 192.226 160.323 195.524 155.768 200.09L143.331 187.322Z"/>
</mask>
<path d="M143.331 187.322C150.048 180.59 158.359 175.727 167.466 173.199L172.136 190.511C165.96 192.226 160.323 195.524 155.768 200.09L143.331 187.322Z" fill="#F4E4C3" stroke="#EA7D9C" stroke-width="28" mask="url(#path-78-inside-44_437_38)"/>
<mask id="path-79-inside-45_437_38" fill="white">
<path d="M127.11 230.668C126.489 221.111 128.305 211.553 132.382 202.915L148.341 210.665C145.576 216.524 144.345 223.006 144.766 229.488L127.11 230.668Z"/>
</mask>
<path d="M127.11 230.668C126.489 221.111 128.305 211.553 132.382 202.915L148.341 210.665C145.576 216.524 144.345 223.006 144.766 229.488L127.11 230.668Z" fill="#F4E4C3" stroke="#EA7D9C" stroke-width="28" mask="url(#path-79-inside-45_437_38)"/>
<mask id="path-80-inside-46_437_38" fill="white">
<path d="M147.038 270.069C139.747 263.983 134.125 256.096 130.711 247.166L147.208 240.677C149.523 246.733 153.337 252.082 158.281 256.21L147.038 270.069Z"/>
</mask>
<path d="M147.038 270.069C139.747 263.983 134.125 256.096 130.711 247.166L147.208 240.677C149.523 246.733 153.337 252.082 158.281 256.21L147.038 270.069Z" fill="#F4E4C3" stroke="#EA7D9C" stroke-width="28" mask="url(#path-80-inside-46_437_38)"/>
<mask id="path-81-inside-47_437_38" fill="white">
<path d="M229.435 198.824C234.204 207.089 236.795 216.462 236.958 226.038L219.266 226.347C219.156 219.853 217.398 213.496 214.164 207.89L229.435 198.824Z"/>
</mask>
<path d="M229.435 198.824C234.204 207.089 236.795 216.462 236.958 226.038L219.266 226.347C219.156 219.853 217.398 213.496 214.164 207.89L229.435 198.824Z" fill="#F4E4C3" stroke="#EA7D9C" stroke-width="28" mask="url(#path-81-inside-47_437_38)"/>
<mask id="path-82-inside-48_437_38" fill="white">
<path d="M196.228 280.873C187.109 283.355 177.514 283.413 168.366 281.042L172.746 263.652C178.95 265.26 185.458 265.22 191.643 263.537L196.228 280.873Z"/>
</mask>
<path d="M196.228 280.873C187.109 283.355 177.514 283.413 168.366 281.042L172.746 263.652C178.95 265.26 185.458 265.22 191.643 263.537L196.228 280.873Z" fill="#F4E4C3" stroke="#EA7D9C" stroke-width="28" mask="url(#path-82-inside-48_437_38)"/>
<mask id="path-83-inside-49_437_38" fill="white">
<path d="M232.419 249.208C228.66 257.993 222.734 265.649 215.212 271.438L204.518 257.138C209.62 253.212 213.639 248.02 216.188 242.062L232.419 249.208Z"/>
</mask>
<path d="M232.419 249.208C228.66 257.993 222.734 265.649 215.212 271.438L204.518 257.138C209.62 253.212 213.639 248.02 216.188 242.062L232.419 249.208Z" fill="#F4E4C3" stroke="#EA7D9C" stroke-width="28" mask="url(#path-83-inside-49_437_38)"/>
<path d="M194.876 193.916C212.701 200.816 221.692 221.099 214.858 239.266C208.024 257.432 187.997 266.484 170.173 259.584C152.348 252.685 143.357 232.4 150.191 214.234C157.025 196.067 177.052 187.016 194.876 193.916Z" stroke="#EA7D9C" stroke-width="7"/>
</svg>
