<svg width="717" height="671" viewBox="0 0 717 671" fill="none" xmlns="http://www.w3.org/2000/svg">
<path d="M204.247 25.7036C123.064 59.8604 58.6121 125.257 25.0712 207.508L262.036 306.486C269.639 287.84 284.25 273.015 302.653 265.272L204.247 25.7036Z" fill="#34A46A"/>
<path d="M210.091 647.69C252.005 664.385 296.841 672.261 341.862 670.836C386.884 669.411 431.146 658.715 471.947 639.401L360.887 399.087C352.349 403.128 343.088 405.366 333.668 405.664C324.248 405.962 314.867 404.315 306.097 400.821L210.091 647.69Z" fill="#34A46A"/>
<path d="M452.894 23.3047C371.082 -9.27953 279.831 -7.63733 199.215 27.8701L301.512 265.763C319.787 257.714 340.473 257.342 359.019 264.728L452.894 23.3047Z" fill="#EA7D9C"/>
<path d="M633.992 198.25C598.025 117.057 531.662 53.6484 449.501 21.975L358.25 264.427C376.875 271.607 391.919 285.981 400.072 304.387L633.992 198.25Z" fill="#F79C05"/>
<path d="M26.2797 204.584C-8.02746 286.51 -8.7725 378.873 24.2085 461.356L266.763 362.014C259.815 344.637 259.972 325.179 267.2 307.92L26.2797 204.584Z" fill="#F79C05"/>
<path d="M471.031 639.833C510.52 621.289 546.013 595.054 575.484 562.627C604.955 530.2 627.827 492.215 642.794 450.843L397.08 359.799C393.927 368.515 389.109 376.517 382.9 383.349C376.691 390.18 369.214 395.707 360.895 399.614L471.031 639.833Z" fill="#F79C05"/>
<path d="M22.745 457.632C39.6412 501.383 65.4273 541.056 98.4339 574.083C131.44 607.109 170.932 632.752 214.352 649.352L307.365 400.161C298.419 396.741 290.283 391.458 283.483 384.653C276.683 377.849 271.37 369.676 267.889 360.662L22.745 457.632Z" fill="#EA7D9C"/>
<path d="M640.904 455.937C656.977 413.643 664.418 368.493 662.777 323.209C661.137 277.925 650.45 233.447 631.36 192.458L393.278 306.03C397.211 314.475 399.413 323.638 399.751 332.968C400.089 342.297 398.556 351.599 395.244 360.313L640.904 455.937Z" fill="#EA7D9C"/>
<path d="M332.475 260.557C370.807 260.557 402.008 292.007 402.008 330.958C402.008 369.91 370.807 401.36 332.475 401.36C294.142 401.359 262.942 369.91 262.942 330.958C262.943 292.007 294.142 260.557 332.475 260.557Z" fill="#F4E4C3" stroke="#F4E4C3" stroke-width="13"/>
<path d="M472.672 530C478.545 530 483.344 534.822 483.344 540.817C483.344 546.813 478.544 551.634 472.672 551.634C466.799 551.634 462 546.813 462 540.817C462 534.822 466.799 530 472.672 530Z" stroke="#F4E4C3" stroke-width="4"/>
<path d="M436.776 425.635C442.649 425.635 447.448 430.457 447.448 436.452C447.448 442.447 442.649 447.269 436.776 447.269C430.904 447.268 426.105 442.447 426.104 436.452C426.104 430.457 430.904 425.635 436.776 425.635Z" stroke="#F4E4C3" stroke-width="4"/>
<path d="M510.672 438C516.545 438 521.344 442.822 521.344 448.817C521.344 454.813 516.544 459.634 510.672 459.634C504.799 459.634 500 454.813 500 448.817C500 442.822 504.799 438 510.672 438Z" stroke="#F4E4C3" stroke-width="4"/>
<path d="M467.902 483.522C470.32 473.879 453.884 477.883 448.977 485.73C448.583 474.108 435.795 465.025 433.378 474.668C430.961 484.311 436.73 494.109 446.263 496.554C455.797 498.999 465.485 493.165 467.902 483.522Z" fill="#F4E4C3"/>
<path d="M457.686 471.505C460.021 462.192 458.035 460.924 455.366 460.239C452.697 459.555 450.354 459.713 448.019 469.026C445.685 478.338 445.956 486.442 448.625 487.127C451.295 487.811 455.351 480.817 457.686 471.505Z" fill="#F4E4C3"/>
<path d="M511.329 218.337C508.256 213.243 509.849 206.593 514.886 203.485C519.924 200.377 526.498 201.988 529.57 207.082C532.643 212.177 531.05 218.826 526.013 221.934C520.975 225.042 514.401 223.431 511.329 218.337Z" stroke="#F4E4C3" stroke-width="4"/>
<path d="M458.302 190.999C455.79 186.834 457.092 181.399 461.21 178.858C465.329 176.317 470.703 177.634 473.215 181.798C475.726 185.962 474.425 191.399 470.307 193.94C466.188 196.481 460.814 195.163 458.302 190.999Z" stroke="#F4E4C3" stroke-width="4"/>
<path d="M426.157 226.428C429.058 235.933 441.029 223.858 441.177 214.575C447.497 224.289 463.091 225.307 460.189 215.802C457.288 206.297 447.318 200.97 437.92 203.904C428.523 206.839 423.256 216.923 426.157 226.428Z" fill="#F4E4C3"/>
<path d="M438.229 227.798C441.438 238.31 443.817 238.449 446.448 237.627C449.08 236.806 450.967 235.334 447.759 224.823C444.55 214.311 439.816 206.455 437.185 207.277C434.553 208.098 435.021 217.286 438.229 227.798Z" fill="#F4E4C3"/>
<path d="M501.085 152.006C491.687 154.941 503.625 167.048 512.804 167.198C503.199 173.59 502.193 189.362 511.59 186.427C520.988 183.493 526.255 173.409 523.354 163.904C520.452 154.399 510.482 149.072 501.085 152.006Z" fill="#F4E4C3"/>
<path d="M496.261 167.085C487.185 169.919 487.148 172.293 487.96 174.955C488.772 177.616 490.126 179.557 499.202 176.723C508.278 173.889 514.977 169.434 514.165 166.773C513.353 164.111 505.337 164.251 496.261 167.085Z" fill="#F4E4C3"/>
<path d="M524.427 492.951C515.323 489.188 516.954 506.207 523.953 512.214C512.52 510.99 501.848 522.534 510.952 526.297C520.056 530.061 530.453 525.647 534.174 516.439C537.895 507.23 533.531 496.715 524.427 492.951Z" fill="#F4E4C3"/>
<path d="M511.239 501.509C502.447 497.874 500.929 499.686 499.887 502.264C498.845 504.842 498.674 507.211 507.466 510.846C516.259 514.48 524.231 515.337 525.273 512.758C526.315 510.18 520.032 505.143 511.239 501.509Z" fill="#F4E4C3"/>
<path d="M564.18 453.2C555.145 457.128 568.513 467.788 577.697 466.932C568.868 474.3 569.746 489.997 578.781 486.069C587.816 482.141 591.871 471.6 587.839 462.523C583.807 453.447 573.214 449.273 564.18 453.2Z" fill="#F4E4C3"/>
<path d="M561.162 468.629C552.436 472.422 552.683 474.773 553.812 477.315C554.941 479.856 556.525 481.626 565.25 477.832C573.976 474.039 580.134 468.904 579.005 466.363C577.876 463.821 569.887 464.836 561.162 468.629Z" fill="#F4E4C3"/>
<path d="M457.6 140.617C455.091 136.457 456.388 131.021 460.511 128.477C464.634 125.933 470.007 127.255 472.516 131.414C475.025 135.574 473.728 141.012 469.605 143.555C465.482 146.099 460.109 144.777 457.6 140.617Z" stroke="#F4E4C3" stroke-width="4"/>
<path d="M425.457 176.045C428.358 185.55 440.328 173.475 440.477 164.192C446.797 173.906 462.39 174.924 459.489 165.419C456.588 155.914 446.618 150.587 437.22 153.522C427.823 156.456 422.556 166.54 425.457 176.045Z" fill="#F4E4C3"/>
<path d="M437.53 177.415C440.739 187.927 443.118 188.067 445.749 187.245C448.38 186.423 450.268 184.952 447.059 174.44C443.851 163.928 439.117 156.073 436.485 156.894C433.854 157.716 434.322 166.904 437.53 177.415Z" fill="#F4E4C3"/>
<path d="M500.383 101.624C490.986 104.558 502.924 116.665 512.102 116.815C502.498 123.207 501.491 138.979 510.889 136.045C520.287 133.111 525.553 123.027 522.652 113.521C519.751 104.016 509.781 98.6895 500.383 101.624Z" fill="#F4E4C3"/>
<path d="M495.559 116.702C486.483 119.536 486.447 121.911 487.259 124.572C488.071 127.233 489.425 129.174 498.501 126.34C507.577 123.506 514.276 119.051 513.464 116.39C512.651 113.729 504.635 113.868 495.559 116.702Z" fill="#F4E4C3"/>
<path d="M177.673 494C171.8 494 167.001 498.822 167.001 504.817C167.001 510.813 171.8 515.634 177.673 515.634C183.545 515.634 188.344 510.813 188.345 504.817C188.345 498.822 183.545 494 177.673 494Z" stroke="#F4E4C3" stroke-width="4"/>
<path d="M119.673 519C113.8 519 109.001 523.822 109.001 529.817C109.001 535.813 113.8 540.634 119.673 540.634C125.545 540.634 130.344 535.813 130.345 529.817C130.345 523.822 125.545 519 119.673 519Z" stroke="#F4E4C3" stroke-width="4"/>
<path d="M121.262 442.067C130.796 439.622 126.838 456.246 119.079 461.208C130.57 461.606 139.55 474.541 130.016 476.986C120.482 479.431 110.794 473.596 108.377 463.953C105.96 454.311 111.728 444.512 121.262 442.067Z" fill="#F4E4C3"/>
<path d="M130.179 452.398C139.386 450.037 140.64 452.045 141.317 454.745C141.994 457.445 141.837 459.814 132.63 462.175C123.423 464.537 115.41 464.262 114.733 461.562C114.057 458.862 120.972 454.759 130.179 452.398Z" fill="#F4E4C3"/>
<path d="M159.728 554.459C157.31 564.102 173.746 560.099 178.653 552.252C179.046 563.874 191.835 572.956 194.252 563.313C196.669 553.671 190.9 543.872 181.367 541.427C171.833 538.982 162.145 544.817 159.728 554.459Z" fill="#F4E4C3"/>
<path d="M169.942 566.477C167.607 575.789 169.593 577.058 172.262 577.742C174.931 578.427 177.274 578.268 179.609 568.956C181.943 559.643 181.672 551.539 179.003 550.855C176.333 550.17 172.277 557.164 169.942 566.477Z" fill="#F4E4C3"/>
<path d="M193.082 443.379C187.209 443.379 182.41 448.201 182.41 454.197C182.41 460.192 187.21 465.013 193.082 465.013C198.954 465.013 203.754 460.192 203.754 454.197C203.754 448.201 198.955 443.38 193.082 443.379Z" stroke="#F4E4C3" stroke-width="4"/>
<path d="M208.431 402.067C217.965 399.622 214.007 416.246 206.248 421.209C217.739 421.607 226.719 434.541 217.185 436.986C207.651 439.431 197.963 433.596 195.546 423.954C193.128 414.311 198.897 404.512 208.431 402.067Z" fill="#F4E4C3"/>
<path d="M217.348 412.399C226.555 410.037 227.809 412.045 228.486 414.745C229.163 417.445 229.006 419.815 219.799 422.176C210.592 424.537 202.579 424.263 201.902 421.563C201.226 418.863 208.141 414.76 217.348 412.399Z" fill="#F4E4C3"/>
<path d="M227.728 460.459C225.31 470.102 241.746 466.099 246.653 458.252C247.046 469.874 259.835 478.956 262.252 469.313C264.669 459.671 258.9 449.872 249.367 447.427C239.833 444.982 230.145 450.817 227.728 460.459Z" fill="#F4E4C3"/>
<path d="M237.942 472.477C235.607 481.789 237.593 483.058 240.262 483.742C242.931 484.427 245.274 484.269 247.609 474.956C249.943 465.644 249.672 457.54 247.003 456.855C244.333 456.17 240.277 463.165 237.942 472.477Z" fill="#F4E4C3"/>
<path d="M155.478 149.578C162.427 149.578 168.099 155.283 168.099 162.367C168.098 169.451 162.427 175.155 155.478 175.155C148.528 175.155 142.856 169.451 142.855 162.367C142.855 155.282 148.528 149.578 155.478 149.578Z" stroke="#F4E4C3" stroke-width="4"/>
<path d="M198.367 151.55C203.163 151.55 207.09 155.488 207.09 160.394C207.09 165.301 203.163 169.24 198.367 169.24C193.571 169.24 189.645 165.301 189.645 160.394C189.645 155.488 193.571 151.55 198.367 151.55Z" stroke="#F4E4C3" stroke-width="4"/>
<path d="M121.639 176.829C131.173 174.384 127.215 191.008 119.456 195.971C130.947 196.369 139.927 209.303 130.393 211.748C120.859 214.193 111.171 208.358 108.754 198.716C106.336 189.073 112.105 179.274 121.639 176.829Z" fill="#F4E4C3"/>
<path d="M133.521 187.161C142.728 184.799 143.982 186.807 144.659 189.507C145.336 192.207 145.179 194.577 135.972 196.938C126.765 199.299 118.752 199.025 118.075 196.325C117.398 193.625 124.314 189.522 133.521 187.161Z" fill="#F4E4C3"/>
<path d="M167.17 136.548C158.573 141.38 158.191 124.285 164.434 117.479C153.226 120.069 141.271 109.891 149.868 105.059C158.465 100.227 169.308 103.359 174.085 112.054C178.863 120.749 175.767 131.715 167.17 136.548Z" fill="#F4E4C3"/>
<path d="M153.068 129.637C144.765 134.304 143.045 132.688 141.707 130.253C140.369 127.819 139.921 125.488 148.224 120.821C156.526 116.154 164.341 114.345 165.679 116.779C167.017 119.214 161.371 124.971 153.068 129.637Z" fill="#F4E4C3"/>
<path d="M227.11 217.276C230.298 223.572 227.83 231.268 221.635 234.477C215.439 237.687 207.822 235.216 204.634 228.92C201.446 222.625 203.915 214.929 210.111 211.72C216.306 208.511 223.922 210.981 227.11 217.276Z" stroke="#F4E4C3" stroke-width="4"/>
<path d="M244.927 256.786C247.134 261.143 245.423 266.463 241.145 268.679C236.866 270.896 231.598 269.191 229.392 264.834C227.186 260.478 228.897 255.159 233.175 252.942C237.454 250.726 242.721 252.43 244.927 256.786Z" stroke="#F4E4C3" stroke-width="4"/>
<path d="M187.719 199.23C194.217 206.698 177.784 210.713 169.88 205.992C174.768 216.517 167.479 230.497 160.982 223.029C154.484 215.562 155.202 204.18 162.586 197.608C169.969 191.036 181.222 191.763 187.719 199.23Z" fill="#F4E4C3"/>
<path d="M184.044 214.637C190.319 221.849 189.124 223.893 187.057 225.733C184.989 227.573 182.833 228.512 176.558 221.3C170.282 214.088 166.871 206.75 168.939 204.91C171.006 203.07 177.769 207.425 184.044 214.637Z" fill="#F4E4C3"/>
<path d="M221.734 196.221C213.562 190.685 228.432 182.548 237.267 185.066C229.878 176.157 233.385 160.755 241.556 166.292C249.727 171.828 251.914 183.016 246.44 191.281C240.967 199.546 229.905 201.757 221.734 196.221Z" fill="#F4E4C3"/>
<path d="M221.386 180.377C213.495 175.03 214.133 172.744 215.665 170.43C217.198 168.116 219.045 166.65 226.937 171.997C234.828 177.343 239.983 183.554 238.45 185.868C236.918 188.182 229.278 185.724 221.386 180.377Z" fill="#F4E4C3"/>
</svg>
