<svg width="671" height="671" viewBox="0 0 671 671" fill="none" xmlns="http://www.w3.org/2000/svg">
<circle cx="335.5" cy="335.5" r="335.5" fill="#F79C05"/>
<path d="M235.419 15.2753C153.971 40.7306 85.2828 96.2652 43.3349 170.577L265.38 295.919C275.448 278.084 291.933 264.756 311.481 258.646L235.419 15.2753Z" fill="#2CA66C"/>
<path d="M472.177 641.898C394.246 676.661 305.996 680.423 225.39 652.417L309.073 411.56C328.419 418.282 349.599 417.379 368.302 409.036L472.177 641.898Z" fill="#2CA66C"/>
<path d="M650.767 450.248C679.953 370.061 677.486 281.766 643.87 203.333L409.509 303.78C417.577 322.604 418.169 343.795 411.164 363.04L650.767 450.248Z" fill="#EA7D9C"/>
<path d="M477.289 31.434C399.95 -4.62946 311.776 -9.86799 230.712 16.7846L310.351 259.008C329.806 252.612 350.968 253.869 369.529 262.524L477.289 31.434Z" fill="#EA7D9C"/>
<path d="M38.4425 491.44C78.1053 566.995 145.068 624.598 225.702 652.525L309.149 411.586C289.796 404.884 273.725 391.059 264.206 372.926L38.4425 491.44Z" fill="#EA7D9C"/>
<circle cx="335.501" cy="335.5" r="80.595" fill="#F4E4C3"/>
<path d="M514.871 225.327C512.389 219.672 514.917 213.039 520.518 210.513C526.119 207.987 532.672 210.524 535.154 216.178C537.636 221.833 535.108 228.466 529.507 230.992C523.906 233.518 517.353 230.981 514.871 225.327Z" stroke="#F4E4C3" stroke-width="4"/>
<path d="M464.232 190.3C462.2 185.671 464.269 180.243 468.853 178.174C473.438 176.106 478.802 178.183 480.834 182.812C482.866 187.44 480.796 192.87 476.211 194.938C471.627 197.005 466.263 194.929 464.232 190.3Z" stroke="#F4E4C3" stroke-width="4"/>
<path d="M426.68 222.264C428.386 232.378 442.242 221.61 443.628 212.128C448.805 222.91 464.63 226.024 462.924 215.91C461.217 205.796 451.72 199.02 441.712 200.774C431.703 202.529 424.973 212.15 426.68 222.264Z" fill="#F4E4C3"/>
<path d="M438.855 225.27C440.742 236.456 443.158 236.914 445.96 236.423C448.763 235.932 450.89 234.677 449.003 223.491C447.116 212.306 443.314 203.637 440.512 204.128C437.709 204.619 436.967 214.085 438.855 225.27Z" fill="#F4E4C3"/>
<path d="M513.259 156.049C503.251 157.803 513.861 171.781 523.235 173.154C512.556 178.42 509.43 194.429 519.439 192.675C529.447 190.92 536.177 181.299 534.471 171.185C532.765 161.071 523.268 154.294 513.259 156.049Z" fill="#F4E4C3"/>
<path d="M506.317 170.841C496.651 172.535 496.298 174.961 496.776 177.793C497.254 180.625 498.381 182.791 508.047 181.096C517.713 179.402 525.162 175.732 524.684 172.9C524.206 170.068 515.983 169.146 506.317 170.841Z" fill="#F4E4C3"/>
<path d="M470.206 138.642C468.177 134.018 470.242 128.587 474.831 126.517C479.421 124.447 484.783 126.528 486.813 131.151C488.842 135.775 486.777 141.206 482.188 143.277C477.598 145.347 472.236 143.265 470.206 138.642Z" stroke="#F4E4C3" stroke-width="4"/>
<path d="M432.658 170.604C434.365 180.718 448.22 169.95 449.606 160.468C454.784 171.251 470.609 174.364 468.902 164.25C467.196 154.136 457.699 147.36 447.691 149.114C437.682 150.869 430.952 160.49 432.658 170.604Z" fill="#F4E4C3"/>
<path d="M444.833 173.61C446.72 184.796 449.136 185.254 451.939 184.763C454.741 184.272 456.868 183.017 454.981 171.831C453.094 160.646 449.293 151.977 446.49 152.468C443.688 152.959 442.946 162.425 444.833 173.61Z" fill="#F4E4C3"/>
<path d="M519.236 104.391C509.227 106.146 519.838 120.124 529.212 121.497C518.532 126.763 515.407 142.772 525.415 141.017C535.424 139.263 542.154 129.641 540.447 119.527C538.741 109.413 529.244 102.637 519.236 104.391Z" fill="#F4E4C3"/>
<path d="M512.296 119.183C502.63 120.877 502.277 123.303 502.754 126.135C503.232 128.967 504.36 131.133 514.026 129.438C523.692 127.744 531.14 124.074 530.662 121.242C530.184 118.411 521.961 117.488 512.296 119.183Z" fill="#F4E4C3"/>
<path d="M163.615 460.055C166.097 465.709 163.57 472.342 157.968 474.868C152.367 477.394 145.815 474.858 143.333 469.203C140.851 463.548 143.378 456.916 148.979 454.389C154.581 451.863 161.133 454.4 163.615 460.055Z" stroke="#F4E4C3" stroke-width="4"/>
<path d="M205.649 479.614C207.681 484.242 205.612 489.671 201.027 491.739C196.442 493.808 191.078 491.731 189.047 487.102C187.015 482.473 189.084 477.044 193.669 474.976C198.254 472.908 203.618 474.985 205.649 479.614Z" stroke="#F4E4C3" stroke-width="4"/>
<path d="M248.102 440.627C246.395 430.513 232.539 441.281 231.154 450.763C225.976 439.981 210.151 436.867 211.858 446.981C213.564 457.095 223.061 463.872 233.069 462.117C243.078 460.363 249.808 450.741 248.102 440.627Z" fill="#F4E4C3"/>
<path d="M235.929 437.621C234.042 426.436 231.625 425.977 228.823 426.468C226.02 426.96 223.893 428.215 225.78 439.4C227.667 450.585 231.469 459.255 234.271 458.763C237.074 458.272 237.816 448.806 235.929 437.621Z" fill="#F4E4C3"/>
<path d="M132.667 500.985C127.7 509.849 145.238 510.464 152.228 504.069C149.557 515.673 159.986 528.215 164.953 519.351C169.92 510.486 166.72 499.189 157.804 494.118C148.889 489.046 137.635 492.121 132.667 500.985Z" fill="#F4E4C3"/>
<path d="M139.74 515.715C134.943 524.275 136.599 526.082 139.096 527.502C141.592 528.922 143.983 529.418 148.78 520.857C153.578 512.296 155.443 504.205 152.947 502.785C150.45 501.365 144.538 507.154 139.74 515.715Z" fill="#F4E4C3"/>
<path d="M208.282 546.741C210.312 551.365 208.247 556.795 203.657 558.865C199.067 560.935 193.705 558.855 191.676 554.231C189.646 549.607 191.711 544.176 196.301 542.106C200.891 540.036 206.253 542.117 208.282 546.741Z" stroke="#F4E4C3" stroke-width="4"/>
<path d="M245.832 514.778C244.126 504.664 230.27 515.433 228.884 524.914C223.707 514.132 207.882 511.018 209.588 521.132C211.294 531.246 220.791 538.023 230.8 536.268C240.808 534.514 247.538 524.892 245.832 514.778Z" fill="#F4E4C3"/>
<path d="M233.655 511.772C231.768 500.587 229.352 500.128 226.549 500.619C223.747 501.111 221.62 502.366 223.507 513.551C225.394 524.736 229.196 533.405 231.998 532.914C234.8 532.423 235.542 522.957 233.655 511.772Z" fill="#F4E4C3"/>
<path d="M221.563 594.628C220.483 588.226 211.712 595.042 210.835 601.044C207.557 594.219 197.54 592.248 198.62 598.65C199.701 605.052 205.712 609.342 212.047 608.231C218.383 607.121 222.643 601.03 221.563 594.628Z" fill="#F4E4C3"/>
<path d="M213.857 592.725C212.662 585.645 211.133 585.354 209.359 585.665C207.585 585.976 206.238 586.771 207.433 593.851C208.627 600.931 211.034 606.419 212.808 606.108C214.582 605.797 215.051 599.805 213.857 592.725Z" fill="#F4E4C3"/>
<path d="M159.251 580.992C169.259 579.237 158.649 565.259 149.275 563.886C159.954 558.62 163.08 542.611 153.071 544.366C143.063 546.12 136.333 555.742 138.039 565.856C139.745 575.97 149.242 582.746 159.251 580.992Z" fill="#F4E4C3"/>
<path d="M166.193 566.2C175.859 564.505 176.212 562.08 175.734 559.248C175.256 556.416 174.128 554.25 164.462 555.945C154.797 557.639 147.348 561.308 147.826 564.14C148.304 566.972 156.527 567.894 166.193 566.2Z" fill="#F4E4C3"/>
<path d="M454.422 495.938C462.719 498.772 467.156 507.89 464.272 516.334C461.388 524.778 452.3 529.277 444.004 526.443C435.707 523.61 431.27 514.492 434.154 506.048C437.038 497.604 446.126 493.104 454.422 495.938Z" stroke="#F4E4C3" stroke-width="4"/>
<path d="M501.926 545.53C507.067 547.286 509.829 552.944 508.035 558.196C506.241 563.449 500.596 566.234 495.455 564.478C490.314 562.722 487.551 557.065 489.344 551.813C491.138 546.56 496.785 543.774 501.926 545.53Z" stroke="#F4E4C3" stroke-width="4"/>
<path d="M453.399 399.335C458.54 401.091 461.302 406.748 459.508 412.001C457.714 417.253 452.068 420.038 446.927 418.282C441.786 416.526 439.023 410.87 440.817 405.617C442.611 400.364 448.258 397.579 453.399 399.335Z" stroke="#F4E4C3" stroke-width="4"/>
<path d="M515.188 432.683C520.329 434.439 523.091 440.097 521.297 445.349C519.503 450.602 513.857 453.387 508.716 451.631C503.575 449.875 500.812 444.218 502.606 438.966C504.4 433.713 510.047 430.927 515.188 432.683Z" stroke="#F4E4C3" stroke-width="4"/>
<path d="M463.511 459.98C468.575 452.161 452.786 450.733 446.058 456.206C449.229 445.78 440.639 433.851 435.574 441.671C430.51 449.49 432.658 459.928 440.372 464.984C448.087 470.04 458.446 467.8 463.511 459.98Z" fill="#F4E4C3"/>
<path d="M458.09 446.229C462.982 438.677 461.605 436.951 459.445 435.535C457.285 434.119 455.159 433.55 450.268 441.102C445.377 448.654 443.163 455.923 445.323 457.339C447.483 458.754 453.199 453.78 458.09 446.229Z" fill="#F4E4C3"/>
<path d="M510.784 485.465C503.85 479.369 500.142 494.957 504.53 502.404C494.761 497.856 481.799 504.861 488.734 510.956C495.668 517.052 506.225 516.286 512.314 509.247C518.404 502.208 517.719 491.56 510.784 485.465Z" fill="#F4E4C3"/>
<path d="M496.496 489.059C489.799 483.172 487.904 484.319 486.199 486.29C484.494 488.261 483.625 490.31 490.322 496.196C497.018 502.083 503.829 505.257 505.534 503.286C507.239 501.315 503.193 494.945 496.496 489.059Z" fill="#F4E4C3"/>
<path d="M558.077 462.253C548.875 462.999 557.502 476.502 565.905 478.525C555.844 482.385 551.868 496.571 561.071 495.825C570.273 495.078 577.062 486.957 576.236 477.687C575.409 468.416 567.279 461.506 558.077 462.253Z" fill="#F4E4C3"/>
<path d="M550.731 475.022C541.844 475.743 541.35 477.902 541.582 480.498C541.813 483.094 542.682 485.143 551.569 484.422C560.456 483.701 567.473 481.012 567.241 478.416C567.01 475.82 559.618 474.301 550.731 475.022Z" fill="#F4E4C3"/>
<path d="M162.221 126.893C168.662 126.893 173.923 132.181 173.923 138.752C173.923 145.323 168.662 150.611 162.221 150.611C155.779 150.611 150.518 145.323 150.518 138.752C150.518 132.181 155.779 126.893 162.221 126.893Z" stroke="#F4E4C3" stroke-width="4"/>
<path d="M202.414 128.74C206.838 128.74 210.463 132.373 210.463 136.903C210.463 141.433 206.838 145.067 202.414 145.067C197.99 145.067 194.365 141.433 194.365 136.903C194.365 132.373 197.99 128.74 202.414 128.74Z" stroke="#F4E4C3" stroke-width="4"/>
<path d="M130.509 152.306C139.443 150.014 135.734 165.593 128.463 170.244C139.231 170.617 147.647 182.739 138.712 185.03C129.778 187.321 120.699 181.853 118.433 172.817C116.168 163.78 121.574 154.597 130.509 152.306Z" fill="#F4E4C3"/>
<path d="M141.641 161.987C150.269 159.775 151.445 161.656 152.079 164.186C152.713 166.717 152.566 168.937 143.938 171.15C135.309 173.363 127.8 173.106 127.166 170.576C126.532 168.045 133.012 164.2 141.641 161.987Z" fill="#F4E4C3"/>
<path d="M173.177 114.555C165.12 119.084 164.762 103.064 170.613 96.685C160.109 99.1129 148.906 89.5748 156.963 85.0463C165.02 80.5178 175.18 83.4525 179.658 91.6013C184.135 99.75 181.233 110.027 173.177 114.555Z" fill="#F4E4C3"/>
<path d="M159.961 108.08C152.18 112.453 150.568 110.938 149.314 108.657C148.061 106.375 147.64 104.19 155.421 99.817C163.202 95.4436 170.526 93.7478 171.78 96.0295C173.033 98.3111 167.742 103.706 159.961 108.08Z" fill="#F4E4C3"/>
<path d="M229.24 190.269C232.197 196.107 229.907 203.242 224.163 206.218C218.42 209.193 211.357 206.903 208.4 201.065C205.444 195.226 207.733 188.091 213.477 185.115C219.221 182.14 226.284 184.43 229.24 190.269Z" stroke="#F4E4C3" stroke-width="4"/>
<path d="M245.936 227.295C247.972 231.317 246.393 236.225 242.445 238.27C238.498 240.315 233.636 238.743 231.6 234.722C229.563 230.7 231.143 225.791 235.091 223.746C239.038 221.702 243.899 223.273 245.936 227.295Z" stroke="#F4E4C3" stroke-width="4"/>
<path d="M192.436 173.298C198.526 180.297 183.125 184.06 175.718 179.635C180.299 189.499 173.468 202.6 167.379 195.602C161.29 188.603 161.963 177.937 168.882 171.778C175.801 165.619 186.347 166.3 192.436 173.298Z" fill="#F4E4C3"/>
<path d="M188.992 187.737C194.873 194.495 193.753 196.411 191.816 198.136C189.878 199.86 187.857 200.74 181.976 193.982C176.095 187.223 172.899 180.346 174.836 178.621C176.774 176.897 183.111 180.978 188.992 187.737Z" fill="#F4E4C3"/>
<path d="M224.312 170.478C216.654 165.29 230.589 157.664 238.869 160.024C231.944 151.675 235.23 137.241 242.888 142.43C250.546 147.618 252.595 158.103 247.466 165.848C242.336 173.594 231.97 175.667 224.312 170.478Z" fill="#F4E4C3"/>
<path d="M223.99 155.63C216.594 150.619 217.192 148.477 218.628 146.309C220.064 144.14 221.795 142.766 229.191 147.776C236.587 152.787 241.418 158.607 239.981 160.776C238.545 162.945 231.385 160.641 223.99 155.63Z" fill="#F4E4C3"/>
</svg>
