<svg width="495" height="585" viewBox="0 0 495 585" fill="none" xmlns="http://www.w3.org/2000/svg">
<path d="M138.5 124L39.5 70.5" stroke="#F4E4C3" stroke-width="5"/>
<path d="M292.5 10L290 118V466L301.5 577.5" stroke="#F4E4C3" stroke-width="5"/>
<rect x="38" y="5.5" width="418" height="574" rx="30.5" stroke="#F4E4C3" stroke-width="11"/>
<path d="M89 8.5L166.5 118V466L101 578" stroke="#F4E4C3" stroke-width="5"/>
<path d="M142 8.5L197.5 118V466L152 577.5" stroke="#F4E4C3" stroke-width="5"/>
<path d="M191.5 8L228.5 118V466.5L195 576" stroke="#F4E4C3" stroke-width="5"/>
<path d="M231.5 7L258 118V466L247.5 578" stroke="#F4E4C3" stroke-width="5"/>
<path d="M345 8.5L318.5 118V466.5L351.5 579.5" stroke="#F4E4C3" stroke-width="5"/>
<path d="M395 10L349 118V466L414 578" stroke="#F4E4C3" stroke-width="5"/>
<rect x="79" y="45.5" width="344" height="503" rx="5.5" stroke="#F4E4C3" stroke-width="5"/>
<rect x="105" y="71.5" width="292" height="443" rx="5.5" stroke="#F4E4C3" stroke-width="5"/>
<rect x="136" y="122.5" width="230" height="350" rx="5.5" stroke="#F4E4C3" stroke-width="5"/>
<path d="M364.5 124.5L453 53.5" stroke="#F4E4C3" stroke-width="5"/>
<path d="M40 113L155.5 159.5H356L454.5 117.5" stroke="#F4E4C3" stroke-width="5"/>
<path d="M40 160.5L156.5 190H355L455 166.5" stroke="#F4E4C3" stroke-width="5"/>
<path d="M38 201L153.5 223H357L454.5 201" stroke="#F4E4C3" stroke-width="5"/>
<path d="M39.5 252.5L154.5 258.5H357L452.5 249" stroke="#F4E4C3" stroke-width="5"/>
<path d="M38 298L154.5 293.5H357L452.5 298" stroke="#F4E4C3" stroke-width="5"/>
<path d="M39 344.5L156 328H356L455 333.5" stroke="#F4E4C3" stroke-width="5"/>
<path d="M37.5 390L155 362.5H356.5L455 381.5" stroke="#F4E4C3" stroke-width="5"/>
<path d="M39.5 436L153.5 393.5H354.5L456 436" stroke="#F4E4C3" stroke-width="5"/>
<path d="M39 489L154.5 426H356L455.5 489" stroke="#F4E4C3" stroke-width="5"/>
<path d="M39.5 538.5L159 458H356.5L455 546" stroke="#F4E4C3" stroke-width="5"/>
<path d="M37.4728 79L29.4727 144.5C29.4727 144.5 -17.089 217.666 14.4727 229.5C42.4944 240.007 72.9727 180 72.9727 180" stroke="#F4E4C3" stroke-width="7" stroke-linecap="round"/>
<path d="M38.9454 479.735L30.9454 414.235C30.9454 414.235 -15.6163 341.069 15.9454 329.235C43.967 318.728 74.4454 378.735 74.4454 378.735" stroke="#F4E4C3" stroke-width="7" stroke-linecap="round"/>
<path d="M457 79L465 144.5C465 144.5 511.562 217.666 480 229.5C451.978 240.007 421.5 180 421.5 180" stroke="#F4E4C3" stroke-width="7" stroke-linecap="round"/>
<path d="M456 479.735L464 414.235C464 414.235 510.562 341.069 479 329.235C450.978 318.728 420.5 378.735 420.5 378.735" stroke="#F4E4C3" stroke-width="7" stroke-linecap="round"/>
</svg>
