<svg width="108" height="134" viewBox="0 0 108 134" fill="none" xmlns="http://www.w3.org/2000/svg">
<path d="M2.85652 99.3893L43.6874 127.126C44.9653 127.994 46.7031 127.147 46.8067 125.606L50.228 74.7054C50.2772 73.9747 49.923 73.2756 49.3049 72.883L8.35792 46.874C7.07688 46.0603 5.39186 46.9138 5.29008 48.428L1.98487 97.6008C1.93723 98.3094 2.26901 98.9902 2.85652 99.3893Z" fill="#34A46A"/>
<path d="M7.75382 99.0031L34.0229 116.761C37.8576 119.353 43.0592 116.811 43.3696 112.192L45.5716 79.4329C45.7192 77.2362 44.652 75.1352 42.791 73.9588L16.4476 57.3067C12.6041 54.8771 7.56015 57.4392 7.25521 61.976L5.12755 93.6299C4.98432 95.7607 5.98451 97.8071 7.75382 99.0031Z" fill="#F4E4C3"/>
<ellipse cx="24.3665" cy="85.7743" rx="3.8223" ry="5.42351" transform="rotate(153.851 24.3665 85.7743)" fill="#34A46A"/>
<ellipse cx="33.6887" cy="103.391" rx="3.8223" ry="5.42351" transform="rotate(153.851 33.6887 103.391)" fill="#34A46A"/>
<ellipse cx="12.2317" cy="92.7154" rx="3.8223" ry="5.42351" transform="rotate(153.851 12.2317 92.7154)" fill="#34A46A"/>
<ellipse cx="36.7688" cy="81.5042" rx="3.8223" ry="5.42351" transform="rotate(153.851 36.7688 81.5042)" fill="#34A46A"/>
<ellipse cx="15.3137" cy="70.8313" rx="3.8223" ry="5.42351" transform="rotate(153.851 15.3137 70.8313)" fill="#34A46A"/>
<path d="M99.4081 107.05L55.2325 129.073C53.8499 129.762 52.2411 128.69 52.3447 127.149L55.7661 76.2482C55.8152 75.5175 56.2597 74.8721 56.9248 74.5657L100.984 54.2705C102.363 53.6356 103.918 54.707 103.816 56.2212L100.511 105.394C100.464 106.103 100.044 106.733 99.4081 107.05Z" fill="#34A46A"/>
<path d="M51.6935 68.969L10.5571 41.639C9.27031 40.784 9.39744 38.8551 10.7853 38.1764L56.5734 15.787C57.2532 15.4546 58.0624 15.5343 58.6642 15.9929L97.4515 45.5506C98.649 46.4631 98.4469 48.3216 97.0813 48.9554L53.6423 69.1172C53.0111 69.4102 52.2731 69.354 51.6935 68.969Z" fill="#34A46A"/>
<ellipse cx="25.87" cy="40.4542" rx="3.86684" ry="5.4867" transform="rotate(-86.9111 25.87 40.4542)" fill="#F4E4C3"/>
<ellipse cx="53.8436" cy="42.3345" rx="3.86684" ry="5.4867" transform="rotate(-86.9111 53.8436 42.3345)" fill="#F4E4C3"/>
<ellipse cx="81.8153" cy="44.2141" rx="3.86684" ry="5.4867" transform="rotate(-86.9111 81.8153 44.2141)" fill="#F4E4C3"/>
<ellipse cx="69.578" cy="105.85" rx="3.86684" ry="5.4867" transform="rotate(-140.824 69.578 105.85)" fill="#F4E4C3"/>
<ellipse cx="87.7782" cy="81.316" rx="3.86684" ry="5.4867" transform="rotate(-140.824 87.7782 81.316)" fill="#F4E4C3"/>
</svg>
