<svg width="210" height="262" viewBox="0 0 210 262" fill="none" xmlns="http://www.w3.org/2000/svg">
<path d="M4.67826 193.706L88.171 250.424C89.4489 251.292 91.1867 250.445 91.2903 248.903L98.2792 144.928C98.3283 144.198 97.9741 143.499 97.356 143.106L13.6258 89.9216C12.3448 89.1079 10.6597 89.9615 10.5579 91.4757L3.8066 191.918C3.75897 192.626 4.09074 193.307 4.67826 193.706Z" fill="#EA7D9C"/>
<path d="M12.4297 191.721L74.7783 233.869C78.6131 236.461 83.8146 233.918 84.125 229.3L89.3277 151.899C89.4753 149.702 88.4081 147.601 86.5471 146.425L24.0221 106.901C20.1786 104.472 15.1347 107.034 14.8297 111.571L9.80344 186.348C9.66021 188.479 10.6604 190.525 12.4297 191.721Z" fill="#F4E4C3"/>
<ellipse cx="47.6386" cy="167.702" rx="7.47319" ry="10.6038" transform="rotate(153.851 47.6386 167.702)" fill="#EA7D9C"/>
<ellipse cx="65.8661" cy="202.146" rx="7.47319" ry="10.6038" transform="rotate(153.851 65.8661 202.146)" fill="#EA7D9C"/>
<ellipse cx="23.914" cy="181.273" rx="7.47319" ry="10.6038" transform="rotate(153.851 23.914 181.273)" fill="#EA7D9C"/>
<ellipse cx="71.8886" cy="159.354" rx="7.47319" ry="10.6038" transform="rotate(153.851 71.8886 159.354)" fill="#EA7D9C"/>
<ellipse cx="29.9403" cy="138.486" rx="7.47319" ry="10.6038" transform="rotate(153.851 29.9403 138.486)" fill="#EA7D9C"/>
<path d="M195.338 208.81L105.006 253.844C103.623 254.533 102.015 253.461 102.118 251.92L109.107 147.945C109.156 147.214 109.601 146.569 110.266 146.263L200.36 104.762C201.739 104.127 203.294 105.198 203.193 106.713L196.441 207.155C196.394 207.863 195.974 208.493 195.338 208.81Z" fill="#EA7D9C"/>
<path d="M101.96 135.437L17.8657 79.5669C16.5789 78.712 16.706 76.783 18.0939 76.1043L111.669 30.348C112.349 30.0156 113.158 30.0953 113.76 30.5539L193.051 90.9776C194.249 91.8901 194.047 93.7486 192.681 94.3824L103.909 135.585C103.278 135.878 102.54 135.822 101.96 135.437Z" fill="#EA7D9C"/>
<ellipse cx="50.5787" cy="79.0942" rx="7.56027" ry="10.7274" transform="rotate(-86.9111 50.5787 79.0942)" fill="#F4E4C3"/>
<ellipse cx="105.272" cy="82.7707" rx="7.56027" ry="10.7274" transform="rotate(-86.9111 105.272 82.7707)" fill="#F4E4C3"/>
<ellipse cx="159.962" cy="86.4456" rx="7.56027" ry="10.7274" transform="rotate(-86.9111 159.962 86.4456)" fill="#F4E4C3"/>
<ellipse cx="136.035" cy="206.953" rx="7.56027" ry="10.7274" transform="rotate(-140.824 136.035 206.953)" fill="#F4E4C3"/>
<ellipse cx="171.619" cy="158.986" rx="7.56027" ry="10.7274" transform="rotate(-140.824 171.619 158.986)" fill="#F4E4C3"/>
</svg>
