<svg width="112" height="114" viewBox="0 0 112 114" fill="none" xmlns="http://www.w3.org/2000/svg">
<path d="M66.8097 30.0022C81.5296 35.7001 88.9175 52.4286 83.296 67.3725C77.6742 82.3166 61.1779 89.8005 46.4579 84.1025C31.7381 78.4044 24.3511 61.6756 29.9729 46.7316C35.5947 31.7879 52.0899 24.3045 66.8097 30.0022Z" fill="#F4E4C3" stroke="#E3562B"/>
<path d="M71.3981 16.4468C93.4604 24.8658 104.521 49.5758 96.1023 71.6381C87.6833 93.7006 62.9725 104.761 40.9101 96.342C18.8479 87.9228 7.78815 63.2124 16.2071 41.1501C24.6262 19.0881 49.3359 8.02816 71.3981 16.4468Z" fill="#F4E4C3" stroke="#E3562B"/>
<path d="M66.5982 30.5791C80.9744 36.144 88.2211 52.5003 82.7122 67.1445C77.2032 81.7888 61.0569 89.0899 46.6806 83.525C32.3044 77.96 25.0576 61.6037 30.5666 46.9595C36.0756 32.3154 52.2219 25.0142 66.5982 30.5791Z" fill="#F4E4C3" stroke="#E3562B" stroke-width="5"/>
<path d="M70.7645 17.5625C92.1008 25.8217 102.829 50.0816 94.6685 71.7739C86.508 93.4659 62.5751 104.308 41.2388 96.0491C19.9025 87.79 9.17438 63.5308 17.3344 41.8386C25.4948 20.1463 49.428 9.30339 70.7645 17.5625Z" fill="#F4E4C3" stroke="#E3562B" stroke-width="4"/>
<mask id="path-5-inside-1_251_324" fill="white">
<path d="M61.7514 13.1872C69.1347 14.189 76.1393 17.1024 82.0906 21.6468L73.6948 32.9605C69.6586 29.8785 64.908 27.9026 59.9005 27.2231L61.7514 13.1872Z"/>
</mask>
<path d="M61.7514 13.1872C69.1347 14.189 76.1393 17.1024 82.0906 21.6468L73.6948 32.9605C69.6586 29.8785 64.908 27.9026 59.9005 27.2231L61.7514 13.1872Z" fill="#F4E4C3" stroke="#E3562B" stroke-width="28" mask="url(#path-5-inside-1_251_324)"/>
<mask id="path-6-inside-2_251_324" fill="white">
<path d="M25.5084 25.5014C30.8072 20.1906 37.3649 16.3533 44.5498 14.359L48.2342 28.0178C43.3613 29.3704 38.9138 31.9729 35.32 35.5748L25.5084 25.5014Z"/>
</mask>
<path d="M25.5084 25.5014C30.8072 20.1906 37.3649 16.3533 44.5498 14.359L48.2342 28.0178C43.3613 29.3704 38.9138 31.9729 35.32 35.5748L25.5084 25.5014Z" fill="#F4E4C3" stroke="#E3562B" stroke-width="28" mask="url(#path-6-inside-2_251_324)"/>
<mask id="path-7-inside-3_251_324" fill="white">
<path d="M12.7106 59.7C12.2207 52.1602 13.6529 44.6193 16.8694 37.8038L29.461 43.9184C27.2795 48.5408 26.3082 53.6551 26.6404 58.7687L12.7106 59.7Z"/>
</mask>
<path d="M12.7106 59.7C12.2207 52.1602 13.6529 44.6193 16.8694 37.8038L29.461 43.9184C27.2795 48.5408 26.3082 53.6551 26.6404 58.7687L12.7106 59.7Z" fill="#F4E4C3" stroke="#E3562B" stroke-width="28" mask="url(#path-7-inside-3_251_324)"/>
<mask id="path-8-inside-4_251_324" fill="white">
<path d="M28.4325 90.786C22.6807 85.9845 18.2446 79.7615 15.5514 72.7164L28.5671 67.5966C30.3936 72.3746 33.4023 76.5951 37.3032 79.8516L28.4325 90.786Z"/>
</mask>
<path d="M28.4325 90.786C22.6807 85.9845 18.2446 79.7615 15.5514 72.7164L28.5671 67.5966C30.3936 72.3746 33.4023 76.5951 37.3032 79.8516L28.4325 90.786Z" fill="#F4E4C3" stroke="#E3562B" stroke-width="28" mask="url(#path-8-inside-4_251_324)"/>
<mask id="path-9-inside-5_251_324" fill="white">
<path d="M93.4406 34.576C97.2034 41.0974 99.2475 48.4916 99.376 56.0467L85.418 56.291C85.3308 51.167 83.9445 46.1521 81.3925 41.7293L93.4406 34.576Z"/>
</mask>
<path d="M93.4406 34.576C97.2034 41.0974 99.2475 48.4916 99.376 56.0467L85.418 56.291C85.3308 51.167 83.9445 46.1521 81.3925 41.7293L93.4406 34.576Z" fill="#F4E4C3" stroke="#E3562B" stroke-width="28" mask="url(#path-9-inside-5_251_324)"/>
<mask id="path-10-inside-6_251_324" fill="white">
<path d="M67.2418 99.3096C60.0472 101.268 52.4768 101.314 45.2596 99.443L48.7156 85.7229C53.6104 86.9916 58.7447 86.9604 63.6242 85.6324L67.2418 99.3096Z"/>
</mask>
<path d="M67.2418 99.3096C60.0472 101.268 52.4768 101.314 45.2596 99.443L48.7156 85.7229C53.6104 86.9916 58.7447 86.9604 63.6242 85.6324L67.2418 99.3096Z" fill="#F4E4C3" stroke="#E3562B" stroke-width="28" mask="url(#path-10-inside-6_251_324)"/>
<mask id="path-11-inside-7_251_324" fill="white">
<path d="M95.7955 74.3273C92.8297 81.2588 88.1543 87.2988 82.2197 91.8657L73.7824 80.5839C77.8073 77.4865 80.9782 73.3901 82.9897 68.6891L95.7955 74.3273Z"/>
</mask>
<path d="M95.7955 74.3273C92.8297 81.2588 88.1543 87.2988 82.2197 91.8657L73.7824 80.5839C77.8073 77.4865 80.9782 73.3901 82.9897 68.6891L95.7955 74.3273Z" fill="#F4E4C3" stroke="#E3562B" stroke-width="28" mask="url(#path-11-inside-7_251_324)"/>
<path d="M65.9156 31.3965C79.5911 36.6903 86.502 52.2599 81.2512 66.2178C76.0004 80.1756 60.6213 87.1169 46.9457 81.8234C33.27 76.5296 26.3583 60.9598 31.6092 47.0018C36.86 33.0438 52.2399 26.1028 65.9156 31.3965Z" stroke="#E3562B" stroke-width="7"/>
</svg>
