<svg width="87" height="89" viewBox="0 0 87 89" fill="none" xmlns="http://www.w3.org/2000/svg">
<path d="M51.8323 23.3978C63.2023 27.799 68.9102 40.7217 64.5667 52.2676C60.2232 63.8132 47.4799 69.5928 36.11 65.1916C24.74 60.7904 19.032 47.8685 23.3752 36.3227C27.7186 24.7769 40.4623 18.9965 51.8323 23.3978Z" fill="#F4E4C3" stroke="#E3562B"/>
<path d="M55.3945 12.8732C72.4659 19.3879 81.0235 38.5083 74.5091 55.5799C67.9944 72.6512 48.8748 81.2091 31.8033 74.6948C14.7318 68.1803 6.17318 49.0603 12.6875 31.9888C19.202 14.9171 38.3228 6.3587 55.3945 12.8732Z" fill="#F4E4C3" stroke="#E3562B"/>
<path d="M51.5096 24.2641C62.3783 28.4712 67.8671 40.8432 63.6966 51.9293C59.526 63.0153 47.3078 68.5321 36.4392 64.325C25.5708 60.1177 20.0825 47.747 24.2527 36.661C28.4232 25.5749 40.641 20.0571 51.5096 24.2641Z" fill="#F4E4C3" stroke="#E3562B" stroke-width="5"/>
<path d="M54.7831 14.0534C71.1143 20.3751 79.3334 38.9485 73.0831 55.5635C66.8326 72.1783 48.5053 80.475 32.1743 74.1534C15.8435 67.8317 7.62491 49.2594 13.8749 32.6446C20.1252 16.0297 38.4521 7.73208 54.7831 14.0534Z" fill="#F4E4C3" stroke="#E3562B" stroke-width="4"/>
<mask id="path-5-inside-1_251_294" fill="white">
<path d="M47.9439 10.2378C53.6762 11.0156 59.1146 13.2776 63.7353 16.8059L57.2168 25.5899C54.083 23.1969 50.3946 21.6628 46.5068 21.1353L47.9439 10.2378Z"/>
</mask>
<path d="M47.9439 10.2378C53.6762 11.0156 59.1146 13.2776 63.7353 16.8059L57.2168 25.5899C54.083 23.1969 50.3946 21.6628 46.5068 21.1353L47.9439 10.2378Z" fill="#F4E4C3" stroke="#E3562B" stroke-width="28" mask="url(#path-5-inside-1_251_294)"/>
<mask id="path-6-inside-2_251_294" fill="white">
<path d="M19.8047 19.7986C23.9187 15.6752 29.0101 12.6959 34.5885 11.1476L37.4491 21.7524C33.6658 22.8025 30.2127 24.8231 27.4225 27.6196L19.8047 19.7986Z"/>
</mask>
<path d="M19.8047 19.7986C23.9187 15.6752 29.0101 12.6959 34.5885 11.1476L37.4491 21.7524C33.6658 22.8025 30.2127 24.8231 27.4225 27.6196L19.8047 19.7986Z" fill="#F4E4C3" stroke="#E3562B" stroke-width="28" mask="url(#path-6-inside-2_251_294)"/>
<mask id="path-7-inside-3_251_294" fill="white">
<path d="M9.86848 46.3505C9.48811 40.4965 10.6001 34.6418 13.0974 29.3502L22.8735 34.0976C21.1798 37.6864 20.4257 41.6571 20.6836 45.6274L9.86848 46.3505Z"/>
</mask>
<path d="M9.86848 46.3505C9.48811 40.4965 10.6001 34.6418 13.0974 29.3502L22.8735 34.0976C21.1798 37.6864 20.4257 41.6571 20.6836 45.6274L9.86848 46.3505Z" fill="#F4E4C3" stroke="#E3562B" stroke-width="28" mask="url(#path-7-inside-3_251_294)"/>
<mask id="path-8-inside-4_251_294" fill="white">
<path d="M22.075 70.4857C17.6093 66.7578 14.1651 61.9262 12.0741 56.4564L22.1795 52.4814C23.5976 56.1911 25.9335 59.4679 28.9622 61.9962L22.075 70.4857Z"/>
</mask>
<path d="M22.075 70.4857C17.6093 66.7578 14.1651 61.9262 12.0741 56.4564L22.1795 52.4814C23.5976 56.1911 25.9335 59.4679 28.9622 61.9962L22.075 70.4857Z" fill="#F4E4C3" stroke="#E3562B" stroke-width="28" mask="url(#path-8-inside-4_251_294)"/>
<mask id="path-9-inside-5_251_294" fill="white">
<path d="M72.5474 26.8442C75.4689 31.9073 77.0559 37.6482 77.1557 43.514L66.3186 43.7037C66.251 39.7254 65.1747 35.8319 63.1933 32.398L72.5474 26.8442Z"/>
</mask>
<path d="M72.5474 26.8442C75.4689 31.9073 77.0559 37.6482 77.1557 43.514L66.3186 43.7037C66.251 39.7254 65.1747 35.8319 63.1933 32.398L72.5474 26.8442Z" fill="#F4E4C3" stroke="#E3562B" stroke-width="28" mask="url(#path-9-inside-5_251_294)"/>
<mask id="path-10-inside-6_251_294" fill="white">
<path d="M52.2066 77.1034C46.6207 78.6237 40.743 78.6594 35.1396 77.207L37.8228 66.5547C41.6232 67.5397 45.6095 67.5155 49.3979 66.4844L52.2066 77.1034Z"/>
</mask>
<path d="M52.2066 77.1034C46.6207 78.6237 40.743 78.6594 35.1396 77.207L37.8228 66.5547C41.6232 67.5397 45.6095 67.5155 49.3979 66.4844L52.2066 77.1034Z" fill="#F4E4C3" stroke="#E3562B" stroke-width="28" mask="url(#path-10-inside-6_251_294)"/>
<mask id="path-11-inside-7_251_294" fill="white">
<path d="M74.3758 57.7071C72.0731 63.0887 68.4431 67.7782 63.8355 71.324L57.2848 62.5647C60.4097 60.1599 62.8716 56.9795 64.4333 53.3296L74.3758 57.7071Z"/>
</mask>
<path d="M74.3758 57.7071C72.0731 63.0887 68.4431 67.7782 63.8355 71.324L57.2848 62.5647C60.4097 60.1599 62.8716 56.9795 64.4333 53.3296L74.3758 57.7071Z" fill="#F4E4C3" stroke="#E3562B" stroke-width="28" mask="url(#path-11-inside-7_251_294)"/>
<path d="M50.901 25.1081C61.1084 29.0593 66.2808 40.6889 62.3535 51.1288C58.426 61.5684 46.9313 66.7455 36.7239 62.7943C26.5167 58.8431 21.344 47.2142 25.2711 36.7745C29.1984 26.3347 40.6936 21.157 50.901 25.1081Z" stroke="#E3562B" stroke-width="7"/>
</svg>
