<svg width="101" height="103" viewBox="0 0 101 103" fill="none" xmlns="http://www.w3.org/2000/svg">
<path d="M60.2053 27.0893C73.4481 32.2155 80.0954 47.2659 75.0374 60.7115C69.9793 74.157 55.1377 80.8893 41.8949 75.7631C28.6523 70.6368 22.0057 55.5868 27.0637 42.1413C32.1217 28.6958 46.9626 21.9634 60.2053 27.0893Z" fill="#F4E4C3" stroke="#E3562B"/>
<path d="M64.3416 14.8707C84.2032 22.45 94.1603 44.6955 86.5811 64.5571C79.0018 84.4186 56.7563 94.3757 36.8947 86.7966C17.0331 79.2174 7.07616 56.9719 14.6553 37.1102C22.2345 17.2485 44.4799 7.29151 64.3416 14.8707Z" fill="#F4E4C3" stroke="#E3562B"/>
<path d="M59.9442 27.7941C72.7738 32.7603 79.2452 47.3595 74.3265 60.4347C69.4077 73.51 54.9936 80.0246 42.164 75.0584C29.3344 70.0922 22.863 55.493 27.7818 42.4177C32.7005 29.3425 47.1147 22.8279 59.9442 27.7941Z" fill="#F4E4C3" stroke="#E3562B" stroke-width="5"/>
<path d="M63.7175 16.0151C82.8465 23.42 92.4676 45.1714 85.1498 64.6246C77.8317 84.078 56.371 93.7988 37.2418 86.3942C18.1125 78.9895 8.49086 57.2369 15.809 37.7835C23.1272 18.3302 44.5883 8.61037 63.7175 16.0151Z" fill="#F4E4C3" stroke="#E3562B" stroke-width="4"/>
<mask id="path-5-inside-1_251_235" fill="white">
<path d="M55.6622 11.8863C62.3175 12.7893 68.6314 15.4155 73.996 19.5118L66.428 29.71C62.7897 26.9318 58.5075 25.1507 53.9938 24.5383L55.6622 11.8863Z"/>
</mask>
<path d="M55.6622 11.8863C62.3175 12.7893 68.6314 15.4155 73.996 19.5118L66.428 29.71C62.7897 26.9318 58.5075 25.1507 53.9938 24.5383L55.6622 11.8863Z" fill="#F4E4C3" stroke="#E3562B" stroke-width="28" mask="url(#path-5-inside-1_251_235)"/>
<mask id="path-6-inside-2_251_235" fill="white">
<path d="M22.9926 22.9863C27.769 18.1991 33.6801 14.7402 40.1567 12.9426L43.4778 25.2547C39.0853 26.4738 35.0763 28.8198 31.8369 32.0665L22.9926 22.9863Z"/>
</mask>
<path d="M22.9926 22.9863C27.769 18.1991 33.6801 14.7402 40.1567 12.9426L43.4778 25.2547C39.0853 26.4738 35.0763 28.8198 31.8369 32.0665L22.9926 22.9863Z" fill="#F4E4C3" stroke="#E3562B" stroke-width="28" mask="url(#path-6-inside-2_251_235)"/>
<mask id="path-7-inside-3_251_235" fill="white">
<path d="M11.4567 53.8131C11.0151 47.0166 12.3061 40.2193 15.2054 34.0758L26.5555 39.5875C24.5892 43.7541 23.7136 48.3641 24.0131 52.9735L11.4567 53.8131Z"/>
</mask>
<path d="M11.4567 53.8131C11.0151 47.0166 12.3061 40.2193 15.2054 34.0758L26.5555 39.5875C24.5892 43.7541 23.7136 48.3641 24.0131 52.9735L11.4567 53.8131Z" fill="#F4E4C3" stroke="#E3562B" stroke-width="28" mask="url(#path-7-inside-3_251_235)"/>
<mask id="path-8-inside-4_251_235" fill="white">
<path d="M25.6284 81.834C20.4437 77.5059 16.445 71.8965 14.0174 65.5461L25.7498 60.931C27.3962 65.238 30.1082 69.0423 33.6245 71.9777L25.6284 81.834Z"/>
</mask>
<path d="M25.6284 81.834C20.4437 77.5059 16.445 71.8965 14.0174 65.5461L25.7498 60.931C27.3962 65.238 30.1082 69.0423 33.6245 71.9777L25.6284 81.834Z" fill="#F4E4C3" stroke="#E3562B" stroke-width="28" mask="url(#path-8-inside-4_251_235)"/>
<mask id="path-9-inside-5_251_235" fill="white">
<path d="M84.2269 31.1662C87.6187 37.0446 89.4612 43.7098 89.5771 50.52L76.9953 50.7401C76.9167 46.1214 75.6671 41.601 73.3667 37.6142L84.2269 31.1662Z"/>
</mask>
<path d="M84.2269 31.1662C87.6187 37.0446 89.4612 43.7098 89.5771 50.52L76.9953 50.7401C76.9167 46.1214 75.6671 41.601 73.3667 37.6142L84.2269 31.1662Z" fill="#F4E4C3" stroke="#E3562B" stroke-width="28" mask="url(#path-9-inside-5_251_235)"/>
<mask id="path-10-inside-6_251_235" fill="white">
<path d="M60.6112 89.5172C54.126 91.2822 47.302 91.3237 40.7965 89.6375L43.9117 77.2701C48.3238 78.4137 52.952 78.3856 57.3503 77.1885L60.6112 89.5172Z"/>
</mask>
<path d="M60.6112 89.5172C54.126 91.2822 47.302 91.3237 40.7965 89.6375L43.9117 77.2701C48.3238 78.4137 52.952 78.3856 57.3503 77.1885L60.6112 89.5172Z" fill="#F4E4C3" stroke="#E3562B" stroke-width="28" mask="url(#path-10-inside-6_251_235)"/>
<mask id="path-11-inside-7_251_235" fill="white">
<path d="M86.3496 66.9981C83.6762 73.2462 79.4618 78.6907 74.1124 82.8073L66.507 72.6378C70.135 69.8458 72.9932 66.1533 74.8064 61.9158L86.3496 66.9981Z"/>
</mask>
<path d="M86.3496 66.9981C83.6762 73.2462 79.4618 78.6907 74.1124 82.8073L66.507 72.6378C70.135 69.8458 72.9932 66.1533 74.8064 61.9158L86.3496 66.9981Z" fill="#F4E4C3" stroke="#E3562B" stroke-width="28" mask="url(#path-11-inside-7_251_235)"/>
<path d="M59.2936 28.6225C71.4399 33.3243 77.5845 47.1567 72.9173 59.5633C68.25 71.9698 54.5832 78.1335 42.437 73.4318C30.2907 68.7301 24.1462 54.8976 28.8133 42.491C33.4805 30.0844 47.1473 23.9208 59.2936 28.6225Z" stroke="#E3562B" stroke-width="7"/>
</svg>
