<svg width="778" height="732" viewBox="0 0 778 732" fill="none" xmlns="http://www.w3.org/2000/svg">
<path d="M668.75 584.162C672.975 568.968 683.774 557.319 686.592 538.58H751.865C753.743 555.8 766.422 571.501 769.708 584.162C772.995 596.824 777.219 711.286 769.708 716.351C762.197 721.415 739.534 727.958 719.464 727.999C699.215 728.041 673.918 719.896 668.75 716.351C663.582 712.805 664.525 599.356 668.75 584.162Z" fill="#2CA66C" stroke="#2CA66C" stroke-width="7"/>
<path d="M681.805 534.735C683.196 531 682.82 524.578 682.82 524.578L756.395 523.054C756.395 523.054 755.519 529.039 756.395 532.703C757.661 538 760.455 540.829 764.006 544.384C767.557 547.939 753.883 542.702 747.769 544.384C742.554 545.819 740.989 551.32 735.591 550.987C732.396 550.789 731.18 548.009 727.98 547.939C724.594 547.866 723.245 550.861 719.861 550.987C716.104 551.126 714.485 547.8 710.727 547.939C707.344 548.065 705.993 550.866 702.609 550.987C697.204 551.179 690.431 544.384 690.431 544.384C690.431 544.384 686.096 547.788 682.82 547.939C679.18 548.107 669.626 547.939 674.193 544.384C678.761 540.829 680.129 539.233 681.805 534.735Z" fill="#EA7D9C" stroke="#EA7D9C" stroke-linecap="round"/>
<path d="M719.561 498.712C729.333 498.712 742.369 499.413 751.292 499.978C756.761 500.324 760.981 504.877 760.981 510.365V516.712C760.981 522.511 756.28 527.212 750.481 527.212H688.64C682.841 527.212 678.14 522.511 678.14 516.712V510.365C678.14 504.877 682.36 500.324 687.829 499.978C696.752 499.413 709.788 498.712 719.561 498.712Z" fill="#EA7D9C" stroke="#EA7D9C"/>
<path d="M668.75 85.9504C672.975 70.7563 683.774 59.1075 686.592 40.3682L751.865 40.3682C753.743 57.5881 766.422 73.2886 769.708 85.9504C772.995 98.6121 777.219 213.074 769.708 218.139C762.197 223.203 739.534 229.746 719.464 229.788C699.215 229.829 673.918 221.684 668.75 218.139C663.582 214.593 664.525 101.144 668.75 85.9504Z" fill="#2CA66C" stroke="#2CA66C" stroke-width="7"/>
<path d="M681.805 36.5228C683.196 32.7876 682.82 26.3655 682.82 26.3655L756.395 24.8419C756.395 24.8419 755.519 30.8265 756.395 34.4914C757.661 39.7879 760.455 42.6172 764.006 46.1723C767.557 49.7273 753.883 44.4897 747.769 46.1723C742.554 47.6074 740.989 53.1082 735.591 52.7745C732.396 52.577 731.18 49.797 727.98 49.7273C724.594 49.6537 723.245 52.6491 719.861 52.7745C716.104 52.9138 714.485 49.588 710.727 49.7273C707.344 49.8528 705.993 52.6539 702.609 52.7745C697.204 52.9672 690.431 46.1723 690.431 46.1723C690.431 46.1723 686.096 49.5763 682.82 49.7273C679.18 49.8951 669.626 49.7273 674.193 46.1723C678.761 42.6172 680.129 41.0214 681.805 36.5228Z" fill="#EA7D9C" stroke="#EA7D9C" stroke-linecap="round"/>
<path d="M719.561 0.5C729.333 0.500009 742.369 1.20059 751.292 1.76563C756.761 2.11201 760.981 6.66506 760.981 12.1523V18.5C760.981 24.2988 756.28 28.9998 750.481 29L688.64 29C682.841 29 678.14 24.2989 678.14 18.5V12.1523C678.14 6.66502 682.36 2.11194 687.829 1.76563C696.752 1.20059 709.788 0.5 719.561 0.5Z" fill="#EA7D9C" stroke="#EA7D9C"/>
<path d="M108.652 335.056C104.427 319.862 93.6281 308.214 90.8107 289.474H25.5378C23.6591 306.694 10.9807 322.395 7.69408 335.056C4.40748 347.718 0.183197 462.18 7.69408 467.245C15.2049 472.31 37.8686 478.852 57.9383 478.894C78.1874 478.935 103.484 470.79 108.652 467.245C113.821 463.7 112.877 350.251 108.652 335.056Z" fill="#2CA66C" stroke="#2CA66C" stroke-width="7"/>
<path d="M95.5967 285.629C94.2052 281.894 94.5818 275.472 94.5818 275.472L21.0064 273.948C21.0064 273.948 21.8826 279.933 21.0064 283.597C19.74 288.894 16.946 291.723 13.3951 295.278C9.84423 298.833 23.5183 293.596 29.6324 295.278C34.8476 296.714 36.4121 302.214 41.8105 301.881C45.0057 301.683 46.2211 298.903 49.4217 298.833C52.8071 298.76 54.1566 301.755 57.5404 301.881C61.2976 302.02 62.9167 298.694 66.6739 298.833C70.0577 298.959 71.4086 301.76 74.7926 301.881C80.1978 302.073 86.9706 295.278 86.9706 295.278C86.9706 295.278 91.3052 298.682 94.5818 298.833C98.2211 299.001 107.776 298.833 103.208 295.278C98.6403 291.723 97.2726 290.128 95.5967 285.629Z" fill="#EA7D9C" stroke="#EA7D9C" stroke-linecap="round"/>
<path d="M57.8418 249.606C48.0696 249.606 35.0331 250.307 26.1104 250.872C20.6415 251.218 16.4209 255.771 16.4209 261.258V267.606C16.421 273.405 21.1222 278.106 26.9209 278.106H88.7627C94.5616 278.106 99.2626 273.405 99.2627 267.606V261.258C99.2627 255.771 95.0421 251.218 89.5732 250.872C80.6505 250.307 67.6139 249.606 57.8418 249.606Z" fill="#EA7D9C" stroke="#EA7D9C"/>
</svg>
