<svg width="307" height="126" viewBox="0 0 307 126" fill="none" xmlns="http://www.w3.org/2000/svg">
<path d="M35.4817 62.5046C29.7345 61.7666 26.8519 57.348 26.8266 51.5908C26.8066 47.3235 26.8017 43.0551 26.8116 38.7857C26.8116 38.7353 26.836 38.7101 26.8848 38.7101H35.6206C35.6606 38.7101 35.6989 38.7264 35.7272 38.7553C35.7555 38.7843 35.7714 38.8235 35.7714 38.8645C35.7704 42.4576 35.7684 46.0601 35.7654 49.6717C35.7625 51.512 36.2404 53.4234 38.3314 53.7013C40.6359 54.0054 41.4111 52.2408 41.5664 50.1627C41.7048 48.3141 41.7068 46.4645 41.5724 44.6139C41.3692 41.8133 40.0654 39.5716 38.4464 37.4086C36.3843 34.6543 34.3122 31.9077 32.2302 29.1688C29.3372 25.3601 27.5689 21.278 27.3553 16.4086C27.0909 10.3704 26.9505 3.09712 33.6521 0.745774C34.7523 0.359801 35.9556 0.131819 37.262 0.0618292C39.4744 -0.0575652 41.3663 -0.00404342 42.9375 0.222394C48.3456 1.0036 50.3246 4.88186 50.3574 10.1496C50.3793 13.6543 50.3803 17.1599 50.3604 20.6666C50.3604 20.7171 50.336 20.7423 50.2872 20.7423L41.8188 20.7701C41.7788 20.7701 41.7404 20.7536 41.7121 20.7244C41.6838 20.6951 41.6679 20.6555 41.6679 20.6141C41.6689 17.8248 41.6714 15.018 41.6754 12.1937C41.6784 10.5727 41.5261 8.57949 39.5426 8.33555C37.1768 8.0453 36.5436 9.67565 36.4913 11.7985C36.4614 12.9852 36.4893 14.1715 36.575 15.3572C36.7661 17.9864 37.9445 20.0861 39.4545 22.1302C41.6998 25.1707 43.9541 28.2039 46.2173 31.2299C48.7041 34.557 50.5546 37.8934 51.0415 42.1422C51.3417 44.7637 51.3312 47.6616 51.1654 50.4143C50.7905 56.6517 47.8871 61.904 41.3304 62.5478C39.2474 62.7526 37.2978 62.7382 35.4817 62.5046Z" fill="#E3562B"/>
<path d="M24.1596 55.0715C24.2084 57.3554 24.2164 59.5997 24.1835 61.8044C24.1805 61.9495 24.1094 62.0221 23.97 62.0221H15.3089C15.2693 62.0221 15.2313 62.0058 15.2033 61.9769C15.1753 61.9479 15.1595 61.9086 15.1595 61.8677V35.197C15.1595 35.156 15.1438 35.1167 15.1158 35.0878C15.0878 35.0588 15.0498 35.0426 15.0102 35.0426H9.14798C9.10798 35.0426 9.06961 35.0588 9.04132 35.0878C9.01303 35.1167 8.99714 35.156 8.99714 35.197L9.00012 61.8291C9.00012 61.9578 8.93789 62.0221 8.81343 62.0221L0.0926004 62.019C0.0308671 62.019 0 61.9871 0 61.9233V0.690964C0 0.639501 0.0248925 0.61377 0.0746774 0.61377H8.94187C8.95653 0.61377 8.97059 0.619788 8.98095 0.6305C8.99131 0.641213 8.99714 0.655744 8.99714 0.670894L9.0046 25.069C9.0046 25.0863 9.00793 25.1033 9.01438 25.1192C9.02084 25.1352 9.0303 25.1496 9.04222 25.1618C9.05415 25.174 9.06831 25.1837 9.08389 25.1903C9.09948 25.1969 9.11618 25.2003 9.13305 25.2003H15.0102C15.0498 25.2003 15.0878 25.184 15.1158 25.155C15.1438 25.1261 15.1595 25.0868 15.1595 25.0459V0.711034C15.1595 0.646191 15.1904 0.61377 15.2521 0.61377H24.0805C24.111 0.61377 24.1402 0.626294 24.1618 0.648588C24.1834 0.670882 24.1955 0.70112 24.1955 0.732649C24.1955 18.7684 24.1955 36.818 24.1955 54.8816C24.1955 54.9084 24.1905 54.9331 24.1805 54.9557C24.1656 54.9928 24.1586 55.0313 24.1596 55.0715Z" fill="#E3562B"/>
<path d="M62.9238 25.5862L71.7611 25.5909C71.7829 25.5909 71.8038 25.5998 71.8192 25.6157C71.8346 25.6317 71.8433 25.6533 71.8433 25.6758L71.8388 34.8805C71.8388 34.903 71.8301 34.9246 71.8147 34.9405C71.7993 34.9564 71.7784 34.9654 71.7566 34.9654H62.9238C62.902 34.9654 62.8811 34.9743 62.8657 34.9902C62.8503 35.0062 62.8416 35.0278 62.8416 35.0503L62.8401 52.558C62.8401 52.5806 62.8488 52.6021 62.8642 52.6181C62.8796 52.634 62.9005 52.6429 62.9223 52.6429H74.7079C74.7297 52.6429 74.7506 52.6519 74.766 52.6678C74.7814 52.6837 74.79 52.7053 74.79 52.7279V61.9372C74.79 61.9597 74.7814 61.9813 74.766 61.9972C74.7506 62.0131 74.7297 62.0221 74.7079 62.0221H53.8878C53.866 62.0221 53.8451 62.0131 53.8297 61.9972C53.8143 61.9813 53.8057 61.9597 53.8057 61.9372V0.698684C53.8057 0.676163 53.8143 0.654565 53.8297 0.638641C53.8451 0.622716 53.866 0.61377 53.8878 0.61377H74.2598C74.2816 0.61377 74.3025 0.622716 74.3179 0.638641C74.3333 0.654565 74.342 0.676163 74.342 0.698684V9.44483C74.342 9.46735 74.3333 9.48895 74.3179 9.50488C74.3025 9.5208 74.2816 9.52975 74.2598 9.52975H62.9238C62.902 9.52975 62.8811 9.5387 62.8657 9.55462C62.8503 9.57054 62.8416 9.59214 62.8416 9.61466V25.5013C62.8416 25.5125 62.8438 25.5235 62.8479 25.5338C62.852 25.5441 62.8581 25.5535 62.8657 25.5614C62.8733 25.5692 62.8824 25.5755 62.8923 25.5798C62.9023 25.584 62.913 25.5862 62.9238 25.5862Z" fill="#E3562B"/>
<path d="M92.5861 50.5942L91.4122 61.9094C91.4089 61.9405 91.3945 61.9692 91.3719 61.9901C91.3493 62.0109 91.32 62.0223 91.2897 62.0221H83.4486C83.4312 62.0222 83.4139 62.0185 83.398 62.0112C83.3821 62.0039 83.3678 61.9932 83.3562 61.9797C83.3446 61.9663 83.336 61.9504 83.3308 61.9333C83.3256 61.9161 83.324 61.8979 83.3261 61.8801L90.5668 0.724934C90.5705 0.694099 90.585 0.665734 90.6076 0.645237C90.6302 0.62474 90.6593 0.613541 90.6893 0.613773H101.193C101.223 0.61387 101.252 0.625021 101.274 0.645169C101.296 0.665316 101.31 0.6931 101.314 0.723389L109.027 61.8785C109.029 61.8964 109.028 61.9146 109.023 61.9318C109.018 61.9491 109.01 61.9651 108.998 61.9786C108.987 61.9922 108.972 62.0032 108.957 62.0106C108.941 62.0181 108.924 62.022 108.906 62.0221H100.43C100.4 62.0223 100.371 62.0109 100.348 61.9901C100.325 61.9692 100.311 61.9405 100.308 61.9094L99.1338 50.5911C99.1305 50.56 99.1161 50.5313 99.0935 50.5105C99.0709 50.4896 99.0416 50.4782 99.0114 50.4784L92.7086 50.4815C92.6783 50.4813 92.649 50.4927 92.6264 50.5135C92.6038 50.5344 92.5894 50.5631 92.5861 50.5942ZM93.4942 41.2027C93.4936 41.2096 93.4943 41.2165 93.4965 41.223C93.4986 41.2296 93.502 41.2356 93.5065 41.2407C93.511 41.2458 93.5165 41.2498 93.5226 41.2526C93.5287 41.2554 93.5353 41.2568 93.542 41.2567L98.1003 41.2598C98.107 41.2599 98.1136 41.2584 98.1197 41.2557C98.1258 41.2529 98.1313 41.2489 98.1358 41.2438C98.1403 41.2387 98.1437 41.2327 98.1458 41.2261C98.1479 41.2196 98.1487 41.2127 98.1481 41.2058L95.8256 19.1451C95.8236 19.1337 95.8178 19.1234 95.8092 19.1159C95.8006 19.1085 95.7898 19.1044 95.7786 19.1044C95.7674 19.1044 95.7565 19.1085 95.7479 19.1159C95.7393 19.1234 95.7335 19.1337 95.7315 19.1451L93.4942 41.2027Z" fill="#E3562B"/>
<path d="M119.579 34.6386C119.517 34.6417 119.485 34.6756 119.485 34.7405V61.8481C119.485 61.894 119.468 61.938 119.436 61.9704C119.405 62.0028 119.362 62.0211 119.318 62.0211L110.599 62.0242C110.559 62.0242 110.521 62.0077 110.493 61.9785C110.465 61.9492 110.449 61.9096 110.449 61.8682V0.765586C110.449 0.725458 110.465 0.686973 110.492 0.658599C110.52 0.630224 110.557 0.614284 110.596 0.614284C115.582 0.613255 120.586 0.61377 125.609 0.615828C132 0.618916 134.167 4.54812 134.109 10.594C134.074 14.2144 134.113 17.8349 134.07 21.4553C134.032 24.5029 133.021 27.3792 130.295 28.7919C130.289 28.7953 130.284 28.8006 130.28 28.807C130.276 28.8135 130.274 28.8208 130.274 28.8283C130.274 28.8357 130.276 28.8429 130.28 28.849C130.284 28.8551 130.289 28.8599 130.295 28.8629C132.658 29.9693 133.906 31.8863 134.038 34.6139C134.066 35.182 134.082 35.7528 134.085 36.3261C134.113 41.7811 134.124 47.2362 134.119 52.6913C134.116 55.6788 133.747 58.8159 135.002 61.6243C135.021 61.667 135.029 61.7141 135.026 61.761C135.023 61.808 135.008 61.8534 134.984 61.893C134.959 61.9327 134.925 61.9653 134.885 61.9879C134.846 62.0106 134.801 62.0225 134.755 62.0226H126.2C126.134 62.0225 126.069 62.0027 126.014 61.9654C125.958 61.9281 125.915 61.875 125.888 61.8126C125.442 60.77 125.212 59.6466 125.2 58.4423C125.127 51.5689 125.104 44.6955 125.132 37.8221C125.14 35.8444 124.403 34.8115 122.489 34.6695C121.508 34.5974 120.538 34.5871 119.579 34.6386ZM122.619 25.772C124.981 25.4895 125.214 22.7383 125.162 20.8501C125.087 18.1529 125.123 15.4511 125.125 12.7524C125.125 10.8904 124.753 9.16436 122.666 9.01615C121.638 8.94204 120.621 8.92454 119.615 8.96366C119.58 8.96486 119.547 8.98003 119.523 9.00595C119.499 9.03188 119.485 9.06654 119.485 9.10261V25.7025C119.485 25.7254 119.49 25.748 119.498 25.7689C119.507 25.7899 119.52 25.8088 119.536 25.8244C119.552 25.8401 119.571 25.8521 119.592 25.8598C119.613 25.8675 119.635 25.8708 119.657 25.8693C120.665 25.7983 121.654 25.8878 122.619 25.772Z" fill="#E3562B"/>
<path d="M152.167 62.0221H143.483C143.465 62.0221 143.447 62.0184 143.43 62.0112C143.413 62.0039 143.398 61.9934 143.385 61.98C143.372 61.9667 143.362 61.9509 143.355 61.9335C143.348 61.916 143.344 61.8974 143.344 61.8785V9.67333C143.344 9.63525 143.33 9.59873 143.304 9.5718C143.278 9.54488 143.242 9.52975 143.206 9.52975H135.904C135.867 9.52975 135.831 9.51462 135.805 9.48769C135.779 9.46077 135.765 9.42425 135.765 9.38617V0.757352C135.765 0.738496 135.768 0.719825 135.775 0.702405C135.782 0.684985 135.792 0.669157 135.805 0.655824C135.818 0.642491 135.834 0.631915 135.85 0.624699C135.867 0.617484 135.885 0.61377 135.904 0.61377H159.747C159.765 0.61377 159.783 0.617484 159.8 0.624699C159.817 0.631915 159.832 0.642491 159.845 0.655824C159.858 0.669157 159.868 0.684985 159.875 0.702405C159.882 0.719825 159.885 0.738496 159.885 0.757352V9.38617C159.885 9.42425 159.871 9.46077 159.845 9.48769C159.819 9.51462 159.783 9.52975 159.747 9.52975H152.445C152.426 9.52975 152.408 9.53346 152.391 9.54068C152.375 9.54789 152.359 9.55847 152.346 9.5718C152.333 9.58514 152.323 9.60096 152.316 9.61838C152.309 9.6358 152.306 9.65448 152.306 9.67333V61.8785C152.306 61.9166 152.291 61.9531 152.265 61.98C152.239 62.007 152.204 62.0221 152.167 62.0221Z" fill="#E3562B"/>
<path d="M184.042 50.4769L177.69 50.48C177.666 50.4802 177.643 50.4894 177.626 50.5059C177.608 50.5224 177.597 50.5451 177.594 50.5695L176.416 61.9325C176.413 61.957 176.402 61.9796 176.385 61.9961C176.367 62.0126 176.344 62.0219 176.32 62.0221H168.425C168.412 62.022 168.398 62.0189 168.386 62.013C168.373 62.0071 168.362 61.9985 168.353 61.9879C168.344 61.9773 168.337 61.9648 168.333 61.9512C168.329 61.9377 168.328 61.9234 168.33 61.9094L175.575 0.701774C175.578 0.677353 175.589 0.654896 175.607 0.638671C175.625 0.622446 175.648 0.613585 175.672 0.613772H186.224C186.248 0.613962 186.27 0.622992 186.288 0.639182C186.305 0.655372 186.317 0.677617 186.32 0.701774L194.038 61.9109C194.04 61.925 194.039 61.9392 194.035 61.9528C194.031 61.9663 194.024 61.9788 194.015 61.9894C194.006 62.0001 193.995 62.0086 193.982 62.0145C193.97 62.0204 193.956 62.0235 193.943 62.0236L185.412 62.0175C185.388 62.0172 185.365 62.008 185.347 61.9915C185.33 61.975 185.319 61.9524 185.316 61.9279L184.138 50.5664C184.135 50.542 184.124 50.5194 184.106 50.5029C184.089 50.4863 184.066 50.4771 184.042 50.4769ZM183.083 41.2567C183.093 41.2568 183.103 41.2547 183.112 41.2505C183.122 41.2463 183.13 41.2401 183.137 41.2324C183.143 41.2247 183.149 41.2155 183.152 41.2056C183.155 41.1957 183.156 41.1853 183.155 41.1749L180.844 19.2532C180.805 18.8847 180.767 18.8852 180.729 19.2547L178.496 41.2089C178.496 41.2154 178.496 41.2221 178.498 41.2285C178.5 41.2348 178.503 41.2407 178.508 41.2456C178.512 41.2506 178.517 41.2546 178.523 41.2573C178.53 41.26 178.536 41.2614 178.543 41.2614L183.083 41.2567Z" fill="#E3562B"/>
<path d="M203.666 27.0606C203.629 27.4209 203.611 27.743 203.611 28.0271C203.609 39.3346 203.609 50.64 203.61 61.9434C203.61 61.9651 203.601 61.9859 203.587 62.0012C203.572 62.0166 203.552 62.0252 203.532 62.0252L195.686 62.0159C195.542 62.0159 195.47 61.9413 195.47 61.7921V0.690964C195.47 0.670491 195.478 0.650856 195.492 0.636379C195.506 0.621902 195.525 0.61377 195.544 0.61377H203.593C203.62 0.61377 203.636 0.62715 203.642 0.653911L211.246 32.9815C211.31 33.2542 211.342 33.2501 211.342 32.9691L211.337 0.67707C211.337 0.660282 211.344 0.644181 211.355 0.63231C211.367 0.620439 211.382 0.61377 211.398 0.61377H219.516C219.536 0.61377 219.555 0.621902 219.569 0.636379C219.583 0.650856 219.591 0.670491 219.591 0.690964V61.8229C219.591 61.8487 219.586 61.8742 219.576 61.898C219.567 61.9218 219.553 61.9434 219.535 61.9616C219.517 61.9798 219.496 61.9942 219.473 62.0041C219.45 62.0139 219.426 62.019 219.401 62.019L212.347 62.0236C212.313 62.0236 212.281 62.012 212.255 61.9908C212.229 61.9695 212.21 61.9398 212.202 61.9063L203.696 27.0576C203.682 27.002 203.672 27.003 203.666 27.0606Z" fill="#E3562B"/>
<path d="M223.186 62.005C223.114 62.0042 223.044 61.9737 222.993 61.9203C222.942 61.8668 222.913 61.7946 222.913 61.7194V0.766525C222.913 0.726397 222.928 0.687913 222.956 0.659539C222.983 0.631164 223.02 0.615224 223.058 0.615224C227.734 0.613166 232.427 0.610077 237.139 0.60596C242.219 0.602872 245.513 3.00826 246.532 8.16486C246.764 9.34336 246.881 10.4575 246.882 11.5074C246.886 24.5378 246.877 37.5678 246.856 50.5972C246.844 57.4598 243.784 61.9819 236.775 62.0205C232.307 62.0452 227.778 62.04 223.186 62.005ZM237.593 13.5144C237.589 11.5799 237.357 9.1159 234.897 8.99084C233.941 8.94246 232.993 8.93217 232.052 8.95996C232.035 8.96037 232.018 8.96786 232.006 8.98085C231.993 8.99383 231.986 9.01128 231.986 9.02944V52.9547C231.986 53.0134 232.015 53.0443 232.072 53.0473C232.905 53.0947 233.738 53.0937 234.572 53.0443C237.387 52.8791 237.614 50.4011 237.616 48.127C237.624 36.59 237.616 25.0525 237.593 13.5144Z" fill="#E3562B"/>
<path d="M51.8653 121.481C50.3075 119.373 49.7429 116.639 49.737 114.045C49.727 109.837 49.7285 105.628 49.7414 101.419C49.7414 101.374 49.7628 101.351 49.8057 101.351L58.5847 101.353C58.6345 101.353 58.6594 101.379 58.6594 101.432C58.6584 104.459 58.6599 107.483 58.6639 110.505C58.6654 112.668 58.4205 116.196 61.4314 116.338C63.4373 116.432 64.2856 115.052 64.4424 113.162C64.6202 111.032 64.6635 108.442 64.4156 106.567C64.0825 104.061 62.8772 102.097 61.3612 100.062C59.2773 97.2667 57.1848 94.4779 55.0839 91.6958C52.3507 88.0738 50.7108 84.4009 50.3329 79.7847C49.6936 71.988 50.1895 63.37 59.9021 62.72C67.3982 62.2183 73.1707 63.4827 73.2678 72.7677C73.3047 76.2095 73.3111 79.7188 73.2872 83.2955C73.2872 83.3143 73.28 83.3324 73.2671 83.3457C73.2542 83.359 73.2367 83.3665 73.2185 83.3665H64.6351C64.6149 83.3665 64.5955 83.3582 64.5812 83.3435C64.567 83.3287 64.5589 83.3087 64.5589 83.2878C64.5589 80.3276 64.5579 77.3561 64.5559 74.3733C64.5545 72.4512 64.0272 70.7761 61.7884 70.9413C60.5259 71.036 59.7875 71.7091 59.5735 72.9607C59.2912 74.6049 59.3181 76.6876 59.4839 78.2392C59.7721 80.9411 61.1223 83.1041 62.695 85.2284C65.3465 88.8103 67.1712 91.2558 68.1688 92.565C70.4211 95.5216 72.4613 98.4256 73.4441 102.049C74.2267 104.932 74.2013 107.993 74.1341 111.118C74.0982 112.82 74.0051 114.155 73.8548 115.123C72.9855 120.715 69.7774 124.635 64.1243 125.195C59.8513 125.618 54.7329 125.363 51.8653 121.481Z" fill="#E3562B"/>
<path d="M106.273 118.732C106.271 118.725 106.268 118.718 106.262 118.713C106.257 118.709 106.25 118.706 106.243 118.706C106.236 118.705 106.228 118.707 106.222 118.711C106.216 118.716 106.211 118.722 106.209 118.729C104.923 122.025 102.137 125.003 98.6094 125.404C92.9653 126.047 89.675 121.644 88.9611 116.404C88.8745 115.771 88.8312 114.811 88.8312 113.524C88.8272 100.821 88.8341 88.1179 88.8521 75.4147C88.8595 70.6287 90.3934 65.418 95.1474 63.4974C97.5819 62.514 100.318 62.551 102.971 62.6977C110.274 63.1022 112.335 68.1322 112.423 74.808C112.456 77.2926 112.473 79.873 112.473 82.5491C112.473 82.5908 112.456 82.6309 112.428 82.6604C112.399 82.6899 112.361 82.7065 112.32 82.7065L103.798 82.7158C103.759 82.7158 103.721 82.6997 103.693 82.671C103.666 82.6424 103.65 82.6035 103.65 82.563C103.655 79.997 103.653 77.4244 103.644 74.845C103.637 72.7824 102.431 71.2339 100.288 71.6353C98.1793 72.0305 98.0165 74.4189 98.0165 76.1836C98.0115 88.0077 98.0075 99.8324 98.0045 111.658C98.003 113.652 98.6647 116.014 100.999 115.999C103.664 115.984 104.285 113.981 104.285 111.685C104.283 106.735 104.286 101.795 104.294 96.8671C104.294 96.851 104.291 96.835 104.285 96.8201C104.279 96.8052 104.27 96.7917 104.259 96.7803C104.248 96.769 104.234 96.76 104.22 96.754C104.206 96.7479 104.19 96.7449 104.174 96.7451L100.37 96.7652C100.35 96.7654 100.33 96.7615 100.312 96.7537C100.293 96.7459 100.276 96.7343 100.262 96.7196C100.247 96.705 100.236 96.6876 100.228 96.6684C100.22 96.6492 100.216 96.6286 100.216 96.6077V87.4571C100.216 87.4161 100.232 87.3769 100.26 87.3479C100.288 87.319 100.326 87.3027 100.366 87.3027H112.743C112.778 87.3027 112.811 87.3169 112.836 87.342C112.86 87.3672 112.874 87.4014 112.874 87.437V124.549C112.874 124.601 112.849 124.626 112.8 124.626H107.837C107.814 124.626 107.792 124.618 107.773 124.604C107.755 124.59 107.742 124.57 107.737 124.548L106.273 118.732Z" fill="#E3562B"/>
<path d="M175.182 105.939C175.828 114.227 175.01 124.983 164.282 125.266C162.404 125.315 160.494 125.344 158.644 124.968C152.704 123.763 150.87 118.892 150.855 113.254C150.846 109.312 150.845 105.37 150.853 101.428C150.854 101.377 150.879 101.352 150.928 101.352H159.735C159.756 101.352 159.775 101.361 159.789 101.375C159.804 101.39 159.812 101.41 159.812 101.431C159.812 105.112 159.812 108.804 159.812 112.507C159.812 114.804 160.747 116.516 163.205 116.288C165.033 116.117 165.502 114.381 165.617 112.766C165.747 110.93 165.748 109.093 165.62 107.255C165.426 104.499 164.179 102.296 162.573 100.154C160.401 97.2558 158.223 94.3615 156.04 91.4714C153.04 87.5005 151.442 83.1807 151.367 78.1244C151.321 75.0119 151.189 72.656 151.841 70.0097C153.612 62.8214 160.304 62.2254 166.234 62.7534C172.425 63.3046 174.392 67.4052 174.407 73.3322C174.414 76.6515 174.415 79.9709 174.408 83.2903C174.408 83.3103 174.4 83.3296 174.387 83.3438C174.373 83.358 174.354 83.3659 174.335 83.3659H165.787C165.767 83.3659 165.747 83.3575 165.732 83.3424C165.718 83.3274 165.71 83.3069 165.71 83.2856C165.712 80.4675 165.714 77.6381 165.716 74.7973C165.717 73.1948 165.572 71.217 163.61 70.9638C161.46 70.6859 160.702 71.9488 160.581 73.9204C160.51 75.0608 160.495 76.2028 160.536 77.3463C160.643 80.3245 161.941 82.6696 163.648 84.9639C166.077 88.2276 168.505 91.4925 170.933 94.7583C173.433 98.1225 174.843 101.605 175.182 105.939Z" fill="#E3562B"/>
<path d="M188.412 125.356C183.461 125.335 179.491 122.908 178.224 117.75C177.713 115.668 177.588 113.986 177.588 111.609C177.582 99.377 177.581 87.1452 177.586 74.9135C177.588 68.5249 180.346 63.2463 187.138 62.7353C192.154 62.357 198.03 62.5685 200.36 68.1204C201.314 70.3976 201.47 73.0577 201.476 75.5419C201.483 79.1422 201.483 82.7415 201.477 86.3398C201.477 86.3599 201.469 86.3792 201.456 86.3933C201.442 86.4075 201.423 86.4155 201.404 86.4155H192.67C192.653 86.4154 192.637 86.4096 192.624 86.399C192.61 86.3884 192.601 86.3736 192.597 86.3568C192.508 85.9909 192.589 85.5586 192.591 85.2977C192.598 82.1194 192.597 78.941 192.588 75.7626C192.58 73.0886 191.662 70.9287 188.562 71.7176C187.233 72.0557 186.809 73.5333 186.808 74.7684C186.805 87.3223 186.804 99.8762 186.805 112.43C186.805 114.192 187.348 116.018 189.332 116.253C191.615 116.523 192.617 114.517 192.58 112.498C192.494 107.697 192.601 102.853 192.592 97.9561C192.592 97.9356 192.6 97.916 192.614 97.9015C192.628 97.887 192.647 97.8789 192.667 97.8789H201.406C201.426 97.8789 201.445 97.8872 201.459 97.902C201.474 97.9167 201.482 97.9368 201.482 97.9576C201.481 102.719 201.478 107.492 201.473 112.276C201.467 119.365 198.763 125.322 190.915 125.356C190.079 125.36 189.245 125.36 188.412 125.356Z" fill="#E3562B"/>
<path d="M238.38 124.535C232.477 122.359 231.623 115.688 231.618 110.144C231.607 92.5889 231.606 81.373 231.615 76.4964C231.626 70.9229 233.184 64.9836 239.007 63.222C241.237 62.5473 243.783 62.5489 246.112 62.7017C254.746 63.273 256.325 70.1742 256.329 77.5926C256.335 88.5748 256.336 99.557 256.331 110.539C256.328 117.959 254.373 125.043 245.682 125.344C243.235 125.429 240.777 125.419 238.38 124.535ZM240.834 110.453C240.838 112.653 240.769 116.168 243.861 116.283C246.523 116.38 247.112 113.96 247.112 111.774C247.113 99.7865 247.108 87.7987 247.095 75.8109C247.093 74.2022 246.615 72.1797 244.912 71.7119C243.857 71.4216 242.933 71.5719 242.139 72.1627C240.719 73.2172 240.841 75.5963 240.837 77.1618C240.808 88.2593 240.807 99.3563 240.834 110.453Z" fill="#E3562B"/>
<path d="M262.97 122.706C259.68 119.678 259.175 114.78 259.173 110.54C259.169 99.037 259.169 87.5345 259.172 76.0325C259.173 69.4925 261.714 63.4914 268.805 62.7797C271.565 62.5018 274.5 62.4925 277.081 63.3849C282.866 65.3858 283.847 71.5444 283.848 76.9943C283.852 88.4459 283.853 99.8974 283.85 111.349C283.848 118.95 281.133 125.321 272.687 125.36C269.122 125.375 265.8 125.312 262.97 122.706ZM270.393 116.033C271.839 116.638 273.626 116.121 274.212 114.511C274.498 113.726 274.641 112.877 274.641 111.967C274.635 100.057 274.63 88.1479 274.626 76.2393C274.626 75.0135 274.509 73.8633 273.994 72.9153C273.101 71.2773 270.494 71.1368 269.318 72.4846C268.509 73.4125 268.36 75.0042 268.36 76.264C268.354 88.1232 268.361 99.9824 268.381 111.842C268.384 113.503 268.704 115.328 270.393 116.033Z" fill="#E3562B"/>
<path d="M14.3291 124.598C9.56966 124.637 4.8147 124.644 0.0642226 124.618C0.0471897 124.618 0.0308547 124.611 0.0188107 124.599C0.00676658 124.586 0 124.569 0 124.552V63.2977C0 63.2793 0.00708152 63.2616 0.0196858 63.2486C0.03229 63.2356 0.0493841 63.2283 0.0672092 63.2283C5.00189 63.2015 9.94554 63.2102 14.8981 63.2545C15.8003 63.2627 16.7452 63.4197 17.7329 63.7254C22.9812 65.3542 23.9281 70.1264 23.9296 75.1162C23.9356 87.8883 23.9366 100.661 23.9326 113.434C23.9326 113.947 23.8759 114.681 23.7624 115.636C23.1007 121.184 19.8702 124.553 14.3291 124.598ZM14.6577 76.1198C14.6547 74.0648 14.359 71.607 11.7587 71.6008C10.4623 71.5977 9.57365 71.5946 9.09272 71.5915C9.03298 71.5915 9.00311 71.6224 9.00311 71.6842L8.99863 115.555C8.99863 115.616 9.028 115.648 9.08675 115.65C11.4376 115.745 13.9542 116.034 14.4934 113.122C14.6129 112.474 14.6726 111.819 14.6726 111.157C14.6756 99.4778 14.6706 87.7988 14.6577 76.1198Z" fill="#E3562B"/>
<path d="M27.1084 124.526V63.3214C27.1084 63.2944 27.1188 63.2684 27.1373 63.2493C27.1558 63.2302 27.1808 63.2195 27.207 63.2195H47.5461C47.5723 63.2195 47.5973 63.2302 47.6158 63.2493C47.6343 63.2684 47.6447 63.2944 47.6447 63.3214V72.0336C47.6447 72.0606 47.6343 72.0865 47.6158 72.1056C47.5973 72.1247 47.5723 72.1355 47.5461 72.1355H36.2429C36.23 72.1355 36.2172 72.1381 36.2052 72.1432C36.1933 72.1483 36.1824 72.1558 36.1732 72.1653C36.1641 72.1748 36.1568 72.186 36.1519 72.1984C36.1469 72.2107 36.1444 72.224 36.1444 72.2374V88.0962C36.1444 88.1096 36.1469 88.1229 36.1519 88.1352C36.1568 88.1476 36.1641 88.1588 36.1732 88.1683C36.1824 88.1777 36.1933 88.1852 36.2052 88.1904C36.2172 88.1955 36.23 88.1981 36.2429 88.1981L45.0818 88.1889C45.1079 88.1889 45.133 88.1996 45.1515 88.2187C45.17 88.2378 45.1803 88.2637 45.1803 88.2908V97.4692C45.1803 97.4962 45.17 97.5221 45.1515 97.5412C45.133 97.5604 45.1079 97.5711 45.0818 97.5711H36.2429C36.23 97.5711 36.2172 97.5737 36.2052 97.5788C36.1933 97.584 36.1824 97.5915 36.1732 97.6009C36.1641 97.6104 36.1568 97.6216 36.1519 97.634C36.1469 97.6464 36.1444 97.6596 36.1444 97.673V115.185C36.1444 115.212 36.1548 115.238 36.1732 115.257C36.1917 115.277 36.2168 115.287 36.2429 115.287H48.0315C48.0577 115.287 48.0827 115.298 48.1012 115.317C48.1197 115.336 48.1301 115.362 48.1301 115.389V124.526C48.1301 124.553 48.1197 124.579 48.1012 124.598C48.0827 124.617 48.0577 124.628 48.0315 124.628H27.207C27.1808 124.628 27.1558 124.617 27.1373 124.598C27.1188 124.579 27.1084 124.553 27.1084 124.526Z" fill="#E3562B"/>
<path d="M85.6461 63.2207H76.7804C76.7334 63.2207 76.6953 63.2601 76.6953 63.3087V124.539C76.6953 124.588 76.7334 124.627 76.7804 124.627H85.6461C85.6932 124.627 85.7313 124.588 85.7313 124.539V63.3087C85.7313 63.2601 85.6932 63.2207 85.6461 63.2207Z" fill="#E3562B"/>
<path d="M131.844 95.6443V63.2998C131.844 63.2805 131.851 63.2621 131.865 63.2485C131.878 63.2348 131.896 63.2272 131.915 63.2272L139.985 63.2226C140.014 63.2226 140.042 63.2346 140.063 63.256C140.084 63.2775 140.095 63.3065 140.095 63.3368V124.551C140.095 124.571 140.088 124.591 140.074 124.605C140.06 124.62 140.041 124.628 140.021 124.628H132.811C132.787 124.628 132.763 124.619 132.743 124.603C132.724 124.587 132.71 124.565 132.704 124.54L124.174 89.5923C124.171 89.5802 124.164 89.5697 124.154 89.5627C124.144 89.5557 124.132 89.5526 124.12 89.5541C124.108 89.5557 124.097 89.5616 124.09 89.5709C124.082 89.5802 124.077 89.5922 124.077 89.6046C124.078 89.6283 124.081 89.6499 124.085 89.6694C124.093 89.7038 124.101 89.7358 124.106 89.7613C124.111 89.7869 124.114 89.8049 124.114 89.813V124.551C124.114 124.571 124.107 124.591 124.093 124.605C124.079 124.62 124.06 124.628 124.04 124.628H116.124C116.084 124.628 116.046 124.612 116.018 124.583C115.99 124.554 115.975 124.514 115.975 124.473V63.2967C115.975 63.2762 115.982 63.2566 115.996 63.2421C116.01 63.2276 116.029 63.2195 116.049 63.2195H124.08C124.094 63.2195 124.108 63.2245 124.119 63.2338C124.13 63.243 124.138 63.2559 124.141 63.2704L131.757 95.6551C131.758 95.661 131.759 95.6667 131.762 95.6718C131.765 95.677 131.769 95.6815 131.773 95.6852C131.778 95.6888 131.783 95.6916 131.789 95.6931C131.794 95.6947 131.8 95.6952 131.805 95.6945C131.811 95.6938 131.817 95.6919 131.822 95.689C131.827 95.6861 131.831 95.6822 131.835 95.6776C131.838 95.6729 131.841 95.6676 131.842 95.6619C131.844 95.6562 131.844 95.6502 131.844 95.6443Z" fill="#E3562B"/>
<path d="M213.359 97.761L213.35 124.515C213.35 124.53 213.348 124.545 213.342 124.558C213.337 124.572 213.329 124.584 213.318 124.595C213.308 124.605 213.296 124.614 213.283 124.619C213.27 124.625 213.256 124.628 213.241 124.628H204.426C204.397 124.628 204.37 124.616 204.349 124.595C204.329 124.574 204.317 124.545 204.317 124.515V63.3353C204.317 63.3054 204.329 63.2767 204.349 63.2556C204.37 63.2344 204.397 63.2226 204.426 63.2226L213.246 63.2303C213.275 63.2303 213.302 63.2422 213.323 63.2633C213.343 63.2844 213.355 63.3131 213.355 63.343L213.352 87.6933C213.352 87.7232 213.363 87.7518 213.384 87.773C213.404 87.7941 213.432 87.806 213.461 87.806H219.368C219.397 87.806 219.425 87.7941 219.445 87.773C219.465 87.7518 219.477 87.7232 219.477 87.6933V63.3322C219.477 63.3023 219.488 63.2736 219.509 63.2525C219.529 63.2314 219.557 63.2195 219.586 63.2195H228.441C228.47 63.2195 228.498 63.2314 228.518 63.2525C228.539 63.2736 228.55 63.3023 228.55 63.3322V124.515C228.55 124.545 228.539 124.574 228.518 124.595C228.498 124.616 228.47 124.628 228.441 124.628H219.586C219.557 124.628 219.529 124.616 219.509 124.595C219.488 124.574 219.477 124.545 219.477 124.515V97.761C219.477 97.7311 219.465 97.7024 219.445 97.6813C219.425 97.6602 219.397 97.6483 219.368 97.6483H213.468C213.439 97.6483 213.412 97.6602 213.391 97.6813C213.371 97.7024 213.359 97.7311 213.359 97.761Z" fill="#E3562B"/>
<path d="M296.091 115.133H306.894C306.922 115.133 306.949 115.144 306.969 115.165C306.989 115.186 307 115.213 307 115.242V124.518C307 124.547 306.989 124.575 306.969 124.596C306.949 124.616 306.922 124.628 306.894 124.628H287.055C287.027 124.628 287 124.616 286.98 124.596C286.96 124.575 286.949 124.547 286.949 124.518V63.3291C286.949 63.3 286.96 63.2721 286.98 63.2516C287 63.231 287.027 63.2195 287.055 63.2195H295.879C295.907 63.2195 295.934 63.231 295.954 63.2516C295.974 63.2721 295.985 63.3 295.985 63.3291V115.023C295.985 115.052 295.996 115.08 296.016 115.101C296.036 115.121 296.063 115.133 296.091 115.133Z" fill="#E3562B"/>
</svg>
