<svg width="674" height="230" viewBox="0 0 674 230" fill="none" xmlns="http://www.w3.org/2000/svg">
<path d="M0.21875 129.824L100.59 126.441L176.819 123.872L405.426 116.168L481.736 113.596L647.777 108" stroke="#F4E4C3" stroke-width="13"/>
<circle cx="256.309" cy="125.54" r="45.1002" transform="rotate(7.83042 256.309 125.54)" fill="#F4E4C3"/>
<circle cx="255.273" cy="125.395" r="67.385" transform="rotate(7.83042 255.273 125.395)" fill="#F4E4C3"/>
<circle cx="256.356" cy="125.535" r="44.7226" transform="rotate(7.83042 256.356 125.535)" fill="#F4E4C3" stroke="#EA7D9C" stroke-width="5"/>
<circle cx="255.283" cy="125.387" r="65.3851" transform="rotate(7.83042 255.283 125.387)" fill="#F4E4C3" stroke="#EA7D9C" stroke-width="4"/>
<mask id="path-6-inside-1_475_431" fill="white">
<path d="M248.898 58.3048C260.416 57.2084 272.022 59.0962 282.599 63.7866L273.809 83.6087C266.636 80.4277 258.764 79.1473 250.952 79.8909L248.898 58.3048Z"/>
</mask>
<path d="M248.898 58.3048C260.416 57.2084 272.022 59.0962 282.599 63.7866L273.809 83.6087C266.636 80.4277 258.764 79.1473 250.952 79.8909L248.898 58.3048Z" fill="#F4E4C3" stroke="#EA7D9C" stroke-width="28" mask="url(#path-6-inside-1_475_431)"/>
<mask id="path-7-inside-2_475_431" fill="white">
<path d="M198.318 89.3909C204.498 79.6096 213.093 71.5846 223.275 66.0887L233.575 85.17C226.67 88.8974 220.84 94.3401 216.649 100.974L198.318 89.3909Z"/>
</mask>
<path d="M198.318 89.3909C204.498 79.6096 213.093 71.5846 223.275 66.0887L233.575 85.17C226.67 88.8974 220.84 94.3401 216.649 100.974L198.318 89.3909Z" fill="#F4E4C3" stroke="#EA7D9C" stroke-width="28" mask="url(#path-7-inside-2_475_431)"/>
<mask id="path-8-inside-3_475_431" fill="white">
<path d="M190.783 144.894C187.434 133.819 186.993 122.068 189.502 110.773L210.669 115.476C208.968 123.136 209.267 131.106 211.539 138.617L190.783 144.894Z"/>
</mask>
<path d="M190.783 144.894C187.434 133.819 186.993 122.068 189.502 110.773L210.669 115.476C208.968 123.136 209.267 131.106 211.539 138.617L190.783 144.894Z" fill="#F4E4C3" stroke="#EA7D9C" stroke-width="28" mask="url(#path-8-inside-3_475_431)"/>
<mask id="path-9-inside-4_475_431" fill="white">
<path d="M225.326 185.746C214.962 180.602 206.097 172.877 199.584 163.313L217.508 151.109C221.924 157.595 227.937 162.835 234.966 166.323L225.326 185.746Z"/>
</mask>
<path d="M225.326 185.746C214.962 180.602 206.097 172.877 199.584 163.313L217.508 151.109C221.924 157.595 227.937 162.835 234.966 166.323L225.326 185.746Z" fill="#F4E4C3" stroke="#EA7D9C" stroke-width="28" mask="url(#path-9-inside-4_475_431)"/>
<mask id="path-10-inside-5_475_431" fill="white">
<path d="M304.246 79.0897C312.195 87.4968 317.846 97.8092 320.654 109.034L299.618 114.296C297.714 106.683 293.882 99.6893 288.49 93.9875L304.246 79.0897Z"/>
</mask>
<path d="M304.246 79.0897C312.195 87.4968 317.846 97.8092 320.654 109.034L299.618 114.296C297.714 106.683 293.882 99.6893 288.49 93.9875L304.246 79.0897Z" fill="#F4E4C3" stroke="#EA7D9C" stroke-width="28" mask="url(#path-10-inside-5_475_431)"/>
<mask id="path-11-inside-6_475_431" fill="white">
<path d="M286.997 184.842C276.788 190.288 265.349 193.013 253.782 192.755L254.265 171.077C262.11 171.251 269.868 169.403 276.792 165.71L286.997 184.842Z"/>
</mask>
<path d="M286.997 184.842C276.788 190.288 265.349 193.013 253.782 192.755L254.265 171.077C262.11 171.251 269.868 169.403 276.792 165.71L286.997 184.842Z" fill="#F4E4C3" stroke="#EA7D9C" stroke-width="28" mask="url(#path-11-inside-6_475_431)"/>
<mask id="path-12-inside-7_475_431" fill="white">
<path d="M321.56 137.558C319.47 148.938 314.485 159.588 307.085 168.483L290.416 154.615C295.435 148.583 298.815 141.36 300.233 133.642L321.56 137.558Z"/>
</mask>
<path d="M321.56 137.558C319.47 148.938 314.485 159.588 307.085 168.483L290.416 154.615C295.435 148.583 298.815 141.36 300.233 133.642L321.56 137.558Z" fill="#F4E4C3" stroke="#EA7D9C" stroke-width="28" mask="url(#path-12-inside-7_475_431)"/>
<circle cx="255.815" cy="124.968" r="43.192" transform="rotate(7.83042 255.815 124.968)" stroke="#EA7D9C" stroke-width="7"/>
<path d="M343.977 121.809L384.786 174.145C385.736 175.364 387.65 175.091 388.221 173.655L413.582 109.964C413.853 109.284 413.731 108.51 413.263 107.946L371.593 57.773C370.623 56.6055 368.757 56.9009 368.196 58.3109L343.696 119.839C343.434 120.499 343.54 121.249 343.977 121.809Z" fill="#34A46A"/>
<path d="M349.815 122.731L378.224 158.995C381.079 162.639 386.81 161.815 388.522 157.514L406.126 113.304C406.94 111.259 406.569 108.931 405.159 107.241L376.154 72.4722C373.241 68.9806 367.654 69.8716 365.972 74.0961L348.964 116.811C348.174 118.795 348.498 121.049 349.815 122.731Z" fill="#F4E4C3"/>
<path d="M462.304 170.578L396.69 180.538C395.162 180.77 393.96 179.256 394.531 177.821L419.892 114.13C420.163 113.449 420.784 112.971 421.511 112.884L486.265 105.087C487.771 104.905 488.923 106.402 488.362 107.812L463.862 169.34C463.6 170 463.007 170.471 462.304 170.578Z" fill="#34A46A"/>
<path d="M417.813 103.999L376.451 52.0647C375.488 50.8563 376.201 49.0593 377.73 48.8392L445.54 39.078C446.289 38.9702 447.034 39.2943 447.466 39.9155L484.904 93.7314C485.764 94.9673 485.001 96.6741 483.507 96.8584L419.622 104.738C418.931 104.824 418.246 104.544 417.813 103.999Z" fill="#34A46A"/>
<ellipse cx="396.777" cy="57.619" rx="5.08466" ry="7.21468" transform="rotate(-69.0448 396.777 57.619)" fill="#F4E4C3"/>
<ellipse cx="431.029" cy="71.2574" rx="5.08466" ry="7.21468" transform="rotate(-69.0448 431.029 71.2574)" fill="#F4E4C3"/>
<ellipse cx="377.549" cy="115.397" rx="5.08466" ry="7.21468" transform="rotate(172.491 377.549 115.397)" fill="#34A46A"/>
<ellipse cx="465.277" cy="84.8939" rx="5.08466" ry="7.21468" transform="rotate(-69.0448 465.277 84.8939)" fill="#F4E4C3"/>
<ellipse cx="425.098" cy="157.096" rx="5.08466" ry="7.21468" transform="rotate(-122.958 425.098 157.096)" fill="#F4E4C3"/>
<ellipse cx="457.772" cy="133.733" rx="5.08466" ry="7.21468" transform="rotate(-122.958 457.772 133.733)" fill="#F4E4C3"/>
<path d="M647.834 108L492.861 113.223M257.134 121.167L184.219 123.625" stroke="#F4E4C3" stroke-width="13"/>
<line x1="7.49613" y1="129.642" x2="64.4224" y2="127.723" stroke="#F4E4C3" stroke-width="13" stroke-linecap="round"/>
<path d="M371.492 123.495C375.079 123.344 377.864 120.314 377.713 116.727C377.562 113.14 374.532 110.355 370.945 110.506L371.219 117.001L371.492 123.495ZM323.719 119L323.992 125.495L371.492 123.495L371.219 117.001L370.945 110.506L323.445 112.506L323.719 119Z" fill="#F4E4C3"/>
<circle cx="567.909" cy="113.363" r="45.1002" transform="rotate(6.1567 567.909 113.363)" fill="#F4E4C3"/>
<circle cx="566.881" cy="113.247" r="67.385" transform="rotate(6.1567 566.881 113.247)" fill="#F4E4C3"/>
<circle cx="567.958" cy="113.357" r="44.7226" transform="rotate(6.1567 567.958 113.357)" fill="#F4E4C3" stroke="#EA7D9C" stroke-width="5"/>
<circle cx="566.883" cy="113.238" r="65.3851" transform="rotate(6.1567 566.883 113.238)" fill="#F4E4C3" stroke="#EA7D9C" stroke-width="4"/>
<mask id="path-31-inside-8_475_431" fill="white">
<path d="M558.541 46.3717C570.022 44.9394 581.679 46.4874 592.388 50.8669L584.181 70.9373C576.918 67.9671 569.012 66.9172 561.225 67.8886L558.541 46.3717Z"/>
</mask>
<path d="M558.541 46.3717C570.022 44.9394 581.679 46.4874 592.388 50.8669L584.181 70.9373C576.918 67.9671 569.012 66.9172 561.225 67.8886L558.541 46.3717Z" fill="#F4E4C3" stroke="#EA7D9C" stroke-width="28" mask="url(#path-31-inside-8_475_431)"/>
<mask id="path-32-inside-9_475_431" fill="white">
<path d="M508.89 78.9219C514.783 68.9643 523.14 60.6917 533.157 54.9007L544.009 73.6731C537.216 77.6006 531.548 83.2112 527.552 89.9645L508.89 78.9219Z"/>
</mask>
<path d="M508.89 78.9219C514.783 68.9643 523.14 60.6917 533.157 54.9007L544.009 73.6731C537.216 77.6006 531.548 83.2112 527.552 89.9645L508.89 78.9219Z" fill="#F4E4C3" stroke="#EA7D9C" stroke-width="28" mask="url(#path-32-inside-9_475_431)"/>
<mask id="path-33-inside-10_475_431" fill="white">
<path d="M502.98 134.621C499.309 123.649 498.524 111.916 500.703 100.553L521.999 104.635C520.521 112.342 521.053 120.299 523.543 127.741L502.98 134.621Z"/>
</mask>
<path d="M502.98 134.621C499.309 123.649 498.524 111.916 500.703 100.553L521.999 104.635C520.521 112.342 521.053 120.299 523.543 127.741L502.98 134.621Z" fill="#F4E4C3" stroke="#EA7D9C" stroke-width="28" mask="url(#path-33-inside-10_475_431)"/>
<mask id="path-34-inside-11_475_431" fill="white">
<path d="M538.701 174.447C528.191 169.608 519.104 162.145 512.316 152.775L529.875 140.053C534.479 146.407 540.642 151.469 547.77 154.751L538.701 174.447Z"/>
</mask>
<path d="M538.701 174.447C528.191 169.608 519.104 162.145 512.316 152.775L529.875 140.053C534.479 146.407 540.642 151.469 547.77 154.751L538.701 174.447Z" fill="#F4E4C3" stroke="#EA7D9C" stroke-width="28" mask="url(#path-34-inside-11_475_431)"/>
<mask id="path-35-inside-12_475_431" fill="white">
<path d="M614.472 65.5312C622.664 73.7026 628.613 83.8455 631.748 94.9831L610.875 100.857C608.749 93.3038 604.714 86.4247 599.159 80.8828L614.472 65.5312Z"/>
</mask>
<path d="M614.472 65.5312C622.664 73.7026 628.613 83.8455 631.748 94.9831L610.875 100.857C608.749 93.3038 604.714 86.4247 599.159 80.8828L614.472 65.5312Z" fill="#F4E4C3" stroke="#EA7D9C" stroke-width="28" mask="url(#path-35-inside-12_475_431)"/>
<mask id="path-36-inside-13_475_431" fill="white">
<path d="M600.32 171.743C590.274 177.484 578.92 180.542 567.35 180.622L567.199 158.939C575.046 158.884 582.747 156.81 589.56 152.917L600.32 171.743Z"/>
</mask>
<path d="M600.32 171.743C590.274 177.484 578.92 180.542 567.35 180.622L567.199 158.939C575.046 158.884 582.747 156.81 589.56 152.917L600.32 171.743Z" fill="#F4E4C3" stroke="#EA7D9C" stroke-width="28" mask="url(#path-36-inside-13_475_431)"/>
<mask id="path-37-inside-14_475_431" fill="white">
<path d="M633.487 123.469C631.73 134.905 627.058 145.696 619.921 154.803L602.854 141.428C607.695 135.252 610.863 127.933 612.054 120.177L633.487 123.469Z"/>
</mask>
<path d="M633.487 123.469C631.73 134.905 627.058 145.696 619.921 154.803L602.854 141.428C607.695 135.252 610.863 127.933 612.054 120.177L633.487 123.469Z" fill="#F4E4C3" stroke="#EA7D9C" stroke-width="28" mask="url(#path-37-inside-14_475_431)"/>
<circle cx="567.411" cy="112.796" r="43.192" transform="rotate(6.1567 567.411 112.796)" stroke="#EA7D9C" stroke-width="7"/>
<path d="M257.72 121.501L183.719 123.5M492.22 113.5L570.347 111.001" stroke="#F4E4C3" stroke-width="13"/>
</svg>
