<svg width="674" height="230" viewBox="0 0 674 230" fill="none" xmlns="http://www.w3.org/2000/svg">
<path d="M0.21875 129.824L100.59 126.441L176.819 123.872L405.426 116.168L481.736 113.596L647.777 108" stroke="#F4E4C3" stroke-width="13"/>
<path d="M38.2596 135.807L79.0685 188.142C80.0185 189.361 81.9323 189.088 82.5038 187.652L107.864 123.962C108.134 123.282 108.012 122.508 107.544 121.944L65.8738 71.7722C64.9042 70.6047 63.0386 70.9002 62.4772 72.3102L37.9787 133.838C37.7159 134.498 37.8229 135.247 38.2596 135.807Z" fill="#34A46A"/>
<path d="M44.097 136.73L72.5066 172.993C75.3612 176.636 81.0918 175.812 82.8041 171.512L100.407 127.303C101.222 125.257 100.85 122.93 99.4399 121.239L70.4349 86.4718C67.522 82.9803 61.9353 83.8714 60.2533 88.0959L43.2458 130.81C42.4558 132.794 42.78 135.048 44.097 136.73Z" fill="#F4E4C3"/>
<ellipse cx="70.8935" cy="127.731" rx="5.02601" ry="7.13147" transform="rotate(171.716 70.8935 127.731)" fill="#34A46A"/>
<ellipse cx="75.4541" cy="153.538" rx="5.02601" ry="7.13147" transform="rotate(171.716 75.4541 153.538)" fill="#34A46A"/>
<ellipse cx="52.9072" cy="131.522" rx="5.02601" ry="7.13147" transform="rotate(171.716 52.9072 131.522)" fill="#34A46A"/>
<ellipse cx="88.1396" cy="127.389" rx="5.02601" ry="7.13147" transform="rotate(171.716 88.1396 127.389)" fill="#34A46A"/>
<ellipse cx="65.5927" cy="105.377" rx="5.02601" ry="7.13147" transform="rotate(171.716 65.5927 105.377)" fill="#34A46A"/>
<path d="M156.585 184.574L90.9716 194.535C89.4441 194.767 88.2417 193.253 88.8133 191.818L114.173 128.127C114.444 127.447 115.065 126.969 115.792 126.881L180.544 119.083C182.051 118.902 183.203 120.399 182.641 121.809L158.143 183.336C157.88 183.996 157.287 184.467 156.585 184.574Z" fill="#34A46A"/>
<path d="M112.093 117.998L70.7312 66.0644C69.7687 64.8559 70.4815 63.0589 72.0107 62.8388L139.819 53.077C140.568 52.9692 141.314 53.2933 141.746 53.9145L179.183 107.729C180.043 108.965 179.28 110.672 177.786 110.856L113.902 118.737C113.212 118.822 112.527 118.542 112.093 117.998Z" fill="#34A46A"/>
<ellipse cx="91.0578" cy="71.6177" rx="5.08457" ry="7.21456" transform="rotate(-69.0455 91.0578 71.6177)" fill="#F4E4C3"/>
<ellipse cx="125.308" cy="85.2561" rx="5.08457" ry="7.21456" transform="rotate(-69.0455 125.308 85.2561)" fill="#F4E4C3"/>
<ellipse cx="159.558" cy="98.8916" rx="5.08457" ry="7.21456" transform="rotate(-69.0455 159.558 98.8916)" fill="#F4E4C3"/>
<ellipse cx="119.379" cy="171.092" rx="5.08457" ry="7.21456" transform="rotate(-122.959 119.379 171.092)" fill="#F4E4C3"/>
<ellipse cx="152.053" cy="147.73" rx="5.08457" ry="7.21456" transform="rotate(-122.959 152.053 147.73)" fill="#F4E4C3"/>
<circle cx="256.309" cy="125.54" r="45.1002" transform="rotate(7.83042 256.309 125.54)" fill="#F4E4C3"/>
<circle cx="255.273" cy="125.395" r="67.385" transform="rotate(7.83042 255.273 125.395)" fill="#F4E4C3"/>
<circle cx="256.356" cy="125.535" r="44.7226" transform="rotate(7.83042 256.356 125.535)" fill="#F4E4C3" stroke="#EA7D9C" stroke-width="5"/>
<circle cx="255.283" cy="125.387" r="65.3851" transform="rotate(7.83042 255.283 125.387)" fill="#F4E4C3" stroke="#EA7D9C" stroke-width="4"/>
<mask id="path-20-inside-1_475_432" fill="white">
<path d="M248.898 58.3048C260.416 57.2084 272.022 59.0962 282.599 63.7866L273.809 83.6087C266.636 80.4277 258.764 79.1473 250.952 79.8909L248.898 58.3048Z"/>
</mask>
<path d="M248.898 58.3048C260.416 57.2084 272.022 59.0962 282.599 63.7866L273.809 83.6087C266.636 80.4277 258.764 79.1473 250.952 79.8909L248.898 58.3048Z" fill="#F4E4C3" stroke="#EA7D9C" stroke-width="28" mask="url(#path-20-inside-1_475_432)"/>
<mask id="path-21-inside-2_475_432" fill="white">
<path d="M198.318 89.3909C204.498 79.6096 213.093 71.5846 223.275 66.0887L233.575 85.17C226.67 88.8974 220.84 94.3401 216.649 100.974L198.318 89.3909Z"/>
</mask>
<path d="M198.318 89.3909C204.498 79.6096 213.093 71.5846 223.275 66.0887L233.575 85.17C226.67 88.8974 220.84 94.3401 216.649 100.974L198.318 89.3909Z" fill="#F4E4C3" stroke="#EA7D9C" stroke-width="28" mask="url(#path-21-inside-2_475_432)"/>
<mask id="path-22-inside-3_475_432" fill="white">
<path d="M190.783 144.894C187.434 133.819 186.993 122.068 189.502 110.773L210.669 115.476C208.968 123.136 209.267 131.106 211.539 138.617L190.783 144.894Z"/>
</mask>
<path d="M190.783 144.894C187.434 133.819 186.993 122.068 189.502 110.773L210.669 115.476C208.968 123.136 209.267 131.106 211.539 138.617L190.783 144.894Z" fill="#F4E4C3" stroke="#EA7D9C" stroke-width="28" mask="url(#path-22-inside-3_475_432)"/>
<mask id="path-23-inside-4_475_432" fill="white">
<path d="M225.326 185.746C214.962 180.602 206.097 172.877 199.584 163.313L217.508 151.109C221.924 157.595 227.937 162.835 234.966 166.323L225.326 185.746Z"/>
</mask>
<path d="M225.326 185.746C214.962 180.602 206.097 172.877 199.584 163.313L217.508 151.109C221.924 157.595 227.937 162.835 234.966 166.323L225.326 185.746Z" fill="#F4E4C3" stroke="#EA7D9C" stroke-width="28" mask="url(#path-23-inside-4_475_432)"/>
<mask id="path-24-inside-5_475_432" fill="white">
<path d="M304.246 79.0897C312.195 87.4968 317.846 97.8092 320.654 109.034L299.618 114.296C297.714 106.683 293.882 99.6893 288.49 93.9875L304.246 79.0897Z"/>
</mask>
<path d="M304.246 79.0897C312.195 87.4968 317.846 97.8092 320.654 109.034L299.618 114.296C297.714 106.683 293.882 99.6893 288.49 93.9875L304.246 79.0897Z" fill="#F4E4C3" stroke="#EA7D9C" stroke-width="28" mask="url(#path-24-inside-5_475_432)"/>
<mask id="path-25-inside-6_475_432" fill="white">
<path d="M286.997 184.842C276.788 190.288 265.349 193.013 253.782 192.755L254.265 171.077C262.11 171.251 269.868 169.403 276.792 165.71L286.997 184.842Z"/>
</mask>
<path d="M286.997 184.842C276.788 190.288 265.349 193.013 253.782 192.755L254.265 171.077C262.11 171.251 269.868 169.403 276.792 165.71L286.997 184.842Z" fill="#F4E4C3" stroke="#EA7D9C" stroke-width="28" mask="url(#path-25-inside-6_475_432)"/>
<mask id="path-26-inside-7_475_432" fill="white">
<path d="M321.56 137.558C319.47 148.938 314.485 159.588 307.085 168.483L290.416 154.615C295.435 148.583 298.815 141.36 300.233 133.642L321.56 137.558Z"/>
</mask>
<path d="M321.56 137.558C319.47 148.938 314.485 159.588 307.085 168.483L290.416 154.615C295.435 148.583 298.815 141.36 300.233 133.642L321.56 137.558Z" fill="#F4E4C3" stroke="#EA7D9C" stroke-width="28" mask="url(#path-26-inside-7_475_432)"/>
<circle cx="255.815" cy="124.968" r="43.192" transform="rotate(7.83042 255.815 124.968)" stroke="#EA7D9C" stroke-width="7"/>
<path d="M343.977 121.809L384.786 174.145C385.736 175.364 387.65 175.091 388.221 173.655L413.582 109.964C413.853 109.284 413.731 108.51 413.263 107.946L371.593 57.773C370.623 56.6055 368.757 56.9009 368.196 58.3109L343.696 119.839C343.434 120.499 343.54 121.249 343.977 121.809Z" fill="#34A46A"/>
<path d="M349.815 122.731L378.224 158.995C381.079 162.639 386.81 161.815 388.522 157.514L406.126 113.304C406.94 111.259 406.569 108.931 405.159 107.241L376.154 72.4722C373.241 68.9806 367.654 69.8716 365.972 74.0961L348.964 116.811C348.174 118.795 348.498 121.049 349.815 122.731Z" fill="#F4E4C3"/>
<path d="M462.304 170.578L396.69 180.538C395.162 180.77 393.96 179.256 394.531 177.821L419.892 114.13C420.163 113.449 420.784 112.971 421.511 112.884L486.265 105.087C487.771 104.905 488.923 106.402 488.362 107.812L463.862 169.34C463.6 170 463.007 170.471 462.304 170.578Z" fill="#34A46A"/>
<path d="M417.813 103.999L376.451 52.0647C375.488 50.8563 376.201 49.0593 377.73 48.8392L445.54 39.078C446.289 38.9702 447.034 39.2943 447.466 39.9155L484.904 93.7314C485.764 94.9673 485.001 96.6741 483.507 96.8584L419.622 104.738C418.931 104.824 418.246 104.544 417.813 103.999Z" fill="#34A46A"/>
<ellipse cx="396.777" cy="57.619" rx="5.08466" ry="7.21468" transform="rotate(-69.0448 396.777 57.619)" fill="#F4E4C3"/>
<ellipse cx="431.029" cy="71.2574" rx="5.08466" ry="7.21468" transform="rotate(-69.0448 431.029 71.2574)" fill="#F4E4C3"/>
<ellipse cx="377.549" cy="115.397" rx="5.08466" ry="7.21468" transform="rotate(172.491 377.549 115.397)" fill="#34A46A"/>
<ellipse cx="465.277" cy="84.8939" rx="5.08466" ry="7.21468" transform="rotate(-69.0448 465.277 84.8939)" fill="#F4E4C3"/>
<ellipse cx="425.098" cy="157.096" rx="5.08466" ry="7.21468" transform="rotate(-122.958 425.098 157.096)" fill="#F4E4C3"/>
<ellipse cx="457.772" cy="133.733" rx="5.08466" ry="7.21468" transform="rotate(-122.958 457.772 133.733)" fill="#F4E4C3"/>
<path d="M647.834 108L492.861 113.223M257.134 121.167L184.219 123.625" stroke="#F4E4C3" stroke-width="13"/>
<line x1="7.49613" y1="129.642" x2="64.4224" y2="127.723" stroke="#F4E4C3" stroke-width="13" stroke-linecap="round"/>
<path d="M371.492 123.495C375.079 123.344 377.864 120.314 377.713 116.727C377.562 113.14 374.532 110.355 370.945 110.506L371.219 117.001L371.492 123.495ZM323.719 119L323.992 125.495L371.492 123.495L371.219 117.001L370.945 110.506L323.445 112.506L323.719 119Z" fill="#F4E4C3"/>
<circle cx="567.909" cy="113.363" r="45.1002" transform="rotate(6.1567 567.909 113.363)" fill="#F4E4C3"/>
<circle cx="566.881" cy="113.247" r="67.385" transform="rotate(6.1567 566.881 113.247)" fill="#F4E4C3"/>
<circle cx="567.958" cy="113.357" r="44.7226" transform="rotate(6.1567 567.958 113.357)" fill="#F4E4C3" stroke="#EA7D9C" stroke-width="5"/>
<circle cx="566.881" cy="113.238" r="65.3851" transform="rotate(6.1567 566.881 113.238)" fill="#F4E4C3" stroke="#EA7D9C" stroke-width="4"/>
<mask id="path-45-inside-8_475_432" fill="white">
<path d="M558.539 46.3717C570.02 44.9394 581.677 46.4874 592.386 50.8669L584.179 70.9373C576.916 67.9671 569.01 66.9172 561.223 67.8886L558.539 46.3717Z"/>
</mask>
<path d="M558.539 46.3717C570.02 44.9394 581.677 46.4874 592.386 50.8669L584.179 70.9373C576.916 67.9671 569.01 66.9172 561.223 67.8886L558.539 46.3717Z" fill="#F4E4C3" stroke="#EA7D9C" stroke-width="28" mask="url(#path-45-inside-8_475_432)"/>
<mask id="path-46-inside-9_475_432" fill="white">
<path d="M508.888 78.9219C514.781 68.9643 523.138 60.6917 533.155 54.9007L544.007 73.6731C537.214 77.6006 531.546 83.2112 527.55 89.9645L508.888 78.9219Z"/>
</mask>
<path d="M508.888 78.9219C514.781 68.9643 523.138 60.6917 533.155 54.9007L544.007 73.6731C537.214 77.6006 531.546 83.2112 527.55 89.9645L508.888 78.9219Z" fill="#F4E4C3" stroke="#EA7D9C" stroke-width="28" mask="url(#path-46-inside-9_475_432)"/>
<mask id="path-47-inside-10_475_432" fill="white">
<path d="M502.978 134.621C499.307 123.649 498.522 111.916 500.701 100.553L521.997 104.635C520.519 112.342 521.051 120.299 523.541 127.741L502.978 134.621Z"/>
</mask>
<path d="M502.978 134.621C499.307 123.649 498.522 111.916 500.701 100.553L521.997 104.635C520.519 112.342 521.051 120.299 523.541 127.741L502.978 134.621Z" fill="#F4E4C3" stroke="#EA7D9C" stroke-width="28" mask="url(#path-47-inside-10_475_432)"/>
<mask id="path-48-inside-11_475_432" fill="white">
<path d="M538.699 174.447C528.189 169.608 519.102 162.145 512.314 152.775L529.873 140.053C534.477 146.407 540.64 151.469 547.768 154.751L538.699 174.447Z"/>
</mask>
<path d="M538.699 174.447C528.189 169.608 519.102 162.145 512.314 152.775L529.873 140.053C534.477 146.407 540.64 151.469 547.768 154.751L538.699 174.447Z" fill="#F4E4C3" stroke="#EA7D9C" stroke-width="28" mask="url(#path-48-inside-11_475_432)"/>
<mask id="path-49-inside-12_475_432" fill="white">
<path d="M614.47 65.5312C622.662 73.7026 628.611 83.8455 631.746 94.9831L610.873 100.857C608.747 93.3038 604.712 86.4247 599.157 80.8828L614.47 65.5312Z"/>
</mask>
<path d="M614.47 65.5312C622.662 73.7026 628.611 83.8455 631.746 94.9831L610.873 100.857C608.747 93.3038 604.712 86.4247 599.157 80.8828L614.47 65.5312Z" fill="#F4E4C3" stroke="#EA7D9C" stroke-width="28" mask="url(#path-49-inside-12_475_432)"/>
<mask id="path-50-inside-13_475_432" fill="white">
<path d="M600.318 171.743C590.272 177.484 578.918 180.542 567.348 180.622L567.197 158.939C575.044 158.884 582.745 156.81 589.558 152.917L600.318 171.743Z"/>
</mask>
<path d="M600.318 171.743C590.272 177.484 578.918 180.542 567.348 180.622L567.197 158.939C575.044 158.884 582.745 156.81 589.558 152.917L600.318 171.743Z" fill="#F4E4C3" stroke="#EA7D9C" stroke-width="28" mask="url(#path-50-inside-13_475_432)"/>
<mask id="path-51-inside-14_475_432" fill="white">
<path d="M633.485 123.469C631.728 134.905 627.056 145.696 619.919 154.803L602.852 141.428C607.693 135.252 610.861 127.933 612.052 120.177L633.485 123.469Z"/>
</mask>
<path d="M633.485 123.469C631.728 134.905 627.056 145.696 619.919 154.803L602.852 141.428C607.693 135.252 610.861 127.933 612.052 120.177L633.485 123.469Z" fill="#F4E4C3" stroke="#EA7D9C" stroke-width="28" mask="url(#path-51-inside-14_475_432)"/>
<circle cx="567.409" cy="112.796" r="43.192" transform="rotate(6.1567 567.409 112.796)" stroke="#EA7D9C" stroke-width="7"/>
<path d="M257.72 121.501L183.719 123.5M492.22 113.5L570.347 111.001" stroke="#F4E4C3" stroke-width="13"/>
</svg>
