<svg width="674" height="220" viewBox="0 0 674 220" fill="none" xmlns="http://www.w3.org/2000/svg">
<path d="M0.21875 129.824L100.59 126.441L176.819 123.872L405.426 116.168L481.736 113.596L647.777 108" stroke="#F4E4C3" stroke-width="13"/>
<path d="M343.977 121.809L384.786 174.145C385.736 175.364 387.65 175.091 388.221 173.655L413.582 109.964C413.853 109.284 413.731 108.51 413.263 107.946L371.593 57.773C370.623 56.6055 368.757 56.9009 368.196 58.3109L343.696 119.839C343.434 120.499 343.54 121.249 343.977 121.809Z" fill="#34A46A"/>
<path d="M349.815 122.731L378.224 158.995C381.079 162.639 386.81 161.815 388.522 157.514L406.126 113.304C406.94 111.259 406.569 108.931 405.159 107.241L376.154 72.4722C373.241 68.9806 367.654 69.8716 365.972 74.0961L348.964 116.811C348.174 118.795 348.498 121.049 349.815 122.731Z" fill="#F4E4C3"/>
<path d="M462.304 170.578L396.69 180.538C395.162 180.77 393.96 179.256 394.531 177.821L419.892 114.13C420.163 113.449 420.784 112.971 421.511 112.884L486.265 105.087C487.771 104.905 488.923 106.402 488.362 107.812L463.862 169.34C463.6 170 463.007 170.471 462.304 170.578Z" fill="#34A46A"/>
<path d="M417.813 103.999L376.451 52.0647C375.488 50.8563 376.201 49.0593 377.73 48.8392L445.54 39.078C446.289 38.9702 447.034 39.2943 447.466 39.9155L484.904 93.7314C485.764 94.9673 485.001 96.6741 483.507 96.8584L419.622 104.738C418.931 104.824 418.246 104.544 417.813 103.999Z" fill="#34A46A"/>
<ellipse cx="396.777" cy="57.619" rx="5.08466" ry="7.21468" transform="rotate(-69.0448 396.777 57.619)" fill="#F4E4C3"/>
<ellipse cx="431.029" cy="71.2574" rx="5.08466" ry="7.21468" transform="rotate(-69.0448 431.029 71.2574)" fill="#F4E4C3"/>
<ellipse cx="377.549" cy="115.397" rx="5.08466" ry="7.21468" transform="rotate(172.491 377.549 115.397)" fill="#34A46A"/>
<ellipse cx="465.277" cy="84.8939" rx="5.08466" ry="7.21468" transform="rotate(-69.0448 465.277 84.8939)" fill="#F4E4C3"/>
<ellipse cx="425.098" cy="157.096" rx="5.08466" ry="7.21468" transform="rotate(-122.958 425.098 157.096)" fill="#F4E4C3"/>
<ellipse cx="457.772" cy="133.733" rx="5.08466" ry="7.21468" transform="rotate(-122.958 457.772 133.733)" fill="#F4E4C3"/>
<path d="M647.834 108L492.861 113.223M257.134 121.167L184.219 123.625" stroke="#F4E4C3" stroke-width="13"/>
<path d="M371.492 123.495C375.079 123.344 377.864 120.314 377.713 116.727C377.562 113.14 374.532 110.355 370.945 110.506L371.219 117.001L371.492 123.495ZM323.719 119L323.992 125.495L371.492 123.495L371.219 117.001L370.945 110.506L323.445 112.506L323.719 119Z" fill="#F4E4C3"/>
<circle cx="567.911" cy="113.363" r="45.1002" transform="rotate(6.1567 567.911 113.363)" fill="#F4E4C3"/>
<circle cx="566.883" cy="113.247" r="67.385" transform="rotate(6.1567 566.883 113.247)" fill="#F4E4C3"/>
<circle cx="567.96" cy="113.357" r="44.7226" transform="rotate(6.1567 567.96 113.357)" fill="#F4E4C3" stroke="#EA7D9C" stroke-width="5"/>
<circle cx="566.885" cy="113.238" r="65.3851" transform="rotate(6.1567 566.885 113.238)" fill="#F4E4C3" stroke="#EA7D9C" stroke-width="4"/>
<mask id="path-18-inside-1_475_430" fill="white">
<path d="M558.543 46.3717C570.024 44.9394 581.681 46.4874 592.39 50.8669L584.183 70.9373C576.92 67.9671 569.014 66.9172 561.227 67.8886L558.543 46.3717Z"/>
</mask>
<path d="M558.543 46.3717C570.024 44.9394 581.681 46.4874 592.39 50.8669L584.183 70.9373C576.92 67.9671 569.014 66.9172 561.227 67.8886L558.543 46.3717Z" fill="#F4E4C3" stroke="#EA7D9C" stroke-width="28" mask="url(#path-18-inside-1_475_430)"/>
<mask id="path-19-inside-2_475_430" fill="white">
<path d="M508.892 78.9219C514.785 68.9643 523.142 60.6917 533.159 54.9007L544.011 73.6731C537.218 77.6006 531.55 83.2112 527.554 89.9645L508.892 78.9219Z"/>
</mask>
<path d="M508.892 78.9219C514.785 68.9643 523.142 60.6917 533.159 54.9007L544.011 73.6731C537.218 77.6006 531.55 83.2112 527.554 89.9645L508.892 78.9219Z" fill="#F4E4C3" stroke="#EA7D9C" stroke-width="28" mask="url(#path-19-inside-2_475_430)"/>
<mask id="path-20-inside-3_475_430" fill="white">
<path d="M502.982 134.621C499.311 123.649 498.526 111.916 500.705 100.553L522.001 104.635C520.523 112.342 521.055 120.299 523.545 127.741L502.982 134.621Z"/>
</mask>
<path d="M502.982 134.621C499.311 123.649 498.526 111.916 500.705 100.553L522.001 104.635C520.523 112.342 521.055 120.299 523.545 127.741L502.982 134.621Z" fill="#F4E4C3" stroke="#EA7D9C" stroke-width="28" mask="url(#path-20-inside-3_475_430)"/>
<mask id="path-21-inside-4_475_430" fill="white">
<path d="M538.703 174.447C528.193 169.608 519.106 162.145 512.318 152.775L529.877 140.053C534.481 146.407 540.644 151.469 547.771 154.751L538.703 174.447Z"/>
</mask>
<path d="M538.703 174.447C528.193 169.608 519.106 162.145 512.318 152.775L529.877 140.053C534.481 146.407 540.644 151.469 547.771 154.751L538.703 174.447Z" fill="#F4E4C3" stroke="#EA7D9C" stroke-width="28" mask="url(#path-21-inside-4_475_430)"/>
<mask id="path-22-inside-5_475_430" fill="white">
<path d="M614.474 65.5312C622.666 73.7026 628.615 83.8455 631.75 94.9831L610.877 100.857C608.751 93.3038 604.716 86.4247 599.161 80.8828L614.474 65.5312Z"/>
</mask>
<path d="M614.474 65.5312C622.666 73.7026 628.615 83.8455 631.75 94.9831L610.877 100.857C608.751 93.3038 604.716 86.4247 599.161 80.8828L614.474 65.5312Z" fill="#F4E4C3" stroke="#EA7D9C" stroke-width="28" mask="url(#path-22-inside-5_475_430)"/>
<mask id="path-23-inside-6_475_430" fill="white">
<path d="M600.321 171.743C590.276 177.484 578.922 180.542 567.352 180.622L567.201 158.939C575.048 158.884 582.749 156.81 589.562 152.917L600.321 171.743Z"/>
</mask>
<path d="M600.321 171.743C590.276 177.484 578.922 180.542 567.352 180.622L567.201 158.939C575.048 158.884 582.749 156.81 589.562 152.917L600.321 171.743Z" fill="#F4E4C3" stroke="#EA7D9C" stroke-width="28" mask="url(#path-23-inside-6_475_430)"/>
<mask id="path-24-inside-7_475_430" fill="white">
<path d="M633.489 123.469C631.732 134.905 627.06 145.696 619.923 154.803L602.856 141.428C607.697 135.252 610.865 127.933 612.056 120.177L633.489 123.469Z"/>
</mask>
<path d="M633.489 123.469C631.732 134.905 627.06 145.696 619.923 154.803L602.856 141.428C607.697 135.252 610.865 127.933 612.056 120.177L633.489 123.469Z" fill="#F4E4C3" stroke="#EA7D9C" stroke-width="28" mask="url(#path-24-inside-7_475_430)"/>
<circle cx="567.411" cy="112.796" r="43.192" transform="rotate(6.1567 567.411 112.796)" stroke="#EA7D9C" stroke-width="7"/>
<path d="M257.72 121.501L183.719 123.5M492.22 113.5L570.347 111.001" stroke="#F4E4C3" stroke-width="13"/>
</svg>
