<svg width="674" height="213" viewBox="0 0 674 213" fill="none" xmlns="http://www.w3.org/2000/svg">
<path d="M0.21875 122.825L100.59 119.442L176.819 116.873L405.426 109.169L481.736 106.597L647.777 101.001" stroke="#F4E4C3" stroke-width="13"/>
<path d="M647.834 101.001L492.861 106.224M257.134 114.168L184.219 116.626" stroke="#F4E4C3" stroke-width="13"/>
<circle cx="567.909" cy="106.364" r="45.1002" transform="rotate(6.1567 567.909 106.364)" fill="#F4E4C3"/>
<circle cx="566.881" cy="106.248" r="67.385" transform="rotate(6.1567 566.881 106.248)" fill="#F4E4C3"/>
<circle cx="567.958" cy="106.358" r="44.7226" transform="rotate(6.1567 567.958 106.358)" fill="#F4E4C3" stroke="#EA7D9C" stroke-width="5"/>
<circle cx="566.881" cy="106.239" r="65.3851" transform="rotate(6.1567 566.881 106.239)" fill="#F4E4C3" stroke="#EA7D9C" stroke-width="4"/>
<mask id="path-7-inside-1_475_429" fill="white">
<path d="M558.539 39.3727C570.02 37.9404 581.677 39.4884 592.386 43.8678L584.179 63.9382C576.916 60.9681 569.01 59.9182 561.223 60.8896L558.539 39.3727Z"/>
</mask>
<path d="M558.539 39.3727C570.02 37.9404 581.677 39.4884 592.386 43.8678L584.179 63.9382C576.916 60.9681 569.01 59.9182 561.223 60.8896L558.539 39.3727Z" fill="#F4E4C3" stroke="#EA7D9C" stroke-width="28" mask="url(#path-7-inside-1_475_429)"/>
<mask id="path-8-inside-2_475_429" fill="white">
<path d="M508.888 71.9229C514.781 61.9653 523.138 53.6927 533.155 47.9017L544.007 66.6741C537.214 70.6016 531.546 76.2122 527.55 82.9655L508.888 71.9229Z"/>
</mask>
<path d="M508.888 71.9229C514.781 61.9653 523.138 53.6927 533.155 47.9017L544.007 66.6741C537.214 70.6016 531.546 76.2122 527.55 82.9655L508.888 71.9229Z" fill="#F4E4C3" stroke="#EA7D9C" stroke-width="28" mask="url(#path-8-inside-2_475_429)"/>
<mask id="path-9-inside-3_475_429" fill="white">
<path d="M502.978 127.622C499.307 116.65 498.522 104.917 500.701 93.5535L521.997 97.6357C520.519 105.343 521.051 113.3 523.541 120.742L502.978 127.622Z"/>
</mask>
<path d="M502.978 127.622C499.307 116.65 498.522 104.917 500.701 93.5535L521.997 97.6357C520.519 105.343 521.051 113.3 523.541 120.742L502.978 127.622Z" fill="#F4E4C3" stroke="#EA7D9C" stroke-width="28" mask="url(#path-9-inside-3_475_429)"/>
<mask id="path-10-inside-4_475_429" fill="white">
<path d="M538.699 167.448C528.189 162.609 519.102 155.146 512.314 145.776L529.873 133.054C534.477 139.408 540.64 144.47 547.768 147.752L538.699 167.448Z"/>
</mask>
<path d="M538.699 167.448C528.189 162.609 519.102 155.146 512.314 145.776L529.873 133.054C534.477 139.408 540.64 144.47 547.768 147.752L538.699 167.448Z" fill="#F4E4C3" stroke="#EA7D9C" stroke-width="28" mask="url(#path-10-inside-4_475_429)"/>
<mask id="path-11-inside-5_475_429" fill="white">
<path d="M614.47 58.5322C622.662 66.7035 628.611 76.8465 631.746 87.9841L610.873 93.8585C608.747 86.3048 604.712 79.4257 599.157 73.8838L614.47 58.5322Z"/>
</mask>
<path d="M614.47 58.5322C622.662 66.7035 628.611 76.8465 631.746 87.9841L610.873 93.8585C608.747 86.3048 604.712 79.4257 599.157 73.8838L614.47 58.5322Z" fill="#F4E4C3" stroke="#EA7D9C" stroke-width="28" mask="url(#path-11-inside-5_475_429)"/>
<mask id="path-12-inside-6_475_429" fill="white">
<path d="M600.318 164.744C590.272 170.485 578.918 173.543 567.348 173.623L567.197 151.94C575.044 151.885 582.745 149.811 589.558 145.918L600.318 164.744Z"/>
</mask>
<path d="M600.318 164.744C590.272 170.485 578.918 173.543 567.348 173.623L567.197 151.94C575.044 151.885 582.745 149.811 589.558 145.918L600.318 164.744Z" fill="#F4E4C3" stroke="#EA7D9C" stroke-width="28" mask="url(#path-12-inside-6_475_429)"/>
<mask id="path-13-inside-7_475_429" fill="white">
<path d="M633.485 116.47C631.728 127.906 627.056 138.697 619.919 147.804L602.852 134.429C607.693 128.253 610.861 120.934 612.052 113.178L633.485 116.47Z"/>
</mask>
<path d="M633.485 116.47C631.728 127.906 627.056 138.697 619.919 147.804L602.852 134.429C607.693 128.253 610.861 120.934 612.052 113.178L633.485 116.47Z" fill="#F4E4C3" stroke="#EA7D9C" stroke-width="28" mask="url(#path-13-inside-7_475_429)"/>
<circle cx="567.409" cy="105.797" r="43.192" transform="rotate(6.1567 567.409 105.797)" stroke="#EA7D9C" stroke-width="7"/>
<path d="M257.72 114.502L183.719 116.501M492.22 106.501L570.347 104.002" stroke="#F4E4C3" stroke-width="13"/>
</svg>
