<svg width="1440" height="185" viewBox="0 0 1440 185" fill="none" xmlns="http://www.w3.org/2000/svg">
<path d="M-28 117.93H1470" stroke="#E3562B" stroke-width="22"/>
<circle cx="213.103" cy="88.77" r="17.4971" transform="rotate(20.8869 213.103 88.77)" fill="#F4E4C3" stroke="#EA7D9C"/>
<circle cx="212.711" cy="88.6189" r="26.3899" transform="rotate(20.8869 212.711 88.6189)" fill="#F4E4C3" stroke="#EA7D9C"/>
<circle cx="213.106" cy="88.7698" r="16.3441" transform="rotate(20.8869 213.106 88.7698)" fill="#F4E4C3" stroke="#EA7D9C" stroke-width="5"/>
<circle cx="212.712" cy="88.6195" r="24.8899" transform="rotate(20.8869 212.712 88.6195)" fill="#F4E4C3" stroke="#EA7D9C" stroke-width="4"/>
<mask id="path-6-inside-1_309_4241" fill="white">
<path d="M216.275 61.9669C220.851 62.579 225.193 64.3592 228.882 67.136L223.678 74.0491C221.176 72.1658 218.231 70.9585 215.128 70.5433L216.275 61.9669Z"/>
</mask>
<path d="M216.275 61.9669C220.851 62.579 225.193 64.3592 228.882 67.136L223.678 74.0491C221.176 72.1658 218.231 70.9585 215.128 70.5433L216.275 61.9669Z" fill="#F4E4C3" stroke="#EA7D9C" stroke-width="28" mask="url(#path-6-inside-1_309_4241)"/>
<mask id="path-7-inside-2_309_4241" fill="white">
<path d="M193.811 69.4913C197.095 66.2462 201.16 63.9015 205.613 62.6829L207.897 71.0289C204.876 71.8554 202.12 73.4456 199.892 75.6465L193.811 69.4913Z"/>
</mask>
<path d="M193.811 69.4913C197.095 66.2462 201.16 63.9015 205.613 62.6829L207.897 71.0289C204.876 71.8554 202.12 73.4456 199.892 75.6465L193.811 69.4913Z" fill="#F4E4C3" stroke="#EA7D9C" stroke-width="28" mask="url(#path-7-inside-2_309_4241)"/>
<mask id="path-8-inside-3_309_4241" fill="white">
<path d="M185.878 90.3879C185.574 85.7807 186.462 81.173 188.456 77.0085L196.26 80.7447C194.908 83.5692 194.306 86.6942 194.512 89.8188L185.878 90.3879Z"/>
</mask>
<path d="M185.878 90.3879C185.574 85.7807 186.462 81.173 188.456 77.0085L196.26 80.7447C194.908 83.5692 194.306 86.6942 194.512 89.8188L185.878 90.3879Z" fill="#F4E4C3" stroke="#EA7D9C" stroke-width="28" mask="url(#path-8-inside-3_309_4241)"/>
<mask id="path-9-inside-4_309_4241" fill="white">
<path d="M195.623 109.382C192.058 106.449 189.308 102.646 187.639 98.3413L195.706 95.2129C196.839 98.1325 198.703 100.711 201.121 102.701L195.623 109.382Z"/>
</mask>
<path d="M195.623 109.382C192.058 106.449 189.308 102.646 187.639 98.3413L195.706 95.2129C196.839 98.1325 198.703 100.711 201.121 102.701L195.623 109.382Z" fill="#F4E4C3" stroke="#EA7D9C" stroke-width="28" mask="url(#path-9-inside-4_309_4241)"/>
<mask id="path-10-inside-5_309_4241" fill="white">
<path d="M235.917 75.0362C238.249 79.021 239.516 83.5391 239.596 88.1556L230.944 88.3048C230.89 85.1739 230.031 82.1096 228.449 79.4071L235.917 75.0362Z"/>
</mask>
<path d="M235.917 75.0362C238.249 79.021 239.516 83.5391 239.596 88.1556L230.944 88.3048C230.89 85.1739 230.031 82.1096 228.449 79.4071L235.917 75.0362Z" fill="#F4E4C3" stroke="#EA7D9C" stroke-width="28" mask="url(#path-10-inside-5_309_4241)"/>
<mask id="path-11-inside-6_309_4241" fill="white">
<path d="M219.678 114.591C215.219 115.787 210.526 115.815 206.053 114.672L208.195 106.289C211.229 107.064 214.411 107.045 217.436 106.233L219.678 114.591Z"/>
</mask>
<path d="M219.678 114.591C215.219 115.787 210.526 115.815 206.053 114.672L208.195 106.289C211.229 107.064 214.411 107.045 217.436 106.233L219.678 114.591Z" fill="#F4E4C3" stroke="#EA7D9C" stroke-width="28" mask="url(#path-11-inside-6_309_4241)"/>
<mask id="path-12-inside-7_309_4241" fill="white">
<path d="M237.376 99.3256C235.538 103.561 232.64 107.252 228.962 110.042L223.732 103.149C226.227 101.256 228.192 98.753 229.439 95.8805L237.376 99.3256Z"/>
</mask>
<path d="M237.376 99.3256C235.538 103.561 232.64 107.252 228.962 110.042L223.732 103.149C226.227 101.256 228.192 98.753 229.439 95.8805L237.376 99.3256Z" fill="#F4E4C3" stroke="#EA7D9C" stroke-width="28" mask="url(#path-12-inside-7_309_4241)"/>
<circle cx="212.977" cy="88.499" r="15.1323" transform="rotate(20.8869 212.977 88.499)" stroke="#EA7D9C" stroke-width="7"/>
<ellipse cx="77.7278" cy="27.6164" rx="77.7278" ry="27.6164" transform="matrix(0.992824 0.119586 -0.170681 0.985326 406.081 57.2506)" fill="#F79C05"/>
<path d="M449.852 74.927C449.773 73.4566 449.346 71.7364 448.767 70.1202C448.247 68.6692 450.461 65.1397 451.993 65.3133C452.265 65.3442 452.523 65.4504 452.74 65.6184C454.172 66.7264 457.494 69.3366 457.253 74.9724C457.09 78.7925 455.324 81.5881 453.002 83.4153C451.169 84.8579 449.072 82.8536 449.449 80.5517C449.75 78.7094 449.947 76.703 449.852 74.927Z" fill="#E3562B"/>
<path d="M516.209 83.8614C516.199 82.2233 515.815 80.2914 515.276 78.5454C514.849 77.1601 516.979 74.0145 518.457 74.1371C518.757 74.1621 519.038 74.2793 519.262 74.4697C520.533 75.5507 523.319 78.0454 522.869 83.6165C522.579 87.2068 521.063 89.952 519.091 91.8647C517.348 93.556 515.196 91.726 515.628 89.3936C515.967 87.5691 516.219 85.5992 516.209 83.8614Z" fill="#E3562B"/>
<path d="M466.272 78.7287C466.408 75.7933 465.969 72.2197 465.341 69.37C464.972 67.6968 467.16 64.7424 468.906 64.86C469.411 64.894 469.875 65.1265 470.183 65.509C471.444 67.0715 473.823 70.4962 473.007 78.052C472.446 83.2533 470.653 87.2698 468.461 90.0794C466.878 92.109 464.519 90.5333 465.009 88.0584C465.599 85.0779 466.136 81.6601 466.272 78.7287Z" fill="#E3562B"/>
<path d="M482.867 80.7277C483.004 77.7922 482.565 74.2186 481.937 71.3689C481.568 69.6957 483.756 66.7414 485.502 66.8589C486.007 66.8929 486.47 67.1254 486.779 67.5079C488.04 69.0704 490.418 72.4951 489.603 80.0509C489.041 85.2522 487.249 89.2688 485.057 92.0784C483.474 94.1079 481.115 92.5322 481.604 90.0573C482.194 87.0768 482.731 83.6591 482.867 80.7277Z" fill="#E3562B"/>
<path d="M499.811 80.718C499.832 78.7685 499.422 76.4473 498.849 74.4154C498.433 72.9424 500.597 69.8334 502.157 69.9567C502.509 69.9845 502.835 70.1275 503.084 70.3627C504.358 71.562 507.034 74.2875 506.49 80.3651C506.133 84.3573 504.545 87.4195 502.514 89.5561C500.816 91.3423 498.605 89.5837 499.058 87.2176C499.464 85.094 499.789 82.759 499.811 80.718Z" fill="#E3562B"/>
<path d="M332.572 79.3811L337.087 104.95C337.356 106.471 339.175 107.126 340.352 106.126L360.838 88.7166C361.396 88.2424 361.65 87.5011 361.501 86.7842L356.291 61.8055C355.981 60.3199 354.194 59.7071 353.038 60.6898L333.246 77.5093C332.705 77.9692 332.448 78.6817 332.572 79.3811Z" fill="#EA7D9C"/>
<path d="M335.444 82.3715L337.55 94.1364C338.365 98.6928 343.814 100.649 347.341 97.6515L356.894 89.5336C358.571 88.1079 359.334 85.8779 358.879 83.7237L356.456 72.2292C355.518 67.78 350.164 65.9505 346.699 68.895L337.465 76.7425C335.838 78.1255 335.068 80.2692 335.444 82.3715Z" fill="#F4E4C3"/>
<path d="M366.468 119.267L341.962 110.687C340.504 110.176 340.151 108.275 341.328 107.275L361.814 89.8656C362.372 89.3914 363.145 89.26 363.828 89.5232L387.639 98.6938C389.056 99.2392 389.372 101.101 388.216 102.084L368.424 118.904C367.883 119.364 367.138 119.502 366.468 119.267Z" fill="#EA7D9C"/>
<path d="M362.723 86.3871L357.94 60.84C357.655 59.3215 359.127 58.0677 360.581 58.5894L385.842 67.6531C386.554 67.9086 387.061 68.5443 387.152 69.2955L390.233 94.774C390.414 96.2687 388.94 97.4196 387.534 96.8826L363.975 87.8874C363.325 87.6392 362.851 87.071 362.723 86.3871Z" fill="#EA7D9C"/>
<ellipse cx="346.686" cy="83.0467" rx="2.19132" ry="3.1093" transform="rotate(18.8315 346.686 83.0467)" fill="#EA7D9C"/>
<ellipse cx="350.311" cy="72.4832" rx="2.19132" ry="3.1093" transform="rotate(18.8315 350.311 72.4832)" fill="#EA7D9C"/>
<ellipse cx="354.679" cy="85.5033" rx="2.19132" ry="3.1093" transform="rotate(18.8315 354.679 85.5033)" fill="#EA7D9C"/>
<ellipse cx="340.188" cy="80.1064" rx="2.19132" ry="3.1093" transform="rotate(18.8315 340.188 80.1064)" fill="#EA7D9C"/>
<ellipse cx="344.568" cy="93.1294" rx="2.19132" ry="3.1093" transform="rotate(18.8315 344.568 93.1294)" fill="#EA7D9C"/>
<path d="M297.545 60.1789C306.387 57.2957 314.444 61.6148 319.107 69.0166C323.772 76.4221 324.976 86.8377 320.094 95.952C310.271 114.291 287.653 121.295 269.583 111.616C251.513 101.936 244.812 79.2275 254.635 60.8883C259.52 51.7696 268.406 47.1999 276.919 47.0753C285.432 46.9508 293.531 51.2644 296.925 59.8866L297.098 60.3249L297.545 60.1789Z" fill="#2CA66C" stroke="#2CA66C"/>
<path d="M295.95 61.1047L303.664 49.1047H313.95" stroke="#2CA66C" stroke-width="3" stroke-linecap="round"/>
<circle cx="22.8463" cy="22.8463" r="22.8463" transform="matrix(-0.286353 -0.958124 -0.958124 0.286353 90.8633 106.585)" fill="#F79C05"/>
<path d="M47.8776 62.7184C45.5068 62.2873 41.8264 63.9258 41.8264 63.9258C41.8264 63.9258 42.6918 71.0361 46.1018 72.8672C49.0335 74.4415 54.6162 72.5266 54.6162 72.5266C54.6162 72.5266 52.4499 63.5498 47.8776 62.7184Z" fill="#2CA66C"/>
<circle cx="22.8463" cy="22.8463" r="22.8463" transform="matrix(0.958124 -0.286353 -0.286353 -0.958124 95.084 128.863)" fill="#F79C05"/>
<path d="M138.951 85.8777C139.382 83.5069 137.743 79.8266 137.743 79.8266C137.743 79.8266 130.633 80.6919 128.802 84.1019C127.227 87.0337 129.142 92.6163 129.142 92.6163C129.142 92.6163 138.119 90.45 138.951 85.8777Z" fill="#2CA66C"/>
<circle cx="16.4179" cy="16.4179" r="16.4179" transform="matrix(-0.183799 -0.982964 -0.982964 0.183799 158.312 73.58)" fill="#F79C05"/>
<path d="M130.915 38.9771C129.253 38.4895 126.499 39.3817 126.499 39.3817C126.499 39.3817 126.579 44.5285 128.877 46.0952C130.853 47.4423 134.987 46.4966 134.987 46.4966C134.987 46.4966 134.119 39.9175 130.915 38.9771Z" fill="#2CA66C"/>
<circle cx="16.4179" cy="16.4179" r="16.4179" transform="matrix(0.813973 0.580903 0.580903 -0.813973 133 98.7274)" fill="#F79C05"/>
<path d="M176.734 104.667C178.269 103.867 179.635 101.314 179.635 101.314C179.635 101.314 176.009 97.6609 173.267 98.1253C170.909 98.5246 168.585 102.073 168.585 102.073C168.585 102.073 173.772 106.212 176.734 104.667Z" fill="#2CA66C"/>
<circle cx="22.8463" cy="22.8463" r="22.8463" transform="matrix(0.958124 -0.286353 -0.286353 -0.958124 78.084 82.8633)" fill="#F79C05"/>
<path d="M121.951 39.8778C122.382 37.5069 120.743 33.8266 120.743 33.8266C120.743 33.8266 113.633 34.6919 111.802 38.1019C110.227 41.0337 112.142 46.6163 112.142 46.6163C112.142 46.6163 121.119 44.45 121.951 39.8778Z" fill="#2CA66C"/>
<path d="M574.645 54.6519C576.507 47.9538 581.268 42.8186 582.51 34.5575L611.285 34.5575C612.113 42.1487 617.702 49.0702 619.151 54.6519C620.6 60.2337 622.462 110.693 619.151 112.926C615.84 115.159 605.849 118.043 597.001 118.061C588.075 118.079 576.923 114.489 574.645 112.926C572.366 111.363 572.782 61.3501 574.645 54.6519Z" fill="#F4E4C3" stroke="#EA7D9C" stroke-width="7"/>
<path d="M577.623 31.2695C578.352 29.2647 578.155 25.8178 578.155 25.8178L616.708 25C616.708 25 616.249 28.2121 616.708 30.1791C617.372 33.0219 618.836 34.5405 620.696 36.4486C622.557 38.3567 615.392 35.5455 612.188 36.4486C609.455 37.2189 608.636 40.1713 605.807 39.9922C604.133 39.8862 603.496 38.3941 601.819 38.3567C600.045 38.3172 599.338 39.9249 597.564 39.9922C595.596 40.067 594.747 38.2819 592.779 38.3567C591.006 38.424 590.298 39.9275 588.524 39.9922C585.692 40.0956 582.143 36.4486 582.143 36.4486C582.143 36.4486 579.872 38.2756 578.155 38.3567C576.248 38.4467 571.242 38.3567 573.635 36.4486C576.028 34.5405 576.745 33.684 577.623 31.2695Z" fill="#2CA66C" stroke="#2CA66C" stroke-linecap="round"/>
<path d="M597.5 12.5C602.143 12.5 608.165 12.7987 612.811 13.0801C616.585 13.3087 619.5 16.4524 619.5 20.2432C619.5 24.251 616.251 27.5 612.243 27.5L582.757 27.5C578.749 27.5 575.5 24.251 575.5 20.2432C575.5 16.4524 578.415 13.3087 582.189 13.0801C586.835 12.7987 592.857 12.5 597.5 12.5Z" fill="#2CA66C" stroke="#2CA66C"/>
<path d="M642.645 54.6519C644.507 47.9538 649.268 42.8186 650.51 34.5575L679.285 34.5575C680.113 42.1487 685.702 49.0702 687.151 54.6519C688.6 60.2337 690.462 110.693 687.151 112.926C683.84 115.159 673.849 118.043 665.001 118.061C656.075 118.079 644.923 114.489 642.645 112.926C640.366 111.363 640.782 61.3501 642.645 54.6519Z" fill="#F4E4C3" stroke="#EA7D9C" stroke-width="7"/>
<path d="M645.623 31.2695C646.352 29.2647 646.155 25.8178 646.155 25.8178L684.708 25C684.708 25 684.249 28.2121 684.708 30.1791C685.372 33.0219 686.836 34.5405 688.696 36.4486C690.557 38.3567 683.392 35.5455 680.188 36.4486C677.455 37.2189 676.636 40.1713 673.807 39.9922C672.133 39.8862 671.496 38.3941 669.819 38.3567C668.045 38.3172 667.338 39.9249 665.564 39.9922C663.596 40.067 662.747 38.2819 660.779 38.3567C659.006 38.424 658.298 39.9275 656.524 39.9922C653.692 40.0956 650.143 36.4486 650.143 36.4486C650.143 36.4486 647.872 38.2756 646.155 38.3567C644.248 38.4467 639.242 38.3567 641.635 36.4486C644.028 34.5405 644.745 33.684 645.623 31.2695Z" fill="#2CA66C" stroke="#2CA66C" stroke-linecap="round"/>
<path d="M665.5 12.5C670.143 12.5 676.165 12.7987 680.811 13.0801C684.585 13.3087 687.5 16.4524 687.5 20.2432C687.5 24.251 684.251 27.5 680.243 27.5L650.757 27.5C646.749 27.5 643.5 24.251 643.5 20.2432C643.5 16.4524 646.415 13.3087 650.189 13.0801C654.835 12.7987 660.857 12.5 665.5 12.5Z" fill="#2CA66C" stroke="#2CA66C"/>
<path d="M708.645 53.6519C710.507 46.9538 715.268 41.8186 716.51 33.5575L745.285 33.5575C746.113 41.1487 751.702 48.0702 753.151 53.6519C754.6 59.2337 756.462 109.693 753.151 111.926C749.84 114.159 739.849 117.043 731.001 117.061C722.075 117.079 710.923 113.489 708.645 111.926C706.366 110.363 706.782 60.3501 708.645 53.6519Z" fill="#F4E4C3" stroke="#EA7D9C" stroke-width="7"/>
<path d="M711.623 30.2695C712.352 28.2647 712.155 24.8178 712.155 24.8178L750.708 24C750.708 24 750.249 27.2121 750.708 29.1791C751.372 32.0219 752.836 33.5405 754.696 35.4486C756.557 37.3567 749.392 34.5455 746.188 35.4486C743.455 36.2189 742.636 39.1713 739.807 38.9922C738.133 38.8862 737.496 37.3941 735.819 37.3567C734.045 37.3172 733.338 38.9249 731.564 38.9922C729.596 39.067 728.747 37.2819 726.779 37.3567C725.006 37.424 724.298 38.9275 722.524 38.9922C719.692 39.0956 716.143 35.4486 716.143 35.4486C716.143 35.4486 713.872 37.2756 712.155 37.3567C710.248 37.4467 705.242 37.3567 707.635 35.4486C710.028 33.5405 710.745 32.684 711.623 30.2695Z" fill="#2CA66C" stroke="#2CA66C" stroke-linecap="round"/>
<path d="M731.5 11.5C736.143 11.5 742.165 11.7987 746.811 12.0801C750.585 12.3087 753.5 15.4524 753.5 19.2432C753.5 23.251 750.251 26.5 746.243 26.5L716.757 26.5C712.749 26.5 709.5 23.251 709.5 19.2432C709.5 15.4524 712.415 12.3087 716.189 12.0801C720.835 11.7987 726.857 11.5 731.5 11.5Z" fill="#2CA66C" stroke="#2CA66C"/>
<path d="M776.645 53.6519C778.507 46.9538 783.268 41.8186 784.51 33.5575L813.285 33.5575C814.113 41.1487 819.702 48.0702 821.151 53.6519C822.6 59.2337 824.462 109.693 821.151 111.926C817.84 114.159 807.849 117.043 799.001 117.061C790.075 117.079 778.923 113.489 776.645 111.926C774.366 110.363 774.782 60.3501 776.645 53.6519Z" fill="#F4E4C3" stroke="#EA7D9C" stroke-width="7"/>
<path d="M779.623 30.2695C780.352 28.2647 780.155 24.8178 780.155 24.8178L818.708 24C818.708 24 818.249 27.2121 818.708 29.1791C819.372 32.0219 820.836 33.5405 822.696 35.4486C824.557 37.3567 817.392 34.5455 814.188 35.4486C811.455 36.2189 810.636 39.1713 807.807 38.9922C806.133 38.8862 805.496 37.3941 803.819 37.3567C802.045 37.3172 801.338 38.9249 799.564 38.9922C797.596 39.067 796.747 37.2819 794.779 37.3567C793.006 37.424 792.298 38.9275 790.524 38.9922C787.692 39.0956 784.143 35.4486 784.143 35.4486C784.143 35.4486 781.872 37.2756 780.155 37.3567C778.248 37.4467 773.242 37.3567 775.635 35.4486C778.028 33.5405 778.745 32.684 779.623 30.2695Z" fill="#2CA66C" stroke="#2CA66C" stroke-linecap="round"/>
<path d="M799.5 11.5C804.143 11.5 810.165 11.7987 814.811 12.0801C818.585 12.3087 821.5 15.4524 821.5 19.2432C821.5 23.251 818.251 26.5 814.243 26.5L784.757 26.5C780.749 26.5 777.5 23.251 777.5 19.2432C777.5 15.4524 780.415 12.3087 784.189 12.0801C788.835 11.7987 794.857 11.5 799.5 11.5Z" fill="#2CA66C" stroke="#2CA66C"/>
<circle cx="1020.1" cy="85.77" r="17.4971" transform="rotate(20.8869 1020.1 85.77)" fill="#F4E4C3" stroke="#EA7D9C"/>
<circle cx="1019.71" cy="85.6189" r="26.3899" transform="rotate(20.8869 1019.71 85.6189)" fill="#F4E4C3" stroke="#EA7D9C"/>
<circle cx="1020.11" cy="85.7699" r="16.3441" transform="rotate(20.8869 1020.11 85.7699)" fill="#F4E4C3" stroke="#EA7D9C" stroke-width="5"/>
<circle cx="1019.71" cy="85.6195" r="24.8899" transform="rotate(20.8869 1019.71 85.6195)" fill="#F4E4C3" stroke="#EA7D9C" stroke-width="4"/>
<mask id="path-57-inside-8_309_4241" fill="white">
<path d="M1023.27 58.9669C1027.85 59.5791 1032.19 61.3593 1035.88 64.136L1030.68 71.0491C1028.18 69.1659 1025.23 67.9585 1022.13 67.5433L1023.27 58.9669Z"/>
</mask>
<path d="M1023.27 58.9669C1027.85 59.5791 1032.19 61.3593 1035.88 64.136L1030.68 71.0491C1028.18 69.1659 1025.23 67.9585 1022.13 67.5433L1023.27 58.9669Z" fill="#F4E4C3" stroke="#EA7D9C" stroke-width="28" mask="url(#path-57-inside-8_309_4241)"/>
<mask id="path-58-inside-9_309_4241" fill="white">
<path d="M1000.81 66.4913C1004.09 63.2462 1008.16 60.9015 1012.61 59.6829L1014.9 68.029C1011.88 68.8554 1009.12 70.4456 1006.89 72.6465L1000.81 66.4913Z"/>
</mask>
<path d="M1000.81 66.4913C1004.09 63.2462 1008.16 60.9015 1012.61 59.6829L1014.9 68.029C1011.88 68.8554 1009.12 70.4456 1006.89 72.6465L1000.81 66.4913Z" fill="#F4E4C3" stroke="#EA7D9C" stroke-width="28" mask="url(#path-58-inside-9_309_4241)"/>
<mask id="path-59-inside-10_309_4241" fill="white">
<path d="M992.878 87.3879C992.574 82.7807 993.462 78.173 995.456 74.0085L1003.26 77.7448C1001.91 80.5692 1001.31 83.6942 1001.51 86.8188L992.878 87.3879Z"/>
</mask>
<path d="M992.878 87.3879C992.574 82.7807 993.462 78.173 995.456 74.0085L1003.26 77.7448C1001.91 80.5692 1001.31 83.6942 1001.51 86.8188L992.878 87.3879Z" fill="#F4E4C3" stroke="#EA7D9C" stroke-width="28" mask="url(#path-59-inside-10_309_4241)"/>
<mask id="path-60-inside-11_309_4241" fill="white">
<path d="M1002.62 106.382C999.058 103.449 996.308 99.6461 994.639 95.3414L1002.71 92.2129C1003.84 95.1325 1005.7 97.7114 1008.12 99.7012L1002.62 106.382Z"/>
</mask>
<path d="M1002.62 106.382C999.058 103.449 996.308 99.6461 994.639 95.3414L1002.71 92.2129C1003.84 95.1325 1005.7 97.7114 1008.12 99.7012L1002.62 106.382Z" fill="#F4E4C3" stroke="#EA7D9C" stroke-width="28" mask="url(#path-60-inside-11_309_4241)"/>
<mask id="path-61-inside-12_309_4241" fill="white">
<path d="M1042.92 72.0362C1045.25 76.021 1046.52 80.5391 1046.6 85.1556L1037.94 85.3048C1037.89 82.1739 1037.03 79.1096 1035.45 76.4071L1042.92 72.0362Z"/>
</mask>
<path d="M1042.92 72.0362C1045.25 76.021 1046.52 80.5391 1046.6 85.1556L1037.94 85.3048C1037.89 82.1739 1037.03 79.1096 1035.45 76.4071L1042.92 72.0362Z" fill="#F4E4C3" stroke="#EA7D9C" stroke-width="28" mask="url(#path-61-inside-12_309_4241)"/>
<mask id="path-62-inside-13_309_4241" fill="white">
<path d="M1026.68 111.591C1022.22 112.787 1017.53 112.815 1013.05 111.672L1015.2 103.289C1018.23 104.064 1021.41 104.045 1024.44 103.233L1026.68 111.591Z"/>
</mask>
<path d="M1026.68 111.591C1022.22 112.787 1017.53 112.815 1013.05 111.672L1015.2 103.289C1018.23 104.064 1021.41 104.045 1024.44 103.233L1026.68 111.591Z" fill="#F4E4C3" stroke="#EA7D9C" stroke-width="28" mask="url(#path-62-inside-13_309_4241)"/>
<mask id="path-63-inside-14_309_4241" fill="white">
<path d="M1044.38 96.3256C1042.54 100.561 1039.64 104.252 1035.96 107.042L1030.73 100.149C1033.23 98.256 1035.19 95.753 1036.44 92.8805L1044.38 96.3256Z"/>
</mask>
<path d="M1044.38 96.3256C1042.54 100.561 1039.64 104.252 1035.96 107.042L1030.73 100.149C1033.23 98.256 1035.19 95.753 1036.44 92.8805L1044.38 96.3256Z" fill="#F4E4C3" stroke="#EA7D9C" stroke-width="28" mask="url(#path-63-inside-14_309_4241)"/>
<circle cx="1019.98" cy="85.499" r="15.1323" transform="rotate(20.8869 1019.98 85.499)" stroke="#EA7D9C" stroke-width="7"/>
<ellipse cx="77.7278" cy="27.6164" rx="77.7278" ry="27.6164" transform="matrix(0.992824 0.119586 -0.170681 0.985326 1213.08 54.2506)" fill="#F79C05"/>
<path d="M1256.85 71.927C1256.77 70.4566 1256.35 68.7364 1255.77 67.1202C1255.25 65.6692 1257.46 62.1397 1258.99 62.3133C1259.27 62.3442 1259.52 62.4504 1259.74 62.6184C1261.17 63.7264 1264.5 66.3366 1264.25 71.9724C1264.09 75.7925 1262.33 78.5881 1260 80.4153C1258.17 81.8579 1256.07 79.8536 1256.45 77.5517C1256.75 75.7094 1256.95 73.703 1256.85 71.927Z" fill="#E3562B"/>
<path d="M1323.21 80.8614C1323.2 79.2233 1322.82 77.2914 1322.28 75.5454C1321.85 74.1601 1323.98 71.0145 1325.46 71.1371C1325.76 71.1621 1326.04 71.2793 1326.26 71.4697C1327.53 72.5507 1330.32 75.0455 1329.87 80.6165C1329.58 84.2068 1328.06 86.952 1326.09 88.8648C1324.35 90.556 1322.2 88.726 1322.63 86.3936C1322.97 84.5691 1323.22 82.5992 1323.21 80.8614Z" fill="#E3562B"/>
<path d="M1273.27 75.7287C1273.41 72.7933 1272.97 69.2197 1272.34 66.37C1271.97 64.6968 1274.16 61.7424 1275.91 61.86C1276.41 61.894 1276.88 62.1265 1277.19 62.509C1278.45 64.0715 1280.82 67.4962 1280.01 75.052C1279.45 80.2533 1277.66 84.2698 1275.46 87.0794C1273.88 89.109 1271.52 87.5333 1272.01 85.0584C1272.6 82.0779 1273.14 78.6601 1273.27 75.7287Z" fill="#E3562B"/>
<path d="M1289.87 77.7277C1290.01 74.7922 1289.57 71.2186 1288.94 68.3689C1288.57 66.6957 1290.76 63.7414 1292.5 63.8589C1293.01 63.8929 1293.47 64.1254 1293.78 64.5079C1295.04 66.0704 1297.42 69.4951 1296.6 77.0509C1296.04 82.2522 1294.25 86.2688 1292.06 89.0784C1290.48 91.1079 1288.12 89.5322 1288.61 87.0573C1289.2 84.0768 1289.73 80.6591 1289.87 77.7277Z" fill="#E3562B"/>
<path d="M1306.81 77.718C1306.83 75.7685 1306.42 73.4473 1305.85 71.4154C1305.43 69.9424 1307.6 66.8334 1309.16 66.9567C1309.51 66.9845 1309.84 67.1275 1310.09 67.3627C1311.36 68.562 1314.04 71.2875 1313.49 77.3651C1313.14 81.3573 1311.55 84.4195 1309.52 86.5561C1307.82 88.3423 1305.61 86.5837 1306.06 84.2176C1306.47 82.094 1306.79 79.759 1306.81 77.718Z" fill="#E3562B"/>
<path d="M1139.57 76.3811L1144.09 101.95C1144.36 103.471 1146.17 104.126 1147.35 103.126L1167.84 85.7166C1168.4 85.2424 1168.65 84.5011 1168.5 83.7842L1163.29 58.8055C1162.98 57.3199 1161.19 56.7071 1160.04 57.6898L1140.25 74.5093C1139.71 74.9692 1139.45 75.6817 1139.57 76.3811Z" fill="#EA7D9C"/>
<path d="M1142.44 79.3715L1144.55 91.1364C1145.37 95.6928 1150.81 97.6489 1154.34 94.6515L1163.89 86.5336C1165.57 85.1079 1166.33 82.8779 1165.88 80.7237L1163.46 69.2292C1162.52 64.78 1157.16 62.9505 1153.7 65.895L1144.47 73.7425C1142.84 75.1255 1142.07 77.2692 1142.44 79.3715Z" fill="#F4E4C3"/>
<path d="M1173.47 116.267L1148.96 107.687C1147.5 107.176 1147.15 105.275 1148.33 104.275L1168.81 86.8656C1169.37 86.3914 1170.14 86.26 1170.83 86.5232L1194.64 95.6938C1196.06 96.2392 1196.37 98.1014 1195.22 99.0842L1175.42 115.904C1174.88 116.364 1174.14 116.502 1173.47 116.267Z" fill="#EA7D9C"/>
<path d="M1169.72 83.3871L1164.94 57.84C1164.66 56.3215 1166.13 55.0677 1167.58 55.5894L1192.84 64.6531C1193.55 64.9086 1194.06 65.5443 1194.15 66.2955L1197.23 91.774C1197.41 93.2687 1195.94 94.4196 1194.53 93.8826L1170.98 84.8874C1170.33 84.6392 1169.85 84.071 1169.72 83.3871Z" fill="#EA7D9C"/>
<ellipse cx="1153.69" cy="80.0467" rx="2.19132" ry="3.1093" transform="rotate(18.8315 1153.69 80.0467)" fill="#EA7D9C"/>
<ellipse cx="1157.31" cy="69.4832" rx="2.19132" ry="3.1093" transform="rotate(18.8315 1157.31 69.4832)" fill="#EA7D9C"/>
<ellipse cx="1161.68" cy="82.5033" rx="2.19132" ry="3.1093" transform="rotate(18.8315 1161.68 82.5033)" fill="#EA7D9C"/>
<ellipse cx="1147.19" cy="77.1064" rx="2.19132" ry="3.1093" transform="rotate(18.8315 1147.19 77.1064)" fill="#EA7D9C"/>
<ellipse cx="1151.57" cy="90.1294" rx="2.19132" ry="3.1093" transform="rotate(18.8315 1151.57 90.1294)" fill="#EA7D9C"/>
<path d="M1104.55 57.1789C1113.39 54.2957 1121.44 58.6148 1126.11 66.0166C1130.77 73.4221 1131.98 83.8377 1127.09 92.952C1117.27 111.291 1094.65 118.295 1076.58 108.616C1058.51 98.9361 1051.81 76.2275 1061.64 57.8883C1066.52 48.7696 1075.41 44.1999 1083.92 44.0753C1092.43 43.9508 1100.53 48.2644 1103.93 56.8866L1104.1 57.3249L1104.55 57.1789Z" fill="#2CA66C" stroke="#2CA66C"/>
<path d="M1102.95 58.1048L1110.66 46.1048H1120.95" stroke="#2CA66C" stroke-width="3" stroke-linecap="round"/>
<circle cx="22.8463" cy="22.8463" r="22.8463" transform="matrix(-0.286353 -0.958124 -0.958124 0.286353 897.863 103.585)" fill="#F79C05"/>
<path d="M854.878 59.7184C852.507 59.2873 848.826 60.9258 848.826 60.9258C848.826 60.9258 849.692 68.0361 853.102 69.8672C856.034 71.4415 861.616 69.5266 861.616 69.5266C861.616 69.5266 859.45 60.5498 854.878 59.7184Z" fill="#2CA66C"/>
<circle cx="22.8463" cy="22.8463" r="22.8463" transform="matrix(0.958124 -0.286353 -0.286353 -0.958124 902.084 125.863)" fill="#F79C05"/>
<path d="M945.951 82.8777C946.382 80.5069 944.743 76.8266 944.743 76.8266C944.743 76.8266 937.633 77.6919 935.802 81.1019C934.227 84.0337 936.142 89.6163 936.142 89.6163C936.142 89.6163 945.119 87.45 945.951 82.8777Z" fill="#2CA66C"/>
<circle cx="16.4179" cy="16.4179" r="16.4179" transform="matrix(-0.183799 -0.982964 -0.982964 0.183799 965.312 70.58)" fill="#F79C05"/>
<circle cx="16.4179" cy="16.4179" r="16.4179" transform="matrix(0.813973 0.580903 0.580903 -0.813973 940 95.7274)" fill="#F79C05"/>
<circle cx="22.8463" cy="22.8463" r="22.8463" transform="matrix(0.958124 -0.286353 -0.286353 -0.958124 885.084 79.8633)" fill="#F79C05"/>
<path d="M1381.64 51.6519C1383.51 44.9538 1388.27 39.8186 1389.51 31.5575L1418.28 31.5575C1419.11 39.1487 1424.7 46.0702 1426.15 51.6519C1427.6 57.2337 1429.46 107.693 1426.15 109.926C1422.84 112.159 1412.85 115.043 1404 115.061C1395.07 115.079 1383.92 111.489 1381.64 109.926C1379.37 108.363 1379.78 58.3501 1381.64 51.6519Z" fill="#F4E4C3" stroke="#EA7D9C" stroke-width="7"/>
<path d="M1384.62 28.2695C1385.35 26.2647 1385.16 22.8178 1385.16 22.8178L1423.71 22C1423.71 22 1423.25 25.2121 1423.71 27.1791C1424.37 30.0219 1425.84 31.5405 1427.7 33.4486C1429.56 35.3567 1422.39 32.5455 1419.19 33.4486C1416.46 34.2189 1415.64 37.1713 1412.81 36.9922C1411.13 36.8862 1410.5 35.3941 1408.82 35.3567C1407.04 35.3172 1406.34 36.9249 1404.56 36.9922C1402.6 37.067 1401.75 35.2819 1399.78 35.3567C1398.01 35.424 1397.3 36.9275 1395.52 36.9922C1392.69 37.0956 1389.14 33.4486 1389.14 33.4486C1389.14 33.4486 1386.87 35.2756 1385.16 35.3567C1383.25 35.4467 1378.24 35.3567 1380.64 33.4486C1383.03 31.5405 1383.75 30.684 1384.62 28.2695Z" fill="#2CA66C" stroke="#2CA66C" stroke-linecap="round"/>
<path d="M1404.5 9.50002C1409.14 9.50002 1415.17 9.79872 1419.81 10.0801C1423.59 10.3087 1426.5 13.4524 1426.5 17.2432C1426.5 21.251 1423.25 24.5 1419.24 24.5L1389.76 24.5C1385.75 24.5 1382.5 21.251 1382.5 17.2432C1382.5 13.4524 1385.41 10.3087 1389.19 10.0801C1393.83 9.79872 1399.86 9.50002 1404.5 9.50002Z" fill="#2CA66C" stroke="#2CA66C"/>
<path d="M938.658 36.4389C936.996 35.9513 934.242 36.8435 934.242 36.8435C934.242 36.8435 934.322 41.9902 936.62 43.557C938.596 44.904 942.731 43.9583 942.731 43.9583C942.731 43.9583 941.862 37.3792 938.658 36.4389Z" fill="#2CA66C"/>
<path d="M929.694 37.3395C930.125 34.9687 928.486 31.2883 928.486 31.2883C928.486 31.2883 921.376 32.1537 919.545 35.5636C917.971 38.4954 919.885 44.078 919.885 44.078C919.885 44.078 928.862 41.9118 929.694 37.3395Z" fill="#2CA66C"/>
<path d="M985.16 97.4796C986.696 96.6789 988.062 94.1264 988.062 94.1264C988.062 94.1264 984.436 90.4731 981.693 90.9375C979.336 91.3367 977.012 94.8848 977.012 94.8848C977.012 94.8848 982.199 99.0237 985.16 97.4796Z" fill="#2CA66C"/>
</svg>
