<svg width="500" height="705" viewBox="0 0 500 705" fill="none" xmlns="http://www.w3.org/2000/svg">
<path d="M273.049 567.112C281.966 553.043 304.755 542.257 310.7 524.906H448.447C452.412 540.85 479.168 555.388 486.103 567.112C493.039 578.836 501.954 684.82 486.103 689.51C470.253 694.2 422.425 700.258 380.072 700.296C337.34 700.335 283.956 692.793 273.049 689.51C262.142 686.227 264.133 581.181 273.049 567.112Z" fill="#F79C05" stroke="#F79C05" stroke-width="9"/>
<path d="M301.741 530.226C302.778 529 302.5 526.087 301.706 522.832C300.161 516.494 304.433 509.754 310.957 509.754H448.993C454.396 509.754 458.542 514.484 458.37 519.884C458.257 523.446 458.385 526.917 459.156 528.338C461.829 533.26 466.344 531.394 473.076 536.203C479.809 541.012 453.855 537.629 440.952 539.192C429.946 540.526 426.644 545.637 415.251 545.327C408.508 545.143 405.943 542.56 399.189 542.495C392.044 542.427 389.196 545.21 382.055 545.327C374.126 545.456 370.709 542.366 362.78 542.495C355.639 542.612 352.788 545.215 345.646 545.327C337.596 545.453 328.109 542.346 323.222 540.506C321.094 539.705 318.756 539.613 316.569 540.234C313.276 541.169 308.154 542.409 303.883 542.495C296.203 542.651 278.29 539.507 287.93 536.203C297.569 532.9 298.205 534.406 301.741 530.226Z" fill="#34A46A" stroke="#34A46A" stroke-linecap="round"/>
<path d="M380.262 498.712C404.581 498.712 438.443 499.599 456.404 500.126C463.019 500.321 468.247 505.743 468.247 512.366C468.247 519.146 462.751 524.643 455.971 524.643H304.553C297.773 524.643 292.276 519.146 292.276 512.366C292.277 505.743 297.505 500.32 304.12 500.126C322.082 499.599 355.943 498.712 380.262 498.712Z" fill="#34A46A" stroke="#34A46A"/>
<path d="M273.049 68.8995C281.966 54.8307 304.755 44.0447 310.7 26.6932H448.447C452.412 42.6378 479.168 57.1755 486.103 68.8995C493.039 80.6235 501.954 186.608 486.103 191.298C470.253 195.987 422.425 202.046 380.072 202.084C337.34 202.122 283.956 194.58 273.049 191.298C262.142 188.015 264.133 82.9683 273.049 68.8995Z" fill="#F79C05" stroke="#F79C05" stroke-width="9"/>
<path d="M301.741 32.0134C302.778 30.7878 302.5 27.8752 301.706 24.6197C300.161 18.282 304.433 11.5415 310.957 11.5415H448.993C454.396 11.5415 458.542 16.2721 458.37 21.6716C458.257 25.2341 458.385 28.7049 459.156 30.1258C461.829 35.0473 466.344 33.182 473.076 37.991C479.809 42.8 453.855 39.4163 440.952 40.9797C429.946 42.3133 426.644 47.4246 415.251 47.1146C408.508 46.931 405.943 44.3478 399.189 44.2831C392.044 44.2147 389.196 46.998 382.055 47.1146C374.126 47.244 370.709 44.1537 362.78 44.2831C355.639 44.3997 352.788 47.0025 345.646 47.1146C337.596 47.2409 328.109 44.1336 323.222 42.2938C321.094 41.4929 318.756 41.4003 316.569 42.0215C313.276 42.9569 308.154 44.1964 303.883 44.2831C296.203 44.439 278.29 41.2944 287.93 37.991C297.569 34.6876 298.205 36.1936 301.741 32.0134Z" fill="#34A46A" stroke="#34A46A" stroke-linecap="round"/>
<path d="M380.262 0.5C404.581 0.5 438.443 1.38706 456.404 1.91406C463.019 2.10831 468.247 7.53096 468.247 14.1533C468.247 20.9336 462.751 26.4306 455.971 26.4307H304.553C297.773 26.4304 292.276 20.9335 292.276 14.1533C292.277 7.53087 297.505 2.10816 304.12 1.91406C322.082 1.38706 355.943 0.500005 380.262 0.5Z" fill="#34A46A" stroke="#34A46A"/>
<path d="M226.405 318.006C217.488 303.937 194.699 293.151 188.754 275.8H51.0068C47.0421 291.744 20.2865 306.282 13.3507 318.006C6.41493 329.73 -2.49966 435.714 13.3507 440.404C29.2011 445.094 77.0287 451.152 119.382 451.19C162.115 451.229 215.498 443.687 226.405 440.404C237.312 437.121 235.322 332.075 226.405 318.006Z" fill="#F79C05" stroke="#F79C05" stroke-width="9"/>
<path d="M197.714 281.12C196.677 279.894 196.955 276.981 197.749 273.726C199.294 267.388 195.022 260.648 188.498 260.648H50.4617C45.0595 260.648 40.9132 265.378 41.0848 270.778C41.198 274.34 41.0703 277.811 40.2988 279.232C37.6263 284.154 33.1115 282.288 26.3789 287.097C19.6463 291.906 45.5999 288.523 58.5032 290.086C69.5092 291.42 72.8109 296.531 84.2036 296.221C90.9469 296.037 93.5118 293.454 100.266 293.389C107.411 293.321 110.259 296.104 117.4 296.221C125.329 296.35 128.746 293.26 136.675 293.389C143.816 293.506 146.667 296.109 153.809 296.221C161.859 296.347 171.346 293.24 176.233 291.4C178.361 290.599 180.699 290.507 182.886 291.128C186.179 292.063 191.301 293.303 195.572 293.389C203.252 293.545 221.165 290.401 211.525 287.097C201.886 283.794 201.251 285.3 197.714 281.12Z" fill="#34A46A" stroke="#34A46A" stroke-linecap="round"/>
<path d="M119.192 249.606C94.8731 249.606 61.0114 250.493 43.0498 251.02C36.4347 251.214 31.2072 256.637 31.207 263.259C31.207 270.04 36.7031 275.537 43.4834 275.537H194.901C201.681 275.537 207.178 270.04 207.178 263.259C207.178 256.637 201.949 251.214 195.334 251.02C177.372 250.493 143.512 249.606 119.192 249.606Z" fill="#34A46A" stroke="#34A46A"/>
</svg>
