<svg width="780" height="705" viewBox="0 0 780 705" fill="none" xmlns="http://www.w3.org/2000/svg">
<path d="M11.9524 567.112C20.8689 553.043 43.658 542.257 49.6037 524.906H187.351C191.315 540.85 218.071 555.388 225.007 567.112C231.942 578.836 240.857 684.82 225.007 689.51C209.156 694.2 161.329 700.258 118.975 700.296C76.2429 700.335 22.8593 692.793 11.9524 689.51C1.04556 686.227 3.03588 581.181 11.9524 567.112Z" fill="#EA7D9C" stroke="#EA7D9C" stroke-width="9"/>
<path d="M40.6447 530.226C41.6816 529 41.4034 526.087 40.6095 522.832C39.064 516.494 43.3366 509.754 49.8601 509.754H187.897C193.299 509.754 197.445 514.484 197.274 519.884C197.16 523.446 197.288 526.917 198.06 528.338C200.732 533.26 205.247 531.394 211.98 536.203C218.712 541.012 192.759 537.629 179.855 539.192C168.849 540.526 165.548 545.637 154.155 545.327C147.412 545.143 144.847 542.56 138.092 542.495C130.948 542.427 128.1 545.21 120.958 545.327C113.029 545.456 109.612 542.366 101.683 542.495C94.5419 542.612 91.6911 545.215 84.5495 545.327C76.4994 545.453 67.012 542.346 62.125 540.506C59.9976 539.705 57.659 539.613 55.4723 540.234C52.1792 541.169 47.057 542.409 42.7864 542.495C35.1061 542.651 17.1936 539.507 26.8331 536.203C36.4727 532.9 37.1079 534.406 40.6447 530.226Z" fill="#34A46A" stroke="#34A46A" stroke-linecap="round"/>
<path d="M119.165 498.712C143.484 498.712 177.346 499.599 195.308 500.126C201.923 500.321 207.15 505.743 207.15 512.366C207.15 519.146 201.654 524.643 194.874 524.643H43.4561C36.676 524.643 31.1797 519.146 31.1797 512.366C31.1798 505.743 36.4082 500.32 43.0234 500.126C60.9851 499.599 94.8459 498.712 119.165 498.712Z" fill="#34A46A" stroke="#34A46A"/>
<path d="M11.9524 68.8995C20.8689 54.8307 43.658 44.0447 49.6037 26.6932H187.351C191.315 42.6378 218.071 57.1755 225.007 68.8995C231.942 80.6235 240.857 186.608 225.007 191.298C209.156 195.987 161.329 202.046 118.975 202.084C76.2429 202.122 22.8593 194.58 11.9524 191.298C1.04556 188.015 3.03588 82.9683 11.9524 68.8995Z" fill="#EA7D9C" stroke="#EA7D9C" stroke-width="9"/>
<path d="M40.6447 32.0134C41.6816 30.7878 41.4034 27.8752 40.6095 24.6197C39.064 18.282 43.3366 11.5415 49.8601 11.5415H187.897C193.299 11.5415 197.445 16.2721 197.274 21.6716C197.16 25.2341 197.288 28.7049 198.06 30.1258C200.732 35.0473 205.247 33.182 211.98 37.991C218.712 42.8 192.759 39.4163 179.855 40.9797C168.849 42.3133 165.548 47.4246 154.155 47.1146C147.412 46.931 144.847 44.3478 138.092 44.2831C130.948 44.2147 128.1 46.998 120.958 47.1146C113.029 47.244 109.612 44.1537 101.683 44.2831C94.5419 44.3997 91.6911 47.0025 84.5495 47.1146C76.4994 47.2409 67.012 44.1336 62.125 42.2938C59.9976 41.4929 57.659 41.4003 55.4723 42.0215C52.1792 42.9569 47.057 44.1964 42.7864 44.2831C35.1061 44.439 17.1936 41.2944 26.8331 37.991C36.4727 34.6876 37.1079 36.1936 40.6447 32.0134Z" fill="#34A46A" stroke="#34A46A" stroke-linecap="round"/>
<path d="M119.165 0.5C143.484 0.5 177.346 1.38706 195.308 1.91406C201.923 2.10831 207.15 7.53096 207.15 14.1533C207.15 20.9336 201.654 26.4306 194.874 26.4307H43.4561C36.676 26.4304 31.1797 20.9335 31.1797 14.1533C31.1798 7.53087 36.4082 2.10816 43.0234 1.91406C60.9851 1.38706 94.8459 0.500005 119.165 0.5Z" fill="#34A46A" stroke="#34A46A"/>
<path d="M767.45 318.006C758.533 303.937 735.744 293.151 729.799 275.8H592.052C588.087 291.744 561.331 306.282 554.396 318.006C547.46 329.73 538.545 435.714 554.396 440.404C570.246 445.094 618.074 451.152 660.427 451.19C703.159 451.229 756.543 443.687 767.45 440.404C778.357 437.121 776.366 332.075 767.45 318.006Z" fill="#EA7D9C" stroke="#EA7D9C" stroke-width="9"/>
<path d="M738.758 281.12C737.721 279.894 737.999 276.981 738.793 273.726C740.338 267.388 736.066 260.648 729.542 260.648H591.506C586.103 260.648 581.957 265.378 582.129 270.778C582.242 274.34 582.114 277.811 581.343 279.232C578.67 284.154 574.155 282.288 567.423 287.097C560.69 291.906 586.644 288.523 599.547 290.086C610.553 291.42 613.855 296.531 625.248 296.221C631.991 296.037 634.556 293.454 641.31 293.389C648.455 293.321 651.303 296.104 658.444 296.221C666.373 296.35 669.79 293.26 677.719 293.389C684.86 293.506 687.711 296.109 694.853 296.221C702.903 296.347 712.39 293.24 717.277 291.4C719.405 290.599 721.743 290.507 723.93 291.128C727.223 292.063 732.345 293.303 736.616 293.389C744.296 293.545 762.209 290.401 752.569 287.097C742.93 283.794 742.294 285.3 738.758 281.12Z" fill="#34A46A" stroke="#34A46A" stroke-linecap="round"/>
<path d="M660.236 249.606C635.917 249.606 602.055 250.493 584.094 251.02C577.479 251.214 572.251 256.637 572.251 263.259C572.251 270.04 577.747 275.537 584.527 275.537H735.945C742.725 275.537 748.222 270.04 748.222 263.259C748.222 256.637 742.993 251.214 736.378 251.02C718.416 250.493 684.555 249.606 660.236 249.606Z" fill="#34A46A" stroke="#34A46A"/>
</svg>
