<svg width="295" height="403" viewBox="0 0 295 403" fill="none" xmlns="http://www.w3.org/2000/svg">
<path d="M130.405 315.084C135.405 323.925 135.797 334.148 143.053 343.962L113.341 373.704C104.639 366.722 91.7139 365.352 84.4485 361.085C77.1831 356.819 23.1053 306.641 24.2166 300.913C25.3278 295.185 32.6631 281.88 41.7802 272.716C50.9788 263.471 66.2051 255.652 70.1732 254.911C74.1413 254.17 125.405 306.242 130.405 315.084Z" fill="#E3562B" stroke="#E3562B" stroke-width="7"/>
<path d="M146.983 343.532C148.052 345.866 151.15 348.618 151.15 348.618L118.352 382.836C118.352 382.836 116.024 379.713 113.955 378.444C110.965 376.61 108.404 376.595 105.168 376.595C101.932 376.594 110.543 372.748 112.559 369.196C114.279 366.167 112.485 362.95 115.095 360.642C116.639 359.276 118.459 359.987 119.948 358.561C121.522 357.052 120.772 355.073 122.255 353.474C123.902 351.699 126.154 352.475 127.801 350.7C129.284 349.101 128.623 347.21 130.108 345.613C132.481 343.063 138.66 343.07 138.66 343.07C138.66 343.07 139.082 339.545 140.505 337.984C142.085 336.249 146.511 331.972 146.051 335.671C145.592 339.371 145.697 340.72 146.983 343.532Z" fill="#2CA66C" stroke="#2CA66C" stroke-linecap="round"/>
<path d="M146.085 377.007C142.125 380.971 136.731 385.865 132.545 389.579C129.148 392.594 124.002 392.404 120.782 389.187C117.38 385.789 117.378 380.275 120.776 376.872L145.926 351.698C149.325 348.296 154.838 348.293 158.241 351.692C161.46 354.909 161.656 360.055 158.644 363.455C154.934 367.644 150.045 373.043 146.085 377.007Z" fill="#2CA66C" stroke="#2CA66C"/>
<path d="M191.916 34.5677C197.744 29.7898 205.167 28.2046 211.419 21.654L236.933 39.595C232.935 46.8425 233.575 56.4646 231.38 62.3173C229.184 68.17 199.374 114.073 195.046 113.988C190.718 113.904 180.061 110.232 172.204 104.732C164.278 99.1821 156.628 89.0452 155.582 86.2388C154.537 83.4324 186.088 39.3455 191.916 34.5677Z" fill="#EA7D9C" stroke="#EA7D9C" stroke-width="7"/>
<path d="M210.604 18.8357C212.175 17.7581 213.793 15.1443 213.793 15.1443L242.972 34.7719C242.972 34.7719 240.984 36.8703 240.32 38.5437C239.359 40.9622 239.673 42.8361 240.084 45.2017C240.495 47.5674 236.589 41.7616 233.737 40.7387C231.304 39.8663 229.18 41.5864 227.162 39.9722C225.967 39.0167 226.256 37.596 225.024 36.689C223.721 35.7297 222.371 36.5297 221.013 35.6486C219.506 34.6703 219.788 32.9253 218.281 31.947C216.924 31.066 215.626 31.7896 214.27 30.9066C212.104 29.4962 211.324 24.9786 211.324 24.9786C211.324 24.9786 208.694 25.1178 207.372 24.2762C205.903 23.3415 202.214 20.6497 204.977 20.5156C207.74 20.3814 208.713 20.1336 210.604 18.8357Z" fill="#2CA66C" stroke="#2CA66C" stroke-linecap="round"/>
<path d="M235.115 15.3458C238.512 17.7347 242.772 21.0549 246.018 23.6421C248.599 25.699 249.104 29.408 247.201 32.1151C245.189 34.9752 241.24 35.6631 238.379 33.6518L216.783 18.4657C213.923 16.4544 213.234 12.5055 215.245 9.64521C217.149 6.93801 220.81 6.15849 223.619 7.89149C227.152 10.0714 231.717 12.9569 235.115 15.3458Z" fill="#2CA66C" stroke="#2CA66C"/>
<path d="M191.554 199.569L239.499 208.469" stroke="#2CA66C" stroke-width="17" stroke-linecap="round"/>
<path d="M117.901 180.262C110.281 174.627 116.129 162.624 125.262 165.153C131.796 166.962 137.734 160.808 135.693 154.343C132.84 145.306 144.626 139.033 150.529 146.447C154.752 151.751 163.173 150.262 165.321 143.833C168.325 134.844 181.548 136.697 181.966 146.165C182.264 152.938 189.952 156.683 195.469 152.744C203.183 147.238 212.791 156.509 207.564 164.415C203.825 170.069 207.842 177.618 214.621 177.675C224.098 177.754 226.422 190.902 217.547 194.225C211.198 196.602 210.011 205.071 215.462 209.101C223.082 214.736 217.234 226.739 208.101 224.21C201.567 222.401 195.629 228.555 197.67 235.02C200.523 244.057 188.737 250.33 182.834 242.916C178.611 237.612 170.19 239.101 168.042 245.531C165.038 254.519 151.815 252.666 151.397 243.198C151.099 236.425 143.411 232.68 137.894 236.619C130.18 242.125 120.572 232.854 125.799 224.949C129.538 219.294 125.521 211.745 118.742 211.688C109.265 211.609 106.941 198.461 115.816 195.138C122.165 192.761 123.352 184.292 117.901 180.262Z" fill="#2CA66C"/>
<path d="M197.541 294.981C194.155 306.472 200.596 318.494 211.928 321.833C223.259 325.173 235.19 318.564 238.576 307.073C241.963 295.583 231.353 285.067 221.47 289.45C216.464 279.768 200.927 283.49 197.541 294.981Z" fill="#2CA66C"/>
<path d="M221.377 290.419L223.099 282.399L218.918 278.277" stroke="#2CA66C" stroke-width="3" stroke-linecap="round"/>
<path d="M17.1323 107.146C30.619 132.324 61.6798 141.953 86.5086 128.653C111.337 115.354 120.532 84.1614 107.045 58.9836C93.5587 33.8058 57.9424 33.714 48.5004 57.6971C23.793 49.6407 3.64559 81.9684 17.1323 107.146Z" fill="#2CA66C"/>
<path d="M49.9648 59.5L39.4648 43H25.4648" stroke="#2CA66C" stroke-width="3" stroke-linecap="round"/>
</svg>
