<svg width="478" height="293" viewBox="0 0 478 293" fill="none" xmlns="http://www.w3.org/2000/svg">
<path d="M273.514 133.172C261.433 129.233 250.436 135.144 244.085 145.226C237.732 155.311 236.092 169.496 242.742 181.91C256.101 206.85 286.862 216.379 311.441 203.213C336.021 190.046 345.133 159.16 331.774 134.22C325.121 121.8 313.017 115.575 301.417 115.405C289.819 115.235 278.767 121.115 274.134 132.881L273.962 133.319L273.514 133.172Z" fill="#E3562B" stroke="#E3562B"/>
<path d="M275.134 134.5L264.634 118H250.634" stroke="#E3562B" stroke-width="3" stroke-linecap="round"/>
<path d="M298.514 31.1722C286.433 27.2332 275.436 33.144 269.085 43.2257C262.732 53.3113 261.092 67.4956 267.742 79.9102C281.101 104.85 311.862 114.379 336.441 101.213C361.021 88.0464 370.133 57.16 356.774 32.2198C350.121 19.8005 338.017 13.5747 326.417 13.405C314.819 13.2353 303.767 19.1148 299.134 30.8808L298.962 31.3186L298.514 31.1722Z" fill="#E3562B" stroke="#E3562B"/>
<path d="M300.134 32.5L289.634 16H275.634" stroke="#E3562B" stroke-width="3" stroke-linecap="round"/>
<circle cx="254.854" cy="112.263" r="30.6073" transform="rotate(20.8869 254.854 112.263)" fill="#F4E4C3" stroke="#2CA66C"/>
<circle cx="254.173" cy="111.999" r="45.978" transform="rotate(20.8869 254.173 111.999)" fill="#F4E4C3" stroke="#2CA66C"/>
<circle cx="254.88" cy="112.263" r="30.0712" transform="rotate(20.8869 254.88 112.263)" fill="#F4E4C3" stroke="#2CA66C" stroke-width="5"/>
<circle cx="254.184" cy="111.998" r="44.478" transform="rotate(20.8869 254.184 111.998)" fill="#F4E4C3" stroke="#2CA66C" stroke-width="4"/>
<mask id="path-9-inside-1_318_4278" fill="white">
<path d="M260.346 65.9306C268.257 66.9887 275.761 70.0657 282.137 74.8652L273.142 86.8142C268.818 83.5591 263.728 81.4722 258.364 80.7546L260.346 65.9306Z"/>
</mask>
<path d="M260.346 65.9306C268.257 66.9887 275.761 70.0657 282.137 74.8652L273.142 86.8142C268.818 83.5591 263.728 81.4722 258.364 80.7546L260.346 65.9306Z" fill="#F4E4C3" stroke="#2CA66C" stroke-width="28" mask="url(#path-9-inside-1_318_4278)"/>
<mask id="path-10-inside-2_318_4278" fill="white">
<path d="M221.518 78.9362C227.195 73.3272 234.22 69.2744 241.918 67.1682L245.865 81.594C240.644 83.0224 235.88 85.7711 232.029 89.5752L221.518 78.9362Z"/>
</mask>
<path d="M221.518 78.9362C227.195 73.3272 234.22 69.2744 241.918 67.1682L245.865 81.594C240.644 83.0224 235.88 85.7711 232.029 89.5752L221.518 78.9362Z" fill="#F4E4C3" stroke="#2CA66C" stroke-width="28" mask="url(#path-10-inside-2_318_4278)"/>
<mask id="path-11-inside-3_318_4278" fill="white">
<path d="M207.807 115.055C207.282 107.092 208.816 99.1276 212.262 91.9294L225.752 98.3873C223.415 103.269 222.375 108.671 222.731 114.071L207.807 115.055Z"/>
</mask>
<path d="M207.807 115.055C207.282 107.092 208.816 99.1276 212.262 91.9294L225.752 98.3873C223.415 103.269 222.375 108.671 222.731 114.071L207.807 115.055Z" fill="#F4E4C3" stroke="#2CA66C" stroke-width="28" mask="url(#path-11-inside-3_318_4278)"/>
<mask id="path-12-inside-4_318_4278" fill="white">
<path d="M224.65 147.886C218.488 142.815 213.736 136.243 210.85 128.802L224.795 123.395C226.752 128.441 229.975 132.899 234.154 136.338L224.65 147.886Z"/>
</mask>
<path d="M224.65 147.886C218.488 142.815 213.736 136.243 210.85 128.802L224.795 123.395C226.752 128.441 229.975 132.899 234.154 136.338L224.65 147.886Z" fill="#F4E4C3" stroke="#2CA66C" stroke-width="28" mask="url(#path-12-inside-4_318_4278)"/>
<mask id="path-13-inside-5_318_4278" fill="white">
<path d="M294.297 88.5204C298.328 95.4079 300.518 103.217 300.655 111.197L285.702 111.455C285.608 106.043 284.123 100.746 281.389 96.0753L294.297 88.5204Z"/>
</mask>
<path d="M294.297 88.5204C298.328 95.4079 300.518 103.217 300.655 111.197L285.702 111.455C285.608 106.043 284.123 100.746 281.389 96.0753L294.297 88.5204Z" fill="#F4E4C3" stroke="#2CA66C" stroke-width="28" mask="url(#path-13-inside-5_318_4278)"/>
<mask id="path-14-inside-6_318_4278" fill="white">
<path d="M266.229 156.889C258.521 158.957 250.41 159.005 242.678 157.03L246.381 142.539C251.625 143.879 257.125 143.846 262.353 142.443L266.229 156.889Z"/>
</mask>
<path d="M266.229 156.889C258.521 158.957 250.41 159.005 242.678 157.03L246.381 142.539C251.625 143.879 257.125 143.846 262.353 142.443L266.229 156.889Z" fill="#F4E4C3" stroke="#2CA66C" stroke-width="28" mask="url(#path-14-inside-6_318_4278)"/>
<mask id="path-15-inside-7_318_4278" fill="white">
<path d="M296.819 130.504C293.642 137.824 288.633 144.203 282.275 149.027L273.236 137.111C277.548 133.84 280.945 129.514 283.1 124.549L296.819 130.504Z"/>
</mask>
<path d="M296.819 130.504C293.642 137.824 288.633 144.203 282.275 149.027L273.236 137.111C277.548 133.84 280.945 129.514 283.1 124.549L296.819 130.504Z" fill="#F4E4C3" stroke="#2CA66C" stroke-width="28" mask="url(#path-15-inside-7_318_4278)"/>
<circle cx="254.61" cy="111.799" r="28.7052" transform="rotate(20.8869 254.61 111.799)" stroke="#2CA66C" stroke-width="7"/>
<circle cx="103.137" cy="79.6817" r="21.016" transform="rotate(20.8869 103.137 79.6817)" fill="#F4E4C3" stroke="#2CA66C"/>
<circle cx="102.665" cy="79.4994" r="31.6474" transform="rotate(20.8869 102.665 79.4994)" fill="#F4E4C3" stroke="#2CA66C"/>
<circle cx="103.155" cy="79.6818" r="20.0285" transform="rotate(20.8869 103.155 79.6818)" fill="#F4E4C3" stroke="#2CA66C" stroke-width="5"/>
<circle cx="102.674" cy="79.4988" r="30.1474" transform="rotate(20.8869 102.674 79.4988)" fill="#F4E4C3" stroke="#2CA66C" stroke-width="4"/>
<mask id="path-21-inside-8_318_4278" fill="white">
<path d="M106.936 47.6353C112.407 48.3671 117.598 50.4954 122.008 53.8151L115.787 62.0798C112.796 59.8283 109.275 58.3849 105.565 57.8886L106.936 47.6353Z"/>
</mask>
<path d="M106.936 47.6353C112.407 48.3671 117.598 50.4954 122.008 53.8151L115.787 62.0798C112.796 59.8283 109.275 58.3849 105.565 57.8886L106.936 47.6353Z" fill="#F4E4C3" stroke="#2CA66C" stroke-width="28" mask="url(#path-21-inside-8_318_4278)"/>
<mask id="path-22-inside-9_318_4278" fill="white">
<path d="M80.0797 56.6308C84.0062 52.7513 88.8656 49.9481 94.1897 48.4913L96.9199 58.4691C93.309 59.4572 90.0133 61.3583 87.3503 63.9895L80.0797 56.6308Z"/>
</mask>
<path d="M80.0797 56.6308C84.0062 52.7513 88.8656 49.9481 94.1897 48.4913L96.9199 58.4691C93.309 59.4572 90.0133 61.3583 87.3503 63.9895L80.0797 56.6308Z" fill="#F4E4C3" stroke="#2CA66C" stroke-width="28" mask="url(#path-22-inside-9_318_4278)"/>
<mask id="path-23-inside-10_318_4278" fill="white">
<path d="M70.5964 81.6131C70.2333 76.1052 71.2946 70.5966 73.6781 65.6178L83.0087 70.0846C81.3922 73.4612 80.6724 77.1972 80.9186 80.9328L70.5964 81.6131Z"/>
</mask>
<path d="M70.5964 81.6131C70.2333 76.1052 71.2946 70.5966 73.6781 65.6178L83.0087 70.0846C81.3922 73.4612 80.6724 77.1972 80.9186 80.9328L70.5964 81.6131Z" fill="#F4E4C3" stroke="#2CA66C" stroke-width="28" mask="url(#path-23-inside-10_318_4278)"/>
<mask id="path-24-inside-11_318_4278" fill="white">
<path d="M82.2465 104.322C77.9843 100.814 74.6971 96.2681 72.7014 91.1216L82.3463 87.3816C83.6998 90.872 85.9292 93.955 88.8199 96.3339L82.2465 104.322Z"/>
</mask>
<path d="M82.2465 104.322C77.9843 100.814 74.6971 96.2681 72.7014 91.1216L82.3463 87.3816C83.6998 90.872 85.9292 93.955 88.8199 96.3339L82.2465 104.322Z" fill="#F4E4C3" stroke="#2CA66C" stroke-width="28" mask="url(#path-24-inside-11_318_4278)"/>
<mask id="path-25-inside-12_318_4278" fill="white">
<path d="M130.419 63.2599C133.207 68.0238 134.722 73.4253 134.817 78.9444L124.474 79.1228C124.409 75.3797 123.382 71.7163 121.491 68.4854L130.419 63.2599Z"/>
</mask>
<path d="M130.419 63.2599C133.207 68.0238 134.722 73.4253 134.817 78.9444L124.474 79.1228C124.409 75.3797 123.382 71.7163 121.491 68.4854L130.419 63.2599Z" fill="#F4E4C3" stroke="#2CA66C" stroke-width="28" mask="url(#path-25-inside-12_318_4278)"/>
<mask id="path-26-inside-13_318_4278" fill="white">
<path d="M111.005 110.548C105.674 111.978 100.064 112.012 94.7157 110.646L97.2766 100.623C100.904 101.55 104.708 101.527 108.324 100.557L111.005 110.548Z"/>
</mask>
<path d="M111.005 110.548C105.674 111.978 100.064 112.012 94.7157 110.646L97.2766 100.623C100.904 101.55 104.708 101.527 108.324 100.557L111.005 110.548Z" fill="#F4E4C3" stroke="#2CA66C" stroke-width="28" mask="url(#path-26-inside-13_318_4278)"/>
<mask id="path-27-inside-14_318_4278" fill="white">
<path d="M132.164 92.2984C129.966 97.3619 126.501 101.774 122.104 105.11L115.851 96.8688C118.834 94.6062 121.184 91.6138 122.674 88.1796L132.164 92.2984Z"/>
</mask>
<path d="M132.164 92.2984C129.966 97.3619 126.501 101.774 122.104 105.11L115.851 96.8688C118.834 94.6062 121.184 91.6138 122.674 88.1796L132.164 92.2984Z" fill="#F4E4C3" stroke="#2CA66C" stroke-width="28" mask="url(#path-27-inside-14_318_4278)"/>
<circle cx="102.968" cy="79.361" r="18.7753" transform="rotate(20.8869 102.968 79.361)" stroke="#2CA66C" stroke-width="7"/>
<ellipse cx="354.744" cy="148.028" rx="106.504" ry="38.1734" transform="rotate(130.27 354.744 148.028)" fill="#F79C05"/>
<ellipse cx="354.744" cy="148.028" rx="106.504" ry="38.1734" transform="rotate(130.27 354.744 148.028)" fill="#F79C05"/>
<path d="M398.515 123.744C401.212 125.429 404.829 126.884 408.065 127.842C410.218 128.479 412.224 133.11 410.851 134.887C410.51 135.33 410.019 135.637 409.471 135.747C406.932 136.261 401.466 137.08 394.06 131.697C388.232 127.461 385.364 122.278 384.485 117.646C384.028 115.241 386.819 114.256 388.618 115.916C391.483 118.559 395.13 121.631 398.515 123.744Z" fill="#E3562B"/>
<path d="M338.455 197.94C340.442 199.099 343.07 200.037 345.583 200.663C347.561 201.156 349.707 205.788 348.448 207.392C348.19 207.721 347.835 207.961 347.435 208.082C345.184 208.763 340.112 210.157 333.77 205.697C328.911 202.279 326.776 197.737 326.373 193.528C326.146 191.166 328.956 190.356 330.7 191.965C332.973 194.062 335.781 196.379 338.455 197.94Z" fill="#E3562B"/>
<path d="M381.944 144.728C385.382 146.977 390.027 149.023 393.928 150.329C396.203 151.091 398.074 155.647 396.624 157.557C396.2 158.115 395.568 158.482 394.873 158.563C392.052 158.889 386.169 159.16 377.721 152.876C370.924 147.821 367.32 142 365.961 136.947C365.305 134.51 368.076 133.373 369.935 135.081C373.38 138.245 377.864 142.058 381.944 144.728Z" fill="#E3562B"/>
<path d="M367.14 162.204C370.578 164.453 375.224 166.498 379.125 167.805C381.399 168.566 383.271 173.123 381.82 175.033C381.397 175.591 380.765 175.958 380.07 176.038C377.249 176.365 371.365 176.635 362.917 170.352C356.12 165.296 352.516 159.476 351.157 154.423C350.502 151.985 353.272 150.849 355.131 152.556C358.576 155.721 363.061 159.534 367.14 162.204Z" fill="#E3562B"/>
<path d="M354.484 181.502C356.822 182.918 359.938 184.105 362.82 184.893C364.893 185.461 366.969 190.105 365.649 191.801C365.349 192.186 364.928 192.46 364.454 192.579C362.059 193.178 356.793 194.283 349.914 189.357C344.571 185.53 342.069 180.667 341.428 176.246C341.083 173.861 343.883 172.961 345.654 174.596C348.225 176.97 351.452 179.666 354.484 181.502Z" fill="#E3562B"/>
<path d="M159.599 209.829C159.599 209.829 182.124 193.1 198.417 187.834C215.002 182.473 243.562 183.021 243.562 183.021" stroke="#F4E4C3" stroke-width="4"/>
<path d="M127.801 103.197C127.293 89.9162 132.965 77.7993 130.42 62.0325L182.749 45.3249C188.669 58.6698 202.858 68.0304 208.739 77.3552C214.62 86.6799 247.348 177.499 242.625 183.488C237.902 189.477 221.41 200.532 205.33 205.702C189.107 210.918 166.739 210.854 161.687 209.33C156.635 207.806 128.309 116.478 127.801 103.197Z" fill="#EA7D9C" stroke="#F4E4C3" stroke-width="7"/>
<path d="M125.992 60.8276C126.148 57.568 124.255 52.6537 124.255 52.6537L181.303 33.1303C181.303 33.1303 182.11 38.0156 183.706 40.6552C186.013 44.4701 188.898 45.9802 192.555 47.8676C196.212 49.7551 184.235 49.0782 179.882 51.914C176.168 54.3329 176.317 59.0124 172.02 60.0975C169.477 60.7398 167.836 58.8747 165.321 59.618C162.66 60.4042 162.353 63.0764 159.743 64.0175C156.845 65.0624 154.753 62.8723 151.855 63.9173C149.245 64.8584 148.888 67.3794 146.277 68.3168C142.106 69.814 135.128 66.2029 135.128 66.2029C135.128 66.2029 132.592 69.9377 130.072 70.872C127.273 71.9098 119.774 74.16 122.454 70.2493C125.134 66.3387 125.804 64.7534 125.992 60.8276Z" fill="#F79C05" stroke="#F79C05" stroke-linecap="round"/>
<path d="M145.698 22.7653C152.761 20.5101 162.156 18.0395 169.178 16.2734C174.482 14.9391 179.872 17.9928 181.539 23.2126L182.183 25.2304C183.947 30.7545 180.898 36.6628 175.374 38.4265L130.588 52.7258C125.064 54.4895 119.156 51.4408 117.392 45.9169L116.747 43.899C115.081 38.6793 117.704 33.0672 122.8 31.0806C129.546 28.451 138.635 25.0205 145.698 22.7653Z" fill="#F79C05" stroke="#F79C05"/>
<path d="M124.365 54.3642C129.508 53.1586 145.032 49.9479 153.909 47.1136C163.018 44.2053 175.498 38.1842 181.936 35.1104" stroke="#F4E4C3" stroke-width="4"/>
<path d="M181.27 35.7594C181.27 35.7594 180.468 40.3979 180.647 43.3774C180.814 46.1516 182.004 50.3632 182.004 50.3632" stroke="#F4E4C3" stroke-width="4"/>
<path d="M181.27 35.7594C181.27 35.7594 183.688 37.8343 185.037 39.3573C185.956 40.3958 187.237 42.1463 187.237 42.1463" stroke="#F4E4C3" stroke-width="4"/>
<path d="M179.642 33.3468C179.581 33.3909 179.282 33.5941 178.463 33.5943C177.52 33.5944 176.575 33.2976 176.062 32.9566C175.19 32.376 175.032 31.2996 175.503 30.5925C175.974 29.8856 177.027 29.6163 177.899 30.1964C178.412 30.5374 179.051 31.2949 179.414 32.1642C179.73 32.9188 179.659 33.2722 179.642 33.3468Z" stroke="#F4E4C3" stroke-width="5"/>
<path d="M182.69 33.3157C182.759 33.3457 183.094 33.4809 183.895 33.3068C184.815 33.1066 185.676 32.6155 186.104 32.1734C186.833 31.4207 186.758 30.3354 186.148 29.7445C185.538 29.1537 184.452 29.1145 183.723 29.8668C183.295 30.309 182.831 31.185 182.661 32.1117C182.512 32.9162 182.657 33.2465 182.69 33.3157Z" stroke="#F4E4C3" stroke-width="5"/>
<path d="M393.164 54.7051L363.126 44.1625C361.669 43.6508 360.206 44.9148 360.501 46.4313L366.787 78.7638C366.927 79.4826 367.449 80.0676 368.147 80.2887L397.971 89.7351C399.418 90.1933 400.828 88.9364 400.538 87.4467L394.465 56.2105C394.329 55.5133 393.834 54.9403 393.164 54.7051Z" fill="#2CA66C"/>
<path d="M388.796 56.0869L372.83 50.5236C368.459 49.0006 364.082 52.7911 364.966 57.3347L368.33 74.6387C368.751 76.7998 370.321 78.5572 372.421 79.2174L388.275 84.2007C392.613 85.5642 396.832 81.7951 395.964 77.3316L392.712 60.6077C392.304 58.5113 390.813 56.7896 388.796 56.0869Z" fill="#F4E4C3"/>
<path d="M331.554 66.6842L355.453 45.6545C356.612 44.6339 358.442 45.2577 358.737 46.7742L365.024 79.1067C365.163 79.8255 364.899 80.5632 364.335 81.0298L340.223 100.963C339.053 101.93 337.275 101.293 336.985 99.8035L330.912 68.5674C330.776 67.8702 331.021 67.1534 331.554 66.6842Z" fill="#2CA66C"/>
<path d="M367.859 81.7907L398.029 92.0323C399.492 92.5289 399.863 94.426 398.695 95.4377L373.837 116.976C373.265 117.471 372.462 117.602 371.763 117.312L342.689 105.293C341.298 104.718 341.017 102.87 342.175 101.907L365.937 82.1468C366.472 81.7019 367.2 81.567 367.859 81.7907Z" fill="#2CA66C"/>
<ellipse cx="380.902" cy="67.1522" rx="2.61167" ry="3.70572" transform="rotate(138.187 380.902 67.1522)" fill="#2CA66C"/>
<path d="M339.876 182.34L356.76 164.67C357.827 163.553 357.279 161.699 355.776 161.342L331.148 155.496C330.436 155.327 329.688 155.561 329.198 156.106L313.148 173.974C312.134 175.103 312.698 176.906 314.174 177.257L337.968 182.905C338.659 183.069 339.385 182.854 339.876 182.34Z" fill="#2CA66C"/>
<path d="M340.629 178.376L347.979 170.648C351.17 167.294 349.521 161.744 345.018 160.675L334.107 158.085C331.965 157.577 329.717 158.282 328.249 159.923L321.261 167.737C318.23 171.126 319.924 176.524 324.348 177.574L334.896 180.078C336.974 180.571 339.157 179.923 340.629 178.376Z" fill="#F4E4C3"/>
<path d="M351.34 134.045L358.481 157.418C358.932 158.896 357.609 160.305 356.106 159.948L331.479 154.102C330.766 153.933 330.203 153.388 330.011 152.682L323.703 129.506C323.305 128.042 324.619 126.684 326.095 127.035L349.889 132.683C350.58 132.847 351.132 133.365 351.34 134.045Z" fill="#2CA66C"/>
<path d="M328.207 155.389L311.487 173.252C310.431 174.38 308.55 173.936 308.11 172.455L300.913 148.236C300.698 147.511 300.91 146.726 301.462 146.208L319.078 129.675C320.176 128.645 321.975 129.151 322.375 130.603L328.675 153.492C328.86 154.163 328.683 154.881 328.207 155.389Z" fill="#2CA66C"/>
<ellipse cx="334.705" cy="169.51" rx="2.08218" ry="2.95443" transform="rotate(-107.456 334.705 169.51)" fill="#2CA66C"/>
<ellipse cx="311.471" cy="165.586" rx="2.08218" ry="2.95443" transform="rotate(-167.403 311.471 165.586)" fill="#F4E4C3"/>
<ellipse cx="113.5" cy="52.21" rx="113.5" ry="52.21" transform="matrix(0.636747 0.771073 0.771073 -0.636747 0 117.482)" fill="#F79C05"/>
<circle cx="6.50045" cy="6.50045" r="6.50045" transform="matrix(0.636747 0.771073 0.771073 -0.636747 43.7314 104.65)" fill="#E3562B"/>
<path d="M60.0732 173.052C61.8157 175.162 64.3251 176.494 67.0492 176.753C69.7734 177.013 72.4893 176.18 74.5994 174.438C76.7094 172.696 78.0409 170.186 78.3008 167.462C78.5607 164.738 77.7278 162.022 75.9854 159.912" stroke="#E3562B" stroke-width="2"/>
<path d="M75.9843 159.912C77.7268 162.022 80.2362 163.354 82.9604 163.614C85.6845 163.874 88.4004 163.041 90.5105 161.298C92.6206 159.556 93.952 157.046 94.2119 154.322C94.4719 151.598 93.639 148.882 91.8965 146.772" stroke="#E3562B" stroke-width="2"/>
<path d="M91.8965 146.772C93.6389 148.882 96.1483 150.213 98.8725 150.473C101.597 150.733 104.313 149.9 106.423 148.158C108.533 146.415 109.864 143.906 110.124 141.182C110.384 138.458 109.551 135.742 107.809 133.632" stroke="#E3562B" stroke-width="2"/>
<path d="M107.809 133.632C109.551 135.742 112.06 137.073 114.785 137.333C117.509 137.593 120.225 136.76 122.335 135.018C124.445 133.275 125.776 130.766 126.036 128.042C126.296 125.317 125.463 122.602 123.721 120.491" stroke="#E3562B" stroke-width="2"/>
<path d="M94.7617 215.06C96.5042 217.17 99.0135 218.501 101.738 218.761C104.462 219.021 107.178 218.188 109.288 216.446C111.398 214.703 112.729 212.194 112.989 209.47C113.249 206.746 112.416 204.03 110.674 201.92" stroke="#E3562B" stroke-width="2"/>
<path d="M110.674 201.92C112.416 204.03 114.926 205.361 117.65 205.621C120.374 205.881 123.09 205.048 125.2 203.306C127.31 201.563 128.641 199.054 128.901 196.33C129.161 193.605 128.328 190.89 126.586 188.78" stroke="#E3562B" stroke-width="2"/>
<path d="M126.586 188.78C128.328 190.89 130.838 192.221 133.562 192.481C136.286 192.741 139.002 191.908 141.112 190.166C143.222 188.423 144.554 185.914 144.814 183.19C145.073 180.465 144.241 177.749 142.498 175.639" stroke="#E3562B" stroke-width="2"/>
<path d="M142.499 175.639C144.241 177.749 146.751 179.081 149.475 179.341C152.199 179.601 154.915 178.768 157.025 177.025C159.135 175.283 160.467 172.774 160.727 170.049C160.987 167.325 160.154 164.609 158.411 162.499" stroke="#E3562B" stroke-width="2"/>
<path d="M77.4179 194.056C79.1604 196.166 81.6698 197.497 84.394 197.757C87.1181 198.017 89.834 197.184 91.9441 195.442C94.0542 193.699 95.3856 191.19 95.6455 188.466C95.9055 185.742 95.0726 183.026 93.3301 180.916" stroke="#E3562B" stroke-width="2"/>
<path d="M93.3301 180.916C95.0725 183.026 97.5819 184.357 100.306 184.617C103.03 184.877 105.746 184.044 107.856 182.302C109.966 180.559 111.298 178.05 111.558 175.326C111.818 172.602 110.985 169.886 109.242 167.776" stroke="#E3562B" stroke-width="2"/>
<path d="M109.242 167.776C110.985 169.886 113.494 171.217 116.218 171.477C118.942 171.737 121.658 170.904 123.768 169.162C125.878 167.419 127.21 164.91 127.47 162.186C127.73 159.461 126.897 156.746 125.154 154.635" stroke="#E3562B" stroke-width="2"/>
<path d="M127.195 158.604C129.426 160.297 134.393 163.209 139.247 165.084C141.676 166.022 144.01 166.673 145.92 166.81C147.871 166.95 149.09 166.539 149.703 165.731C150.357 164.87 150.534 163.317 150.098 161.11C149.674 158.962 148.722 156.449 147.49 153.936C146.262 151.43 144.778 148.965 143.321 146.916C141.849 144.847 140.456 143.274 139.424 142.491C135.285 139.35 129.148 140.31 125.739 144.802C122.33 149.294 123.056 155.462 127.195 158.604Z" fill="#F79C05" stroke="#E3562B" stroke-width="2"/>
</svg>
