<svg width="257" height="732" viewBox="0 0 257 732" fill="none" xmlns="http://www.w3.org/2000/svg">
<path d="M7.03141 584.163C11.2566 568.968 22.0555 557.32 24.8729 538.58H90.1458C92.0245 555.8 104.703 571.501 107.99 584.163C111.276 596.824 115.5 711.286 107.99 716.351C100.479 721.416 77.815 727.958 57.7452 728C37.4962 728.041 12.1997 719.896 7.03141 716.351C1.86307 712.806 2.80621 599.357 7.03141 584.163Z" fill="#E3562B" stroke="#E3562B" stroke-width="7"/>
<path d="M20.0859 534.735C21.4774 531 21.1008 524.578 21.1008 524.578L94.6763 523.054C94.6763 523.054 93.8001 529.039 94.6763 532.703C95.9426 538 98.7367 540.829 102.288 544.384C105.838 547.939 92.1644 542.702 86.0502 544.384C80.835 545.819 79.2706 551.32 73.8722 550.987C70.6769 550.789 69.4615 548.009 66.2609 547.939C62.8756 547.866 61.526 550.861 58.1422 550.987C54.385 551.126 52.7659 547.8 49.0087 547.939C45.6249 548.065 44.274 550.866 40.89 550.987C35.4848 551.179 28.712 544.384 28.712 544.384C28.712 544.384 24.3774 547.788 21.1008 547.939C17.4615 548.107 7.90702 547.939 12.4747 544.384C17.0423 540.829 18.4101 539.233 20.0859 534.735Z" fill="#2CA66C" stroke="#2CA66C" stroke-linecap="round"/>
<path d="M57.8408 498.712C67.613 498.712 80.6495 499.413 89.5723 499.978C95.0411 500.324 99.2617 504.877 99.2617 510.364V516.712C99.2616 522.511 94.5605 527.212 88.7617 527.212H26.9199C21.121 527.212 16.4201 522.511 16.4199 516.712V510.364C16.4199 504.877 20.6405 500.324 26.1094 499.978C35.0321 499.413 48.0687 498.712 57.8408 498.712Z" fill="#2CA66C" stroke="#2CA66C"/>
<path d="M7.03141 85.9504C11.2566 70.7563 22.0555 59.1075 24.8729 40.3682L90.1458 40.3682C92.0245 57.5881 104.703 73.2886 107.99 85.9504C111.276 98.6121 115.5 213.074 107.99 218.139C100.479 223.203 77.815 229.746 57.7452 229.788C37.4962 229.829 12.1997 221.684 7.03141 218.139C1.86307 214.593 2.80621 101.144 7.03141 85.9504Z" fill="#E3562B" stroke="#E3562B" stroke-width="7"/>
<path d="M20.0859 36.5228C21.4774 32.7876 21.1008 26.3655 21.1008 26.3655L94.6763 24.8419C94.6763 24.8419 93.8001 30.8265 94.6763 34.4914C95.9426 39.7879 98.7367 42.6172 102.288 46.1723C105.838 49.7273 92.1644 44.4897 86.0502 46.1723C80.835 47.6074 79.2706 53.1082 73.8722 52.7745C70.6769 52.577 69.4615 49.797 66.2609 49.7273C62.8756 49.6537 61.526 52.6491 58.1422 52.7745C54.385 52.9138 52.7659 49.588 49.0087 49.7273C45.6249 49.8528 44.274 52.6539 40.89 52.7745C35.4848 52.9672 28.712 46.1723 28.712 46.1723C28.712 46.1723 24.3774 49.5763 21.1008 49.7273C17.4615 49.8951 7.90702 49.7273 12.4747 46.1723C17.0423 42.6172 18.4101 41.0214 20.0859 36.5228Z" fill="#2CA66C" stroke="#2CA66C" stroke-linecap="round"/>
<path d="M57.8408 0.5C67.613 0.500009 80.6495 1.20059 89.5723 1.76563C95.0411 2.11201 99.2617 6.66506 99.2617 12.1523V18.5C99.2616 24.2988 94.5605 28.9998 88.7617 29L26.9199 29C21.121 29 16.4201 24.2989 16.4199 18.5V12.1523C16.4199 6.66502 20.6405 2.11194 26.1094 1.76563C35.0321 1.20059 48.0687 0.5 57.8408 0.5Z" fill="#2CA66C" stroke="#2CA66C"/>
<path d="M249.073 335.056C244.848 319.862 234.049 308.214 231.232 289.474H165.959C164.08 306.694 151.402 322.395 148.115 335.056C144.828 347.718 140.604 462.18 148.115 467.245C155.626 472.31 178.289 478.852 198.359 478.894C218.608 478.935 243.905 470.79 249.073 467.245C254.241 463.7 253.298 350.251 249.073 335.056Z" fill="#E3562B" stroke="#E3562B" stroke-width="7"/>
<path d="M236.019 285.629C234.627 281.894 235.004 275.472 235.004 275.472L161.428 273.948C161.428 273.948 162.304 279.933 161.428 283.597C160.162 288.894 157.368 291.723 153.817 295.278C150.266 298.833 163.94 293.596 170.054 295.278C175.269 296.714 176.834 302.214 182.232 301.881C185.428 301.683 186.643 298.903 189.844 298.833C193.229 298.76 194.578 301.755 197.962 301.881C201.719 302.02 203.339 298.694 207.096 298.833C210.48 298.959 211.83 301.76 215.214 301.881C220.62 302.073 227.392 295.278 227.392 295.278C227.392 295.278 231.727 298.682 235.004 298.833C238.643 299.001 248.197 298.833 243.63 295.278C239.062 291.723 237.694 290.128 236.019 285.629Z" fill="#2CA66C" stroke="#2CA66C" stroke-linecap="round"/>
<path d="M198.263 249.606C188.49 249.606 175.454 250.307 166.531 250.872C161.062 251.218 156.842 255.771 156.842 261.258V267.606C156.842 273.405 161.543 278.106 167.342 278.106H229.184C234.982 278.106 239.683 273.405 239.684 267.606V261.258C239.684 255.771 235.463 251.218 229.994 250.872C221.071 250.307 208.035 249.606 198.263 249.606Z" fill="#2CA66C" stroke="#2CA66C"/>
</svg>
