<svg width="780" height="732" viewBox="0 0 780 732" fill="none" xmlns="http://www.w3.org/2000/svg">
<path d="M11.9524 581.539C20.8689 567.47 43.658 556.684 49.6037 539.333H187.351C191.315 555.277 218.071 569.815 225.007 581.539C231.942 593.263 240.857 699.247 225.007 703.937C209.156 708.627 161.329 714.685 118.975 714.723C76.2429 714.762 22.8593 707.22 11.9524 703.937C1.04556 700.654 3.03588 595.608 11.9524 581.539Z" fill="#EA7D9C" stroke="#EA7D9C" stroke-width="9"/>
<path d="M40.6447 544.653C41.6816 543.427 41.4034 540.514 40.6095 537.259C39.064 530.921 43.3366 524.181 49.8601 524.181H187.897C193.299 524.181 197.445 528.911 197.274 534.311C197.16 537.873 197.288 541.344 198.06 542.765C200.732 547.687 205.247 545.821 211.98 550.63C218.712 555.439 192.759 552.055 179.855 553.619C168.849 554.952 165.548 560.064 154.155 559.754C147.412 559.57 144.847 556.987 138.092 556.922C130.948 556.854 128.1 559.637 120.958 559.754C113.029 559.883 109.612 556.793 101.683 556.922C94.5419 557.039 91.6911 559.642 84.5495 559.754C76.4994 559.88 67.012 556.773 62.125 554.933C59.9976 554.132 57.659 554.04 55.4723 554.661C52.1792 555.596 47.057 556.836 42.7864 556.922C35.1061 557.078 17.1936 553.934 26.8331 550.63C36.4727 547.327 37.1079 548.833 40.6447 544.653Z" fill="#34A46A" stroke="#34A46A" stroke-linecap="round"/>
<path d="M119.165 513.139C143.484 513.139 177.346 514.026 195.308 514.553C201.923 514.747 207.15 520.17 207.15 526.792C207.15 533.573 201.654 539.07 194.874 539.07H43.4561C36.676 539.07 31.1797 533.573 31.1797 526.792C31.1798 520.17 36.4082 514.747 43.0234 514.553C60.9851 514.026 94.8459 513.139 119.165 513.139Z" fill="#34A46A" stroke="#34A46A"/>
<path d="M11.9524 83.3264C20.8689 69.2576 43.658 58.4716 49.6037 41.1201H187.351C191.315 57.0647 218.071 71.6024 225.007 83.3264C231.942 95.0503 240.857 201.035 225.007 205.725C209.156 210.414 161.329 216.472 118.975 216.511C76.2429 216.549 22.8593 209.007 11.9524 205.725C1.04556 202.442 3.03588 97.3951 11.9524 83.3264Z" fill="#EA7D9C" stroke="#EA7D9C" stroke-width="9"/>
<path d="M40.6447 46.4403C41.6816 45.2147 41.4034 42.302 40.6095 39.0466C39.064 32.7089 43.3366 25.9684 49.8601 25.9684H187.897C193.299 25.9684 197.445 30.699 197.274 36.0985C197.16 39.661 197.288 43.1317 198.06 44.5527C200.732 49.4742 205.247 47.6089 211.98 52.4179C218.712 57.2269 192.759 53.8431 179.855 55.4066C168.849 56.7402 165.548 61.8515 154.155 61.5414C147.412 61.3579 144.847 58.7747 138.092 58.71C130.948 58.6415 128.1 61.4249 120.958 61.5414C113.029 61.6709 109.612 58.5806 101.683 58.71C94.5419 58.8265 91.6911 61.4294 84.5495 61.5414C76.4994 61.6678 67.012 58.5605 62.125 56.7207C59.9976 55.9198 57.659 55.8272 55.4723 56.4484C52.1792 57.3837 47.057 58.6233 42.7864 58.71C35.1061 58.8658 17.1936 55.7212 26.8331 52.4179C36.4727 49.1145 37.1079 50.6204 40.6447 46.4403Z" fill="#34A46A" stroke="#34A46A" stroke-linecap="round"/>
<path d="M119.165 14.9269C143.484 14.9269 177.346 15.8139 195.308 16.3409C201.923 16.5352 207.15 21.9578 207.15 28.5802C207.15 35.3605 201.654 40.8575 194.874 40.8575H43.4561C36.676 40.8573 31.1797 35.3603 31.1797 28.5802C31.1798 21.9577 36.4082 16.535 43.0234 16.3409C60.9851 15.8139 94.8459 14.9269 119.165 14.9269Z" fill="#34A46A" stroke="#34A46A"/>
<path d="M767.45 332.433C758.533 318.364 735.744 307.578 729.799 290.226H592.052C588.087 306.171 561.331 320.709 554.396 332.433C547.46 344.157 538.545 450.141 554.396 454.831C570.246 459.52 618.074 465.579 660.427 465.617C703.159 465.655 756.543 458.114 767.45 454.831C778.357 451.548 776.366 346.501 767.45 332.433Z" fill="#EA7D9C" stroke="#EA7D9C" stroke-width="9"/>
<path d="M738.758 295.547C737.721 294.321 737.999 291.408 738.793 288.153C740.338 281.815 736.066 275.075 729.542 275.075H591.506C586.103 275.075 581.957 279.805 582.129 285.205C582.242 288.767 582.114 292.238 581.343 293.659C578.67 298.581 574.155 296.715 567.423 301.524C560.69 306.333 586.644 302.949 599.547 304.513C610.553 305.846 613.855 310.958 625.248 310.648C631.991 310.464 634.556 307.881 641.31 307.816C648.455 307.748 651.303 310.531 658.444 310.648C666.373 310.777 669.79 307.687 677.719 307.816C684.86 307.933 687.711 310.536 694.853 310.648C702.903 310.774 712.39 307.667 717.277 305.827C719.405 305.026 721.743 304.934 723.93 305.555C727.223 306.49 732.345 307.73 736.616 307.816C744.296 307.972 762.209 304.828 752.569 301.524C742.93 298.221 742.294 299.727 738.758 295.547Z" fill="#34A46A" stroke="#34A46A" stroke-linecap="round"/>
<path d="M660.236 264.033C635.917 264.033 602.055 264.92 584.094 265.447C577.479 265.641 572.251 271.064 572.251 277.686C572.251 284.467 577.747 289.964 584.527 289.964H735.945C742.725 289.963 748.222 284.466 748.222 277.686C748.222 271.064 742.993 265.641 736.378 265.447C718.416 264.92 684.555 264.033 660.236 264.033Z" fill="#34A46A" stroke="#34A46A"/>
<path d="M413.023 581.539C421.939 567.47 444.728 556.684 450.674 539.333H588.421C592.386 555.277 619.141 569.815 626.077 581.539C633.013 593.263 641.927 699.247 626.077 703.937C610.227 708.627 562.399 714.685 520.045 714.723C477.313 714.762 423.93 707.22 413.023 703.937C402.116 700.654 404.106 595.608 413.023 581.539Z" fill="#F79C05" stroke="#F79C05" stroke-width="9"/>
<path d="M441.715 544.653C442.752 543.427 442.474 540.514 441.68 537.259C440.134 530.921 444.407 524.181 450.93 524.181H588.967C594.369 524.181 598.515 528.911 598.344 534.311C598.231 537.873 598.358 541.344 599.13 542.765C601.802 547.687 606.317 545.821 613.05 550.63C619.782 555.439 593.829 552.055 580.926 553.619C569.919 554.952 566.618 560.064 555.225 559.754C548.482 559.57 545.917 556.987 539.162 556.922C532.018 556.854 529.17 559.637 522.029 559.754C514.1 559.883 510.683 556.793 502.753 556.922C495.612 557.039 492.761 559.642 485.62 559.754C477.57 559.88 468.082 556.773 463.195 554.933C461.068 554.132 458.729 554.04 456.543 554.661C453.25 555.596 448.127 556.836 443.857 556.922C436.176 557.078 418.264 553.934 427.903 550.63C437.543 547.327 438.178 548.833 441.715 544.653Z" fill="#34A46A" stroke="#34A46A" stroke-linecap="round"/>
<path d="M520.235 513.139C544.555 513.139 578.416 514.026 596.378 514.553C602.993 514.747 608.221 520.17 608.221 526.792C608.221 533.573 602.725 539.07 595.944 539.07H444.526C437.746 539.07 432.25 533.573 432.25 526.792C432.25 520.17 437.478 514.747 444.094 514.553C462.055 514.026 495.916 513.139 520.235 513.139Z" fill="#34A46A" stroke="#34A46A"/>
<path d="M413.023 83.3264C421.939 69.2576 444.728 58.4716 450.674 41.1201H588.421C592.386 57.0647 619.141 71.6024 626.077 83.3264C633.013 95.0503 641.927 201.035 626.077 205.725C610.227 210.414 562.399 216.472 520.045 216.511C477.313 216.549 423.93 209.007 413.023 205.725C402.116 202.442 404.106 97.3951 413.023 83.3264Z" fill="#F79C05" stroke="#F79C05" stroke-width="9"/>
<path d="M441.715 46.4403C442.752 45.2147 442.474 42.302 441.68 39.0466C440.134 32.7089 444.407 25.9684 450.93 25.9684H588.967C594.369 25.9684 598.515 30.699 598.344 36.0985C598.231 39.661 598.358 43.1317 599.13 44.5527C601.802 49.4742 606.317 47.6089 613.05 52.4179C619.782 57.2269 593.829 53.8431 580.926 55.4066C569.919 56.7402 566.618 61.8515 555.225 61.5414C548.482 61.3579 545.917 58.7747 539.162 58.71C532.018 58.6415 529.17 61.4249 522.029 61.5414C514.1 61.6709 510.683 58.5806 502.753 58.71C495.612 58.8265 492.761 61.4294 485.62 61.5414C477.57 61.6678 468.082 58.5605 463.195 56.7207C461.068 55.9198 458.729 55.8272 456.543 56.4484C453.25 57.3837 448.127 58.6233 443.857 58.71C436.176 58.8658 418.264 55.7212 427.903 52.4179C437.543 49.1145 438.178 50.6204 441.715 46.4403Z" fill="#34A46A" stroke="#34A46A" stroke-linecap="round"/>
<path d="M520.235 14.9269C544.555 14.9269 578.416 15.8139 596.378 16.3409C602.993 16.5352 608.221 21.9578 608.221 28.5802C608.221 35.3605 602.725 40.8575 595.944 40.8575H444.526C437.746 40.8573 432.25 35.3603 432.25 28.5802C432.25 21.9577 437.478 16.535 444.094 16.3409C462.055 15.8139 495.916 14.9269 520.235 14.9269Z" fill="#34A46A" stroke="#34A46A"/>
<path d="M366.379 332.433C357.462 318.364 334.673 307.578 328.727 290.226H190.98C187.016 306.171 160.26 320.709 153.324 332.433C146.389 344.157 137.474 450.141 153.324 454.831C169.175 459.52 217.002 465.579 259.356 465.617C302.088 465.655 355.472 458.114 366.379 454.831C377.285 451.548 375.295 346.501 366.379 332.433Z" fill="#F79C05" stroke="#F79C05" stroke-width="9"/>
<path d="M337.687 295.547C336.65 294.321 336.929 291.408 337.723 288.153C339.268 281.815 334.995 275.075 328.472 275.075H190.435C185.033 275.075 180.887 279.805 181.058 285.205C181.172 288.767 181.044 292.238 180.272 293.659C177.6 298.581 173.085 296.715 166.353 301.524C159.62 306.333 185.574 302.949 198.477 304.513C209.483 305.846 212.785 310.958 224.177 310.648C230.921 310.464 233.485 307.881 240.24 307.816C247.384 307.748 250.232 310.531 257.374 310.648C265.303 310.777 268.72 307.687 276.649 307.816C283.79 307.933 286.641 310.536 293.783 310.648C301.833 310.774 311.32 307.667 316.207 305.827C318.334 305.026 320.673 304.934 322.86 305.555C326.153 306.49 331.275 307.73 335.546 307.816C343.226 307.972 361.138 304.828 351.499 301.524C341.859 298.221 341.224 299.727 337.687 295.547Z" fill="#34A46A" stroke="#34A46A" stroke-linecap="round"/>
<path d="M259.166 264.033C234.847 264.033 200.985 264.92 183.023 265.447C176.408 265.641 171.181 271.064 171.181 277.686C171.181 284.467 176.677 289.964 183.457 289.964H334.875C341.655 289.963 347.151 284.466 347.151 277.686C347.151 271.064 341.923 265.641 335.308 265.447C317.346 264.92 283.485 264.033 259.166 264.033Z" fill="#34A46A" stroke="#34A46A"/>
<path d="M268.681 584.163C272.906 568.968 283.705 557.32 286.522 538.58H351.795C353.674 555.8 366.352 571.501 369.639 584.163C372.926 596.824 377.15 711.286 369.639 716.351C362.128 721.416 339.464 727.958 319.395 728C299.146 728.041 273.849 719.896 268.681 716.351C263.512 712.806 264.456 599.357 268.681 584.163Z" fill="#E3562B" stroke="#E3562B" stroke-width="7"/>
<path d="M281.735 534.735C283.127 531 282.75 524.578 282.75 524.578L356.326 523.054C356.326 523.054 355.449 529.039 356.326 532.703C357.592 538 360.386 540.829 363.937 544.384C367.488 547.939 353.814 542.702 347.7 544.384C342.484 545.819 340.92 551.32 335.522 550.987C332.326 550.789 331.111 548.009 327.91 547.939C324.525 547.866 323.175 550.861 319.792 550.987C316.034 551.126 314.415 547.8 310.658 547.939C307.274 548.065 305.923 550.866 302.539 550.987C297.134 551.179 290.361 544.384 290.361 544.384C290.361 544.384 286.027 547.788 282.75 547.939C279.111 548.107 269.556 547.939 274.124 544.384C278.692 540.829 280.059 539.233 281.735 534.735Z" fill="#2CA66C" stroke="#2CA66C" stroke-linecap="round"/>
<path d="M319.49 498.712C329.262 498.712 342.299 499.413 351.222 499.978C356.69 500.324 360.911 504.877 360.911 510.364V516.712C360.911 522.511 356.21 527.212 350.411 527.212H288.569C282.77 527.212 278.069 522.511 278.069 516.712V510.364C278.069 504.877 282.29 500.324 287.759 499.978C296.682 499.413 309.718 498.712 319.49 498.712Z" fill="#2CA66C" stroke="#2CA66C"/>
<path d="M268.681 85.9504C272.906 70.7563 283.705 59.1075 286.522 40.3682L351.795 40.3682C353.674 57.5881 366.352 73.2886 369.639 85.9504C372.926 98.6121 377.15 213.074 369.639 218.139C362.128 223.203 339.464 229.746 319.395 229.788C299.146 229.829 273.849 221.684 268.681 218.139C263.512 214.593 264.456 101.144 268.681 85.9504Z" fill="#E3562B" stroke="#E3562B" stroke-width="7"/>
<path d="M281.735 36.5228C283.127 32.7876 282.75 26.3655 282.75 26.3655L356.326 24.8419C356.326 24.8419 355.449 30.8265 356.326 34.4914C357.592 39.7879 360.386 42.6172 363.937 46.1723C367.488 49.7273 353.814 44.4897 347.7 46.1723C342.484 47.6074 340.92 53.1082 335.522 52.7745C332.326 52.577 331.111 49.797 327.91 49.7273C324.525 49.6537 323.175 52.6491 319.792 52.7745C316.034 52.9138 314.415 49.588 310.658 49.7273C307.274 49.8528 305.923 52.6539 302.539 52.7745C297.134 52.9672 290.361 46.1723 290.361 46.1723C290.361 46.1723 286.027 49.5763 282.75 49.7273C279.111 49.8951 269.556 49.7273 274.124 46.1723C278.692 42.6172 280.059 41.0214 281.735 36.5228Z" fill="#2CA66C" stroke="#2CA66C" stroke-linecap="round"/>
<path d="M319.49 0.5C329.262 0.500009 342.299 1.20059 351.222 1.76563C356.69 2.11201 360.911 6.66506 360.911 12.1523V18.5C360.911 24.2988 356.21 28.9998 350.411 29L288.569 29C282.77 29 278.069 24.2989 278.069 18.5V12.1523C278.069 6.66502 282.29 2.11194 287.759 1.76563C296.682 1.20059 309.718 0.5 319.49 0.5Z" fill="#2CA66C" stroke="#2CA66C"/>
<path d="M510.722 335.056C506.497 319.862 495.698 308.214 492.881 289.474H427.608C425.729 306.694 413.051 322.395 409.764 335.056C406.478 347.718 402.254 462.18 409.764 467.245C417.275 472.31 439.939 478.852 460.009 478.894C480.258 478.935 505.554 470.79 510.722 467.245C515.891 463.7 514.948 350.251 510.722 335.056Z" fill="#E3562B" stroke="#E3562B" stroke-width="7"/>
<path d="M497.668 285.629C496.276 281.894 496.653 275.472 496.653 275.472L423.078 273.948C423.078 273.948 423.954 279.933 423.078 283.597C421.811 288.894 419.017 291.723 415.466 295.278C411.916 298.833 425.59 293.596 431.704 295.278C436.919 296.714 438.483 302.214 443.882 301.881C447.077 301.683 448.292 298.903 451.493 298.833C454.878 298.76 456.228 301.755 459.612 301.881C463.369 302.02 464.988 298.694 468.745 298.833C472.129 298.959 473.48 301.76 476.864 301.881C482.269 302.073 489.042 295.278 489.042 295.278C489.042 295.278 493.376 298.682 496.653 298.833C500.292 299.001 509.847 298.833 505.279 295.278C500.712 291.723 499.344 290.128 497.668 285.629Z" fill="#2CA66C" stroke="#2CA66C" stroke-linecap="round"/>
<path d="M459.912 249.606C450.14 249.606 437.103 250.307 428.181 250.872C422.712 251.218 418.491 255.771 418.491 261.258V267.606C418.491 273.405 423.192 278.106 428.991 278.106H490.833C496.632 278.106 501.333 273.405 501.333 267.606V261.258C501.333 255.771 497.112 251.218 491.644 250.872C482.721 250.307 469.684 249.606 459.912 249.606Z" fill="#2CA66C" stroke="#2CA66C"/>
<path d="M669.75 584.162C673.975 568.968 684.774 557.319 687.592 538.58H752.865C754.743 555.8 767.422 571.501 770.708 584.162C773.995 596.824 778.219 711.286 770.708 716.351C763.197 721.415 740.534 727.958 720.464 727.999C700.215 728.041 674.918 719.896 669.75 716.351C664.582 712.805 665.525 599.356 669.75 584.162Z" fill="#2CA66C" stroke="#2CA66C" stroke-width="7"/>
<path d="M682.805 534.735C684.196 531 683.82 524.578 683.82 524.578L757.395 523.054C757.395 523.054 756.519 529.039 757.395 532.703C758.661 538 761.455 540.829 765.006 544.384C768.557 547.939 754.883 542.702 748.769 544.384C743.554 545.819 741.989 551.32 736.591 550.987C733.396 550.789 732.18 548.009 728.98 547.939C725.594 547.866 724.245 550.861 720.861 550.987C717.104 551.126 715.485 547.8 711.727 547.939C708.344 548.065 706.993 550.866 703.609 550.987C698.204 551.179 691.431 544.384 691.431 544.384C691.431 544.384 687.096 547.788 683.82 547.939C680.18 548.107 670.626 547.939 675.193 544.384C679.761 540.829 681.129 539.233 682.805 534.735Z" fill="#EA7D9C" stroke="#EA7D9C" stroke-linecap="round"/>
<path d="M720.561 498.712C730.333 498.712 743.369 499.413 752.292 499.978C757.761 500.324 761.981 504.877 761.981 510.365V516.712C761.981 522.511 757.28 527.212 751.481 527.212H689.64C683.841 527.212 679.14 522.511 679.14 516.712V510.365C679.14 504.877 683.36 500.324 688.829 499.978C697.752 499.413 710.788 498.712 720.561 498.712Z" fill="#EA7D9C" stroke="#EA7D9C"/>
<path d="M669.75 85.9504C673.975 70.7563 684.774 59.1075 687.592 40.3682L752.865 40.3682C754.743 57.5881 767.422 73.2886 770.708 85.9504C773.995 98.6121 778.219 213.074 770.708 218.139C763.197 223.203 740.534 229.746 720.464 229.788C700.215 229.829 674.918 221.684 669.75 218.139C664.582 214.593 665.525 101.144 669.75 85.9504Z" fill="#2CA66C" stroke="#2CA66C" stroke-width="7"/>
<path d="M682.805 36.5228C684.196 32.7876 683.82 26.3655 683.82 26.3655L757.395 24.8419C757.395 24.8419 756.519 30.8265 757.395 34.4914C758.661 39.7879 761.455 42.6172 765.006 46.1723C768.557 49.7273 754.883 44.4897 748.769 46.1723C743.554 47.6074 741.989 53.1082 736.591 52.7745C733.396 52.577 732.18 49.797 728.98 49.7273C725.594 49.6537 724.245 52.6491 720.861 52.7745C717.104 52.9138 715.485 49.588 711.727 49.7273C708.344 49.8528 706.993 52.6539 703.609 52.7745C698.204 52.9672 691.431 46.1723 691.431 46.1723C691.431 46.1723 687.096 49.5763 683.82 49.7273C680.18 49.8951 670.626 49.7273 675.193 46.1723C679.761 42.6172 681.129 41.0214 682.805 36.5228Z" fill="#EA7D9C" stroke="#EA7D9C" stroke-linecap="round"/>
<path d="M720.561 0.5C730.333 0.500009 743.369 1.20059 752.292 1.76563C757.761 2.11201 761.981 6.66506 761.981 12.1523V18.5C761.981 24.2988 757.28 28.9998 751.481 29L689.64 29C683.841 29 679.14 24.2989 679.14 18.5V12.1523C679.14 6.66502 683.36 2.11194 688.829 1.76563C697.752 1.20059 710.788 0.5 720.561 0.5Z" fill="#EA7D9C" stroke="#EA7D9C"/>
<path d="M109.652 335.056C105.427 319.862 94.6281 308.214 91.8107 289.474H26.5378C24.6591 306.694 11.9807 322.395 8.69408 335.056C5.40748 347.718 1.1832 462.18 8.69408 467.245C16.2049 472.31 38.8686 478.852 58.9383 478.894C79.1874 478.935 104.484 470.79 109.652 467.245C114.821 463.7 113.877 350.251 109.652 335.056Z" fill="#2CA66C" stroke="#2CA66C" stroke-width="7"/>
<path d="M96.5967 285.629C95.2052 281.894 95.5818 275.472 95.5818 275.472L22.0064 273.948C22.0064 273.948 22.8826 279.933 22.0064 283.597C20.74 288.894 17.946 291.723 14.3951 295.278C10.8442 298.833 24.5183 293.596 30.6324 295.278C35.8476 296.714 37.4121 302.214 42.8105 301.881C46.0057 301.683 47.2211 298.903 50.4217 298.833C53.8071 298.76 55.1566 301.755 58.5404 301.881C62.2976 302.02 63.9167 298.694 67.6739 298.833C71.0577 298.959 72.4086 301.76 75.7926 301.881C81.1978 302.073 87.9706 295.278 87.9706 295.278C87.9706 295.278 92.3052 298.682 95.5818 298.833C99.2211 299.001 108.776 298.833 104.208 295.278C99.6403 291.723 98.2726 290.128 96.5967 285.629Z" fill="#EA7D9C" stroke="#EA7D9C" stroke-linecap="round"/>
<path d="M58.8418 249.606C49.0696 249.606 36.0331 250.307 27.1104 250.872C21.6415 251.218 17.4209 255.771 17.4209 261.258V267.606C17.421 273.405 22.1222 278.106 27.9209 278.106H89.7627C95.5616 278.106 100.263 273.405 100.263 267.606V261.258C100.263 255.771 96.0421 251.218 90.5732 250.872C81.6505 250.307 68.6139 249.606 58.8418 249.606Z" fill="#EA7D9C" stroke="#EA7D9C"/>
</svg>
